<?xml version="1.0" encoding="UTF-8"?>
<svg version="1.1" xmlns="http://www.w3.org/2000/svg" width="3000" height="750">
<path d="M0 0 C16.5 0 33 0 50 0 C50.06058594 4.86363281 50.12117187 9.72726563 50.18359375 14.73828125 C50.22430759 17.90560348 50.26518874 21.07292193 50.30664062 24.24023438 C50.37175892 29.21702275 50.43640948 34.19381234 50.49731445 39.1706543 C50.77906668 62.12203629 51.26848234 85.05841551 52 108 C53.42694677 106.58581281 54.85203969 105.1697549 56.27636719 103.75292969 C57.07016785 102.96456726 57.86396851 102.17620483 58.68182373 101.36395264 C61.33173599 98.66171332 63.80951285 95.84733316 66.27539062 92.97851562 C69.33070265 89.47338416 72.54946051 86.12204569 75.75 82.75 C82.23258168 75.8911404 88.64301143 68.97529749 95 62 C96.81178208 60.02016857 98.6240828 58.04083187 100.4375 56.0625 C100.8897998 55.5689502 101.34209961 55.07540039 101.80810547 54.56689453 C106.6896051 49.24303599 111.59074762 43.9373663 116.49267578 38.63232422 C117.97410134 37.02804639 119.45408992 35.42245634 120.93359375 33.81640625 C125.13832741 29.25364438 129.34609868 24.69427016 133.5859375 20.1640625 C134.1958252 19.51228027 134.80571289 18.86049805 135.43408203 18.18896484 C136.59806364 16.94611167 137.76301539 15.70416594 138.92919922 14.46337891 C139.47334473 13.88249512 140.01749023 13.30161133 140.578125 12.703125 C141.11029633 12.15225723 141.64246765 11.60138947 142.19076538 11.03382874 C144.05484743 9.03434422 144.05484743 9.03434422 145.52606201 6.70051575 C148.37095714 2.7123529 150.50988335 0.3482661 155.38018799 -0.79000854 C159.57462534 -1.04167479 163.67930808 -1.01436849 167.875 -0.87890625 C169.41052501 -0.86209564 170.94609868 -0.84929605 172.48168945 -0.84031677 C176.50087504 -0.80614145 180.51707869 -0.7179137 184.53509521 -0.61798096 C188.64408023 -0.52549446 192.75355281 -0.48472059 196.86328125 -0.43945312 C204.91021453 -0.34326539 212.95473518 -0.1899066 221 0 C220.05106383 1.10953536 219.10177645 2.21877035 218.15234375 3.32788086 C217.35944946 4.25448769 217.35944946 4.25448769 216.55053711 5.19981384 C207.82100425 15.33487228 198.34471444 24.74491857 188.83007812 34.13305664 C184.3068204 38.61423942 179.94760396 43.13355214 175.80786133 47.96948242 C171.25858585 53.07904679 166.25444641 57.77920205 161.3828125 62.578125 C156.91312488 67.00705559 152.61044449 71.48934175 148.51513672 76.26660156 C146.48059477 78.59422771 144.28989763 80.73284388 142.0625 82.875 C134.86643855 89.89960581 134.86643855 89.89960581 129 98 C129.44822707 101.12828515 130.68540465 103.37908787 132.37109375 106.01953125 C132.85763428 106.78644287 133.3441748 107.55335449 133.84545898 108.34350586 C134.37083252 109.15827393 134.89620605 109.97304199 135.4375 110.8125 C135.98027588 111.66271729 136.52305176 112.51293457 137.08227539 113.38891602 C140.7068026 119.04670164 144.39804937 124.65758986 148.14501953 130.23486328 C153.29234416 137.9000114 158.29613688 145.65851484 163.31787109 153.40625 C165.53652858 156.82729748 167.75982074 160.24532046 169.9831543 163.66333008 C174.94469812 171.29119649 179.8960578 178.92554281 184.83642578 186.56713867 C188.38248893 192.05027245 191.93995276 197.52593763 195.5 203 C197.14450715 205.52969507 198.78886428 208.05948753 200.43310547 210.58935547 C201.439713 212.13800656 202.44653104 213.68652085 203.45361328 215.23486328 C206.64840644 220.14846635 209.83034552 225.07014365 213 230 C213.54172852 230.84143555 214.08345703 231.68287109 214.64160156 232.54980469 C216.32889927 235.17566776 218.00915094 237.80591024 219.6875 240.4375 C220.21738525 241.2612915 220.74727051 242.08508301 221.29321289 242.93383789 C221.77781982 243.69688232 222.26242676 244.45992676 222.76171875 245.24609375 C223.19444092 245.92341553 223.62716309 246.6007373 224.07299805 247.29858398 C225 249 225 249 225 251 C203.22 251 181.44 251 159 251 C153.72 241.76 148.44 232.52 143 223 C138.20844674 214.8586224 138.20844674 214.8586224 133.39453125 206.73046875 C130.9156992 202.55594203 128.45797064 198.36945898 126.01171875 194.17578125 C118.68584789 181.62122579 111.30139637 169.10805068 103.75 156.6875 C103.2155426 155.80828888 103.2155426 155.80828888 102.67028809 154.91131592 C98.81999982 148.58226192 94.94213269 142.27226926 91 136 C85.37116701 140.68570406 80.16421013 145.68479552 75 150.875 C74.23171875 151.63941406 73.4634375 152.40382813 72.671875 153.19140625 C68.55941386 157.31086138 64.58504453 161.47777486 60.87060547 165.96188354 C59 168 59 168 56.94946289 169.5295105 C53.13037609 172.51288094 51.24757183 174.79265879 50.25952148 179.6111145 C49.87597295 184.1335688 49.94260715 188.65329549 50 193.1875 C49.99247331 194.85760381 49.98143216 196.52769514 49.96704102 198.19775391 C49.9387162 202.5711679 49.95782388 206.94311036 49.98712158 211.31646729 C50.0123598 216.57546565 49.978141 221.83437905 49.95399475 227.09333801 C49.92400576 235.06307954 49.96910549 243.02921591 50 251 C33.5 251 17 251 0 251 C0 168.17 0 85.34 0 0 Z " fill="#1A3553" transform="translate(715,181)"/>
<path d="M0 0 C15.84 0.33 31.68 0.66 48 1 C48 83.83 48 166.66 48 252 C33.15 252 18.3 252 3 252 C2.67 244.08 2.34 236.16 2 228 C0.7625 229.464375 -0.475 230.92875 -1.75 232.4375 C-12.98670737 244.82938289 -28.53299932 254.87200874 -45.58325195 256.20141602 C-66.34032411 256.96921828 -84.16358123 253.21809861 -100 239 C-100.80953125 238.28328125 -101.6190625 237.5665625 -102.453125 236.828125 C-113.31923224 226.6286501 -120.55653706 214.1903034 -125 200 C-125.21027832 199.34547852 -125.42055664 198.69095703 -125.63720703 198.01660156 C-129.36451752 185.68667028 -129.39202033 173.07813213 -129.4375 160.3125 C-129.44376404 159.48637207 -129.45002808 158.66024414 -129.45648193 157.80908203 C-129.57980384 132.0405539 -124.63740829 107.5525309 -106.2578125 88.26953125 C-105.14019531 87.14611328 -105.14019531 87.14611328 -104 86 C-103.33742188 85.30261719 -102.67484375 84.60523438 -101.9921875 83.88671875 C-88.98986066 71.15630369 -70.85547545 66.20717108 -53.07763672 65.97705078 C-31.65720947 66.21365715 -16.804751 75.17084288 -1 89 C-0.67 59.63 -0.34 30.26 0 0 Z M-68.97265625 117.25390625 C-76.14964937 126.74704152 -79.11219248 137.81142505 -79.23828125 149.58203125 C-79.246353 150.31387131 -79.25442474 151.04571136 -79.26274109 151.79972839 C-79.27653768 153.35042999 -79.28727952 154.90116138 -79.29516602 156.4519043 C-79.30657808 158.00603417 -79.32685459 159.56012829 -79.35668945 161.11401367 C-79.65966972 176.93838522 -78.06878727 194.05630189 -66.89453125 206.30859375 C-57.66411286 214.96707572 -48.65447216 217.49044216 -36.24609375 217.27734375 C-31.1276751 217.05256723 -27.2860211 215.81652815 -23 213 C-21.95972656 212.34644531 -21.95972656 212.34644531 -20.8984375 211.6796875 C-11.4283707 205.18896756 -4.66980626 194.34642671 -2.37524414 183.10083008 C1.17696063 163.21356783 1.40646702 137.9515681 -9.63671875 120.3984375 C-11.31992355 118.13651285 -13.0770903 116.06055834 -15 114 C-15.78310547 113.13761719 -15.78310547 113.13761719 -16.58203125 112.2578125 C-23.04152383 105.93976866 -31.73411214 103.81492466 -40.5625 103.5 C-52.10726403 103.92758385 -61.38740854 108.58719748 -68.97265625 117.25390625 Z " fill="#1B3654" transform="translate(1669,180)"/>
<path d="M0 0 C19.48560277 16.29458071 26.82672837 39.90503044 29.31152344 64.27734375 C31.65932752 91.77210959 28.25636963 123.45951616 9.9140625 145.375 C7.24822141 148.41966124 4.42834262 151.27626097 1.5546875 154.125 C0.84828125 154.86492187 0.141875 155.60484375 -0.5859375 156.3671875 C-13.81888448 169.34759733 -31.6285464 173.64645601 -49.63305664 173.54736328 C-66.62747577 173.07831915 -79.6871457 165.9621335 -92.4453125 155.125 C-93.49417647 154.2484011 -94.54393049 153.37286628 -95.59448242 152.49829102 C-96.53525635 151.71510498 -97.47603027 150.93191895 -98.4453125 150.125 C-99.31778812 168.76249934 -99.71743234 187.3924988 -99.97753906 206.04602051 C-100.02892714 209.68110554 -100.08394952 213.31613577 -100.13867188 216.95117188 C-100.24467033 224.00906873 -100.34488096 231.06701311 -100.4453125 238.125 C-115.9553125 238.125 -131.4653125 238.125 -147.4453125 238.125 C-147.4453125 155.625 -147.4453125 73.125 -147.4453125 -11.875 C-132.9253125 -11.875 -118.4053125 -11.875 -103.4453125 -11.875 C-102.9503125 -0.49 -102.9503125 -0.49 -102.4453125 11.125 C-100.4034375 8.98 -98.3615625 6.835 -96.2578125 4.625 C-69.0533238 -23.03332298 -29.94578109 -22.96162128 0 0 Z M-88.4453125 35.125 C-101.04975839 50.79018132 -101.42508435 70.43089246 -99.48095703 89.53271484 C-97.90481467 102.90164776 -93.87385348 116.08327028 -83.65625 125.453125 C-72.99327429 133.51629391 -63.55061289 135.71906445 -50.4453125 134.125 C-42.16890788 132.4368327 -35.84707998 127.48748451 -30.4453125 121.125 C-18.22859574 102.06508475 -17.7602189 78.8474048 -21.4453125 57.125 C-24.24822616 44.82704867 -30.07426411 34.51096045 -40.4453125 27.125 C-57.57740369 17.65293035 -75.37455964 20.84602629 -88.4453125 35.125 Z " fill="#193553" transform="translate(2727.4453125,262.875)"/>
<path d="M0 0 C2.68612222 1.39215844 5.29111855 2.89221714 7.88183594 4.4543457 C10.65737881 6.11865454 13.46806104 7.71307601 16.28466797 9.30688477 C29.4673286 16.797414 42.50907992 24.53450374 55.546875 32.27368164 C58.41173192 33.97038919 61.28120781 35.6590572 64.15185547 37.34594727 C88.24903414 51.5116688 88.24903414 51.5116688 96.59326172 57.70532227 C97.35251953 58.26864258 98.11177734 58.83196289 98.89404297 59.41235352 C104.76504193 65.51396455 107.9507113 71.61842205 108.03839111 80.12568665 C108.0183905 81.11981064 107.99838989 82.11393463 107.9777832 83.13818359 C107.98026566 84.21425873 107.98274811 85.29033386 107.98530579 86.39901733 C107.98621764 89.92503276 107.94455586 93.44911935 107.90185547 96.97485352 C107.89319223 99.43722294 107.88705151 101.89960242 107.88331604 104.36198425 C107.86613911 110.82282174 107.81208611 117.28285736 107.7510376 123.7434082 C107.70736032 129.02307159 107.68987254 134.30266948 107.67376614 139.58247852 C107.65416575 145.87998302 107.62362798 152.17741332 107.58935547 158.47485352 C107.58292967 159.67546732 107.57650387 160.87608112 107.56988335 162.11307716 C107.54889938 165.50693929 107.52061187 168.90065086 107.48950195 172.29443359 C107.48367096 173.29867874 107.47783997 174.30292389 107.47183228 175.33760071 C107.46178665 176.26399353 107.45174103 177.19038635 107.44139099 178.14485168 C107.43451987 178.9458067 107.42764875 179.74676172 107.42056942 180.57198811 C107.26922965 183.08425678 106.8265558 185.4384991 106.28076172 187.89282227 C102.31610358 186.66309586 98.79222269 185.22950827 95.17529297 183.19750977 C94.20599854 182.65489502 93.2367041 182.11228027 92.23803711 181.55322266 C91.20026123 180.96404053 90.16248535 180.3748584 89.09326172 179.76782227 C87.9968335 179.14963623 86.90040527 178.5314502 85.77075195 177.89453125 C76.5911673 172.69322224 67.5082683 167.33364179 58.4465332 161.9296875 C50.72255982 157.32566091 42.95586753 152.8040071 35.15576172 148.33032227 C25.58956405 142.83956225 16.113268 137.21519065 6.67041016 131.51538086 C-1.77419663 126.43035675 -10.29859362 121.49411956 -18.84814453 116.58813477 C-27.81822578 111.43328521 -36.71833652 106.16626294 -45.60888672 100.87573242 C-53.31771897 96.29604088 -61.06725926 91.79316477 -68.84423828 87.33032227 C-79.66711594 81.11559416 -90.39187996 74.74994411 -101.07080078 68.29125977 C-104.56719789 66.17789764 -108.0769347 64.09504861 -111.61767578 62.05688477 C-112.69045776 61.43402588 -112.69045776 61.43402588 -113.78491211 60.79858398 C-115.07117193 60.05409762 -116.36236837 59.31804387 -117.65942383 58.5925293 C-119.31689453 57.62719727 -119.31689453 57.62719727 -121.71923828 55.89282227 C-121.71923828 54.90282227 -121.71923828 53.91282227 -121.71923828 52.89282227 C-119.78464384 51.47539664 -117.92556071 50.31421297 -115.84423828 49.14282227 C-114.86076416 48.57180786 -114.86076416 48.57180786 -113.85742188 47.98925781 C-112.34545133 47.11348554 -110.8303895 46.24303776 -109.31298828 45.37670898 C-106.47161097 43.75115446 -103.64195357 42.10628475 -100.81298828 40.45922852 C-87.90123482 32.95670746 -74.91011373 25.60281466 -61.86767578 18.33032227 C-57.67634764 15.99184745 -53.49485922 13.63698573 -49.32080078 11.26782227 C-47.76752075 10.38634521 -47.76752075 10.38634521 -46.18286133 9.48706055 C-44.23025496 8.37772178 -42.27852827 7.26683252 -40.32788086 6.15405273 C-37.79981539 4.71847517 -35.26106316 3.30384556 -32.71923828 1.89282227 C-32.02330566 1.48805664 -31.32737305 1.08329102 -30.61035156 0.66625977 C-21.57003782 -4.3251878 -9.37911227 -4.26900162 0 0 Z " fill="#2F6AA3" transform="translate(466.71923828125,165.107177734375)"/>
<path d="M0 0 C2.75074287 1.42226923 5.45232602 2.91676068 8.13842773 4.45751953 C10.86558541 6.01738145 13.61656462 7.52950132 16.37133789 9.04003906 C28.26163362 15.59194871 39.99789596 22.39312419 51.66040039 29.34082031 C56.11819555 31.99465577 60.59240144 34.61892273 65.07446289 37.23144531 C66.38142972 37.99405807 67.68839587 38.756672 68.99536133 39.51928711 C70.91510443 40.63925697 72.83530349 41.75839708 74.75720215 42.87466431 C81.84160633 46.99022063 88.82910853 51.18505103 95.57055664 55.84863281 C94.31383526 59.61879697 93.27493333 59.85574684 89.84790039 61.71191406 C88.34610229 62.5368335 88.34610229 62.5368335 86.81396484 63.37841797 C85.72301514 63.96671387 84.63206543 64.55500977 83.50805664 65.16113281 C81.20749344 66.42348214 78.90804075 67.68785713 76.60961914 68.95410156 C76.02165054 69.27701172 75.43368195 69.59992188 74.82789612 69.93261719 C68.94787211 73.17023228 63.1639032 76.56319513 57.38305664 79.97363281 C48.96104693 84.92561817 40.4546861 89.67781429 31.85449219 94.31225586 C25.04946851 97.99691534 18.36206198 101.85716481 11.69555664 105.78613281 C2.68589778 111.09262283 -6.42873825 116.15354665 -15.64208984 121.09667969 C-22.97426124 125.03781908 -30.21938515 129.10991756 -37.43286133 133.26367188 C-44.17104758 137.14119984 -50.95026514 140.94070052 -57.74194336 144.72363281 C-66.05140314 149.3553234 -74.29350207 154.08587571 -82.49194336 158.91113281 C-93.47371438 165.3664744 -104.62743363 171.46552902 -115.86254883 177.46679688 C-118.1477655 178.69699721 -120.41883278 179.94804274 -122.68334961 181.21582031 C-123.28896729 181.55234619 -123.89458496 181.88887207 -124.51855469 182.2355957 C-126.02813583 183.07681606 -127.53370851 183.92521957 -129.03881836 184.77441406 C-131.42944336 185.84863281 -131.42944336 185.84863281 -135.42944336 185.84863281 C-135.45277341 174.05108659 -135.47046254 162.25354599 -135.48125553 150.45598125 C-135.48643966 144.9759355 -135.49345449 139.49590571 -135.50488281 134.01586914 C-135.51587259 128.71198689 -135.52175371 123.40811984 -135.5243206 118.10422707 C-135.52614623 116.09639052 -135.52970994 114.08855466 -135.53517342 112.08072472 C-135.56107849 102.15159961 -135.49713847 92.24024538 -135.02880859 82.32055664 C-134.97916631 81.16149701 -134.97916631 81.16149701 -134.92852116 79.97902203 C-134.40642319 70.3545104 -131.29180033 63.5160837 -124.42944336 56.84863281 C-121.53768817 54.71463266 -118.48950892 52.93506068 -115.36694336 51.16113281 C-114.05246216 50.39422119 -114.05246216 50.39422119 -112.71142578 49.61181641 C-109.95828142 48.01065528 -107.19478407 46.42861715 -104.42944336 44.84863281 C-102.72856965 43.86617055 -101.02804082 42.88311095 -99.32788086 41.89941406 C-88.85546627 35.86225631 -78.30374901 29.96578834 -67.74951172 24.07324219 C-60.90884308 20.2504689 -54.0985982 16.37836968 -47.30444336 12.47363281 C-41.17853532 8.95832184 -35.03216022 5.49330604 -28.80444336 2.16113281 C-28.19455566 1.83387207 -27.58466797 1.50661133 -26.95629883 1.16943359 C-18.33572206 -3.39352258 -8.95866988 -4.20711678 0 0 Z " fill="#316FA9" transform="translate(329.429443359375,84.1513671875)"/>
<path d="M0 0 C3.19159635 1.22283119 6.16775481 2.55978963 9.1328125 4.2578125 C9.92453857 4.71003174 10.71626465 5.16225098 11.53198242 5.62817383 C12.38767822 6.12212646 13.24337402 6.6160791 14.125 7.125 C15.49458862 7.91136841 15.49458862 7.91136841 16.8918457 8.71362305 C25.51556236 13.68343046 34.07053304 18.76820091 42.62426758 23.85717773 C50.48464853 28.52983966 58.38429932 33.1307032 66.3125 37.6875 C75.06816804 42.72067104 83.79007398 47.80490851 92.47753906 52.95483398 C99.99269039 57.40912961 107.52459737 61.83436836 115.0625 66.25 C115.67109863 66.60653656 116.27969727 66.96307312 116.90673828 67.33041382 C119.39116514 68.78582037 121.87564082 70.24114349 124.36022949 71.6962738 C128.72547681 74.25293093 133.08961067 76.81148015 137.453125 79.37109375 C148.62844331 85.92605797 159.80688151 92.47545303 171 99 C172.93492488 100.12885646 174.86982031 101.25776342 176.8046875 102.38671875 C180.07865454 104.29697764 183.3533535 106.20595666 186.62988281 108.11181641 C189.83429141 109.97584547 193.03678563 111.84313091 196.23828125 113.7121582 C197.46647199 114.42844387 198.69528208 115.14366896 199.92480469 115.85766602 C206.60150539 119.73568847 213.21663892 123.69729945 219.7421875 127.82421875 C220.33959747 128.19666214 220.93700745 128.56910553 221.55252075 128.95283508 C224.43658615 130.79814478 226.06849608 132.10274412 228 135 C221.55391423 139.41626715 214.95091727 143.46524483 208.1875 147.375 C207.15343018 147.97513916 206.11936035 148.57527832 205.05395508 149.19360352 C201.70535508 151.13381808 198.35334299 153.06799539 195 155 C193.87464844 155.64855957 192.74929688 156.29711914 191.58984375 156.96533203 C179.15995296 164.11888266 166.6968385 171.2147487 154.17886353 178.21316528 C152.49891025 179.15313949 150.82106873 180.09688485 149.14331055 181.04077148 C129.95903937 191.72151885 129.95903937 191.72151885 121.4375 191.5625 C120.26058594 191.56378906 119.08367187 191.56507813 117.87109375 191.56640625 C107.98853249 190.120421 99.56863717 184.70343455 91.0625 179.75 C89.82891828 179.03794254 88.5951081 178.32628074 87.36108398 177.61499023 C76.82514453 171.52921866 66.35909263 165.32481673 55.90625 159.09765625 C51.04552798 156.20547059 46.1695512 153.34138089 41.28125 150.49609375 C40.63502182 150.11945084 39.98879364 149.74280792 39.32298279 149.35475159 C35.54032785 147.14998631 35.54032785 147.14998631 31.75320435 144.95291138 C4.90355232 129.41327448 4.90355232 129.41327448 0 116 C-1.74901564 106.40609836 -1.14585313 96.26001348 -1.1328125 86.54296875 C-1.13348828 84.75051358 -1.13446058 82.9580585 -1.13571167 81.16560364 C-1.13717992 77.41613896 -1.13506507 73.66669821 -1.13037109 69.91723633 C-1.12471917 65.17829907 -1.1280144 60.43941855 -1.13382339 55.70048332 C-1.17258678 18.21248958 -1.17258678 18.21248958 0 0 Z " fill="#3C83BA" transform="translate(196,320)"/>
<path d="M0 0 C1.43045366 2.86090731 1.12729267 5.29801045 1.12939453 8.49633789 C1.13202301 9.49991081 1.13202301 9.49991081 1.13470459 10.52375793 C1.13913323 12.7567499 1.13617143 14.98966333 1.1328125 17.22265625 C1.13348767 18.79984044 1.13445947 20.37702453 1.13571167 21.95420837 C1.13719192 25.2875974 1.1350325 28.62095977 1.13037109 31.9543457 C1.12481578 36.12013805 1.12796881 40.28586462 1.13379288 44.45165443 C1.15288421 60.37869263 1.09145623 76.30405216 0.67306137 92.22637749 C0.63641191 93.63316563 0.60239822 95.04002545 0.57129288 96.4469471 C0.30568731 108.01994782 -0.20193721 117.91397768 -8 127 C-14.44519068 132.19998042 -21.71085654 136.32258564 -28.875 140.4375 C-30.41716187 141.32985352 -30.41716187 141.32985352 -31.99047852 142.24023438 C-35.32369766 144.16592768 -38.66132337 146.08378602 -42 148 C-43.13453613 148.65242676 -44.26907227 149.30485352 -45.43798828 149.97705078 C-65.05712381 161.25638146 -84.69909535 172.51964158 -104.625 183.25 C-105.28137451 183.60892334 -105.93774902 183.96784668 -106.61401367 184.33764648 C-112.96710156 187.71613351 -119.74067368 190.21196746 -127 189 C-135.29593753 186.12573234 -142.96058141 182.02976951 -150.5625 177.6875 C-151.62895752 177.08429932 -152.69541504 176.48109863 -153.79418945 175.85961914 C-165.21418264 169.36870082 -176.49975088 162.65151064 -187.77685547 155.91650391 C-190.86538531 154.08004282 -193.96326859 152.2608654 -197.06640625 150.44921875 C-205.42563628 145.56646783 -213.75914875 140.6555937 -221.875 135.375 C-222.50631836 134.97297363 -223.13763672 134.57094727 -223.78808594 134.15673828 C-225.4921875 133.0234375 -225.4921875 133.0234375 -228 131 C-228 130.01 -228 129.02 -228 128 C-225.70288086 126.30517578 -225.70288086 126.30517578 -222.46484375 124.4453125 C-221.59337456 123.93879402 -221.59337456 123.93879402 -220.70429993 123.42204285 C-218.78812292 122.3120753 -216.8631161 121.21849727 -214.9375 120.125 C-213.60268553 119.35658873 -212.26837943 118.58729372 -210.93457031 117.81713867 C-207.58300203 115.88604179 -204.22375489 113.96882808 -200.86077881 112.05767822 C-199.16344157 111.0929012 -197.4676251 110.12544993 -195.77197266 109.15771484 C-187.20965212 104.27288325 -178.60893693 99.45749797 -170.00390625 94.6484375 C-167.94007635 93.49484142 -165.87627461 92.34119498 -163.8125 91.1875 C-162.26296631 90.3217334 -162.26296631 90.3217334 -160.68212891 89.43847656 C-152.21088781 84.69729527 -143.78360856 79.88097382 -135.36242676 75.05172729 C-126.63335425 70.04847474 -117.86532302 65.1224436 -109.0625 60.25 C-98.6060779 54.46174373 -88.20549771 48.58557771 -77.84228516 42.63232422 C-72.31462914 39.45779165 -66.78298903 36.29022532 -61.25 33.125 C-60.36251068 32.61715973 -60.36251068 32.61715973 -59.45709229 32.09906006 C-49.95409693 26.66336872 -40.41561024 21.29384953 -30.85009766 15.96875 C-25.9804649 13.25228119 -21.13205418 10.50822852 -16.32421875 7.68359375 C-15.4432251 7.16643799 -14.56223145 6.64928223 -13.65454102 6.11645508 C-12.01476749 5.14962017 -10.37830607 4.17713689 -8.74584961 3.19799805 C-7.66895874 2.56244995 -7.66895874 2.56244995 -6.5703125 1.9140625 C-5.94914551 1.5423291 -5.32797852 1.1705957 -4.68798828 0.78759766 C-3 0 -3 0 0 0 Z " fill="#6BC9D9" transform="translate(434,478)"/>
<path d="M0 0 C5.05969495 2.44171867 9.81957921 5.41973691 14.61767578 8.33227539 C17.04026534 9.78855861 19.46576017 11.23997568 21.89111328 12.69165039 C22.50557312 13.0602417 23.12003296 13.42883301 23.75311279 13.80859375 C29.87344633 17.47455377 36.05338826 21.03416142 42.24267578 24.58227539 C51.42315123 29.85794276 60.5674435 35.19073399 69.68017578 40.58227539 C70.77523437 41.22874023 71.87029297 41.87520508 72.99853516 42.54125977 C102.58223353 60.08782948 102.58223353 60.08782948 106.29345703 72.63476562 C107.91397679 80.18329952 107.5084812 87.97922634 107.47314453 95.66040039 C107.47194816 97.39410365 107.47150053 99.12780757 107.47175598 100.86151123 C107.47019522 104.49943094 107.46195229 108.13725171 107.44848633 111.77514648 C107.43174843 116.34559603 107.4277482 120.91593562 107.4283123 125.48641205 C107.42761717 146.37258322 107.16963368 167.2143368 106.24267578 188.08227539 C102.05985861 186.45703083 98.19965729 184.48759619 94.30517578 182.26977539 C93.61190186 181.87725586 92.91862793 181.48473633 92.2043457 181.08032227 C84.5475571 176.72275936 76.97543853 172.22191343 69.39892578 167.72680664 C62.63294493 163.71501168 55.84409011 159.74256247 49.05517578 155.76977539 C39.5355076 150.19824255 30.03676207 144.59344833 20.55517578 138.95727539 C11.78119326 133.74283313 2.96946532 128.60095316 -5.88232422 123.51977539 C-15.49436406 118.00122982 -25.02113501 112.35524207 -34.51269531 106.63232422 C-41.4797594 102.4360155 -48.4774145 98.29739406 -55.50732422 94.20727539 C-56.48000244 93.64129639 -57.45268066 93.07531738 -58.45483398 92.4921875 C-60.48051727 91.31401254 -62.50631755 90.13603872 -64.53222656 88.95825195 C-73.50760036 83.73745163 -82.47451143 78.50256389 -91.41773987 73.22685242 C-94.36832682 71.48657959 -97.32165813 69.75146182 -100.28271484 68.02905273 C-103.55339609 66.12301898 -106.81270032 64.19885878 -110.06982422 62.26977539 C-111.05474854 61.70129883 -112.03967285 61.13282227 -113.05444336 60.54711914 C-113.94252686 60.01602539 -114.83061035 59.48493164 -115.74560547 58.93774414 C-116.91410034 58.25168091 -116.91410034 58.25168091 -118.10620117 57.55175781 C-118.65107178 57.06682861 -119.19594238 56.58189941 -119.75732422 56.08227539 C-119.75732422 54.76227539 -119.75732422 53.44227539 -119.75732422 52.08227539 C-117.5247145 50.43652308 -115.43044054 49.14832368 -113.00732422 47.83227539 C-112.26071533 47.41026855 -111.51410645 46.98826172 -110.74487305 46.5534668 C-109.04283758 45.59205821 -107.33724811 44.63692508 -105.62890625 43.68676758 C-101.38887329 41.31765547 -97.18048705 38.89406593 -92.96777344 36.47680664 C-89.37167239 34.41378883 -85.76988722 32.36081905 -82.16748047 30.30883789 C-76.67533928 27.1797589 -71.19044143 24.03830944 -65.71078491 20.88742065 C-62.76502994 19.19482687 -59.81581541 17.50892974 -56.85791016 15.83764648 C-51.44274105 12.77586987 -46.06945463 9.68016444 -40.77685547 6.41040039 C-27.65878867 -1.52169048 -14.99501714 -6.11527605 0 0 Z " fill="#60B4D4" transform="translate(326.75732421875,242.917724609375)"/>
<path d="M0 0 C3.95791257 1.27967282 7.4111412 2.64243059 10.9921875 4.765625 C12.4011731 5.59477417 12.4011731 5.59477417 13.83862305 6.44067383 C15.34162964 7.33629028 15.34162964 7.33629028 16.875 8.25 C19.04548115 9.53010353 21.21605661 10.81004716 23.38671875 12.08984375 C25.0426001 13.06993408 25.0426001 13.06993408 26.73193359 14.06982422 C31.70409283 17.0064663 36.69637667 19.90825311 41.6875 22.8125 C60.0958176 33.54777824 78.48807724 44.30956073 96.8125 55.1875 C107.10242821 61.29572749 117.42437814 67.34634805 127.765625 73.3671875 C134.72582935 77.42021968 141.67651558 81.48941843 148.625 85.5625 C149.55212799 86.10594559 149.55212799 86.10594559 150.49798584 86.66036987 C159.20784243 91.76675243 167.90662334 96.89157403 176.59399414 102.03613281 C181.83696197 105.13857203 187.08861131 108.22570534 192.34765625 111.30078125 C192.9857724 111.67407562 193.62388855 112.04737 194.28134155 112.43197632 C197.408485 114.26119949 200.53646695 116.08895744 203.66601562 117.9140625 C211.51466613 122.49905521 219.27910968 127.20377428 227 132 C225.52543135 135.83740667 223.63984642 137.12277007 220.1015625 139.109375 C218.56810181 139.98154663 218.56810181 139.98154663 217.00366211 140.87133789 C215.33122437 141.80127563 215.33122437 141.80127563 213.625 142.75 C212.45456213 143.41097128 211.28473211 144.07301997 210.11547852 144.73608398 C207.65841782 146.12779241 205.19828441 147.5138374 202.73583984 148.89599609 C199.12100581 150.9277477 195.52123553 152.9849691 191.92578125 155.05078125 C177.56608759 163.29814204 163.16689332 171.47530978 148.68652344 179.50927734 C146.97745113 180.45762299 145.26962461 181.40821983 143.56347656 182.36181641 C141.48484546 183.52148805 139.40028357 184.66941127 137.3125 185.8125 C136.21550781 186.41707031 135.11851562 187.02164063 133.98828125 187.64453125 C126.41102302 191.08153596 117.53801866 191.15804966 109.78125 188.3203125 C104.25942836 186.22375236 99.25972742 183.56868635 94.1875 180.5625 C92.83591797 179.77588989 92.83591797 179.77588989 91.45703125 178.97338867 C88.63211034 177.32543663 85.81530104 175.66432384 83 174 C81.25655845 172.97387671 79.51306972 171.94783359 77.76953125 170.921875 C74.18130027 168.80680233 70.5975639 166.68430186 67.015625 164.55859375 C61.99568953 161.58297207 56.96098854 158.6333356 51.92205811 155.69006348 C46.37737992 152.45107706 40.83872378 149.20195899 35.3046875 145.94482422 C33.23800037 144.72856907 31.17043462 143.51380425 29.1015625 142.30126953 C4.22738477 127.68215432 4.22738477 127.68215432 -1 112 C-1.09700706 108.95418591 -1.13637242 105.93139813 -1.12939453 102.88549805 C-1.13114685 101.95169815 -1.13289917 101.01789825 -1.13470459 100.05580139 C-1.13911717 96.9577551 -1.13618456 93.85976566 -1.1328125 90.76171875 C-1.13348633 88.60236093 -1.13445703 86.44300319 -1.13571167 84.28364563 C-1.13718835 79.74662558 -1.13503734 75.20962519 -1.13037109 70.67260742 C-1.12471128 64.89080304 -1.12792903 59.10904546 -1.13394356 53.32724285 C-1.13758209 48.85992591 -1.13639491 44.39261979 -1.13381577 39.92530251 C-1.13315362 37.7961101 -1.13394972 35.66691667 -1.13629532 33.53772545 C-1.14593771 22.310858 -1.05758055 11.18675987 0 0 Z " fill="#6CCCD8" transform="translate(61,396)"/>
<path d="M0 0 C0 86.79 0 173.58 0 263 C-5.08210823 261.54796908 -8.02867093 260.65629094 -12.30078125 258.09375 C-13.26798096 257.52027832 -14.23518066 256.94680664 -15.23168945 256.35595703 C-16.24835693 255.74349121 -17.26502441 255.13102539 -18.3125 254.5 C-20.47825943 253.21461598 -22.64493253 251.93077022 -24.8125 250.6484375 C-25.87210937 250.0203418 -26.93171875 249.39224609 -28.0234375 248.74511719 C-31.91391099 246.4641867 -35.85377096 244.28447621 -39.8125 242.125 C-49.79055358 236.64843676 -59.55676826 230.81331479 -69.32421875 224.97265625 C-73.492179 222.48120734 -77.6769582 220.02753626 -81.89453125 217.62109375 C-92.94375337 211.27248469 -102.65492214 205.68526639 -107 193 C-107.5058136 189.41394043 -107.5058136 189.41394043 -107.67700195 185.51367188 C-107.71001813 184.78683952 -107.74303431 184.06000717 -107.77705097 183.3111496 C-108.18913456 173.14096178 -108.16441884 162.95790643 -108.16796875 152.78125 C-108.17119073 150.5850828 -108.17455547 148.3889158 -108.17805481 146.19274902 C-108.18399598 141.62426251 -108.18589954 137.05579479 -108.18530273 132.48730469 C-108.18520053 126.64932639 -108.19893551 120.81146811 -108.21607494 114.97351837 C-108.2272084 110.45238697 -108.22922165 105.93128469 -108.22869301 101.41014099 C-108.22986789 99.25727418 -108.23426186 97.10440648 -108.24202538 94.95155334 C-108.2518678 91.94482984 -108.24893217 88.93836873 -108.24291992 85.93164062 C-108.24853943 85.05563202 -108.25415894 84.17962341 -108.25994873 83.27706909 C-108.20932002 73.26814436 -106.22796948 64.99671281 -100 57 C-93.87991281 51.95161418 -86.84248464 47.98183526 -80 44 C-79.06357666 43.45093994 -78.12715332 42.90187988 -77.16235352 42.33618164 C-65.47623931 35.49775455 -53.74225142 28.74143376 -42 22 C-41.04109863 21.44892578 -40.08219727 20.89785156 -39.09423828 20.33007812 C-33.8968327 17.34447056 -28.69379342 14.36911651 -23.48144531 11.40966797 C-21.78699017 10.44707608 -20.09367949 9.48246749 -18.40136719 8.51611328 C-15.89629313 7.08740143 -13.38642884 5.66750449 -10.875 4.25 C-10.1221875 3.81905029 -9.369375 3.38810059 -8.59375 2.9440918 C-3.34354445 0 -3.34354445 0 0 0 Z " fill="#57A8CE" transform="translate(168,165)"/>
<path d="M0 0 C4.52661148 1.50887049 7.76966623 2.83959326 11.796875 5.16796875 C12.90708008 5.80621582 14.01728516 6.44446289 15.16113281 7.10205078 C16.35748865 7.79708559 17.55377593 8.49223842 18.75 9.1875 C20.0006971 9.90917594 21.25167838 10.6303596 22.50292969 11.35107422 C25.07790026 12.83541101 27.65103462 14.32285718 30.22265625 15.81298828 C33.73820603 17.84971635 37.25898408 19.87724828 40.78125 21.90234375 C46.13361176 24.9808342 51.48053974 28.06857387 56.82421875 31.16210938 C58.96152895 32.39901522 61.09956372 33.63466977 63.23828125 34.86914062 C69.31914865 38.3801614 75.38692495 41.91157795 81.43115234 45.48535156 C83.04471573 46.43674362 84.66174631 47.38230458 86.28369141 48.31933594 C94.40021306 53.0188763 100.44609439 57.59998056 105 66 C105.51446686 66.81726563 106.02893372 67.63453125 106.55899048 68.4765625 C108.54304471 73.32780809 108.41931003 77.63941467 108.38818359 82.83203125 C108.39344055 83.91257278 108.39869751 84.99311432 108.40411377 86.10639954 C108.41730507 89.67524728 108.40857343 93.24364776 108.3984375 96.8125 C108.40045965 99.30387456 108.40337227 101.79524855 108.40713501 104.28662109 C108.41212432 110.18072943 108.40163612 116.07467672 108.3856827 121.96876144 C108.37128856 127.96624174 108.38562478 133.96344291 108.40183067 139.96092224 C108.41272932 145.11023647 108.40919315 150.25946602 108.4014473 155.40878296 C108.39945836 157.86453292 108.40185816 160.32029079 108.40888596 162.77603149 C108.48389467 196.3784971 108.48389467 196.3784971 100.69140625 205.38916016 C97.85925802 208.08640526 94.84274364 210.17213353 91.5 212.1875 C90.76789307 212.64471436 90.03578613 213.10192871 89.28149414 213.57299805 C86.86656463 215.06982603 84.43633447 216.53829417 82 218 C80.73712158 218.76038574 80.73712158 218.76038574 79.44873047 219.53613281 C73.96212377 222.82830221 68.44784845 226.07151195 62.92089844 229.29541016 C59.96777202 231.01880774 57.01873244 232.74903355 54.0703125 234.48046875 C41.28483162 241.97734359 28.44775856 249.38265655 15.49658203 256.59033203 C13.81203651 257.54149239 12.14113978 258.51718285 10.48388672 259.51513672 C9.29883545 260.21727295 9.29883545 260.21727295 8.08984375 260.93359375 C7.39624756 261.35568115 6.70265137 261.77776855 5.98803711 262.21264648 C4 263 4 263 0 262 C0 175.54 0 89.08 0 0 Z " fill="#4793C3" transform="translate(461,320)"/>
<path d="M0 0 C11.09630834 10.23005378 13.80272266 24.64351061 14.6640625 39.125 C14.83921923 45.13019079 14.84174867 51.1389642 14.86329269 57.14627266 C14.87523669 60.18920645 14.89472766 63.2320079 14.91641235 66.27488708 C14.97750375 74.91994713 15.03187146 83.56499051 15.06542969 92.21020508 C15.08658339 97.52040891 15.12204383 102.83036449 15.16618729 108.14042473 C15.18017964 110.14347315 15.18903099 112.1465654 15.19224167 114.14966011 C15.22021815 129.93506209 15.90104085 145.7854275 21.8515625 160.625 C24.6640625 167.9787234 24.6640625 167.9787234 24.6640625 170.125 C8.8240625 170.125 -7.0159375 170.125 -23.3359375 170.125 C-28.3359375 155.125 -28.3359375 155.125 -28.3359375 152.125 C-28.85389893 152.49262451 -29.37186035 152.86024902 -29.90551758 153.23901367 C-52.19876409 168.98604664 -72.57399552 177.23877137 -100.328125 173.69921875 C-115.5129619 170.89295071 -128.05471184 163.49601239 -137.0859375 151 C-146.22335163 137.48665126 -147.36104644 122.04797864 -144.67578125 106.23828125 C-142.65583092 98.84928547 -139.2354505 92.97123164 -134.3359375 87.125 C-133.68882812 86.34253906 -133.04171875 85.56007813 -132.375 84.75390625 C-119.30577652 70.34860974 -98.7610493 66.97919491 -80.6171875 62.92578125 C-79.74770477 62.7315155 -78.87822205 62.53724976 -77.98239136 62.33709717 C-73.59609508 61.36089211 -69.20724537 60.39919981 -64.81298828 59.45947266 C-57.04745139 57.7829541 -49.32748635 56.01000206 -41.734375 53.66015625 C-40.54247559 53.29414307 -39.35057617 52.92812988 -38.12255859 52.55102539 C-35.17448193 51.36138102 -35.17448193 51.36138102 -33.91821289 48.66162109 C-32.6070898 42.94985214 -34.72434057 36.13823229 -37.4453125 31.05078125 C-41.58643963 25.71302973 -46.89077752 23.94870879 -53.3359375 23.125 C-56.94076549 22.91126922 -60.53792813 22.84892074 -64.1484375 22.8125 C-65.09525391 22.78349609 -66.04207031 22.75449219 -67.01757812 22.72460938 C-75.01174723 22.65308549 -80.5001938 24.64211196 -87.16015625 28.953125 C-89.87711988 31.66521078 -91.40709072 34.46059456 -93.1484375 37.875 C-93.75300781 39.04546875 -94.35757813 40.2159375 -94.98046875 41.421875 C-95.42777344 42.31390625 -95.87507812 43.2059375 -96.3359375 44.125 C-104.55287424 43.47799711 -112.56702197 42.08351372 -120.65234375 40.54101562 C-122.85836219 40.12072768 -125.06576482 39.70837583 -127.2734375 39.296875 C-138.05962246 37.26315752 -138.05962246 37.26315752 -140.3359375 36.125 C-139.81546354 30.55159137 -138.3669755 26.28661325 -135.8359375 21.3125 C-135.48136475 20.61253906 -135.12679199 19.91257812 -134.76147461 19.19140625 C-131.47259133 12.95726509 -127.43576902 7.99700399 -122.3359375 3.125 C-121.62695312 2.40828125 -120.91796875 1.6915625 -120.1875 0.953125 C-93.28069392 -24.88517975 -28.31759954 -22.72984578 0 0 Z M-41.27148438 84.94775391 C-42.03328003 85.12859528 -42.79507568 85.30943665 -43.57995605 85.49575806 C-44.39661743 85.69567352 -45.21327881 85.89558899 -46.0546875 86.1015625 C-47.33527039 86.41315811 -47.33527039 86.41315811 -48.64172363 86.73104858 C-50.45125699 87.17398966 -52.26012234 87.61966735 -54.06835938 88.06787109 C-56.7950571 88.73992415 -59.5260909 89.39168755 -62.2578125 90.04296875 C-80.21532904 94.06440112 -80.21532904 94.06440112 -94.27734375 105.15234375 C-97.26732688 110.72408353 -97.90382237 116.12496533 -96.3984375 122.25 C-93.66105671 129.88585169 -88.78534361 134.87850922 -81.53686523 138.32666016 C-77.84722077 139.66500041 -74.35157311 139.72127604 -70.4609375 139.625 C-69.27576538 139.60578491 -69.27576538 139.60578491 -68.06665039 139.58618164 C-56.68342407 139.19188138 -48.88426105 134.41204381 -40.76953125 126.62109375 C-34.81383867 120.09649919 -33.79076602 112.11506169 -33.0859375 103.6875 C-32.99570313 102.79740234 -32.90546875 101.90730469 -32.8125 100.99023438 C-32.28669717 95.18520148 -32.51405838 89.89576554 -33.3359375 84.125 C-36.39019025 84.125 -38.4035814 84.2602019 -41.27148438 84.94775391 Z " fill="#1B3754" transform="translate(1099.3359375,261.875)"/>
<path d="M0 0 C1.44342678 1.1802888 2.88119866 2.36753599 4.3125 3.5625 C5.27736328 4.30886719 5.27736328 4.30886719 6.26171875 5.0703125 C23.11331668 18.67464511 33.64555722 40.30426045 36.3125 61.5625 C37.93335656 93.26868994 33.36901689 119.57158489 12.375 144.375 C-2.7566434 160.66604241 -24.62385508 171.32895259 -46.82666016 172.765625 C-50.03346032 172.86479927 -53.22924216 172.89180219 -56.4375 172.875 C-58.14365479 172.86654053 -58.14365479 172.86654053 -59.88427734 172.85791016 C-82.89263737 172.5276779 -103.86564894 165.25586044 -121.6875 150.5625 C-122.6775 149.840625 -123.6675 149.11875 -124.6875 148.375 C-141.07687774 134.33989752 -148.26836332 111.14676123 -150.6875 90.5625 C-150.96449992 86.09946944 -151.0221949 81.65832425 -151 77.1875 C-150.99508545 76.00647705 -150.9901709 74.8254541 -150.98510742 73.60864258 C-150.86833668 64.90113847 -150.17206021 56.9516628 -147.6875 48.5625 C-147.35878906 47.42554688 -147.03007813 46.28859375 -146.69140625 45.1171875 C-141.81257214 30.02487714 -134.00137684 17.56438314 -122.6875 6.5625 C-121.52541016 5.42167969 -121.52541016 5.42167969 -120.33984375 4.2578125 C-89.50506385 -24.56482127 -33.05885461 -25.10231672 0 0 Z M-88.7578125 36.66015625 C-99.37011653 49.31682187 -102.58252226 66.69885883 -101.44140625 82.8203125 C-100.0218912 98.34973757 -95.62824073 112.70842629 -84.0390625 123.73828125 C-73.05579159 132.25852629 -62.04664858 133.372535 -48.6875 132.5625 C-39.47177352 131.34348856 -31.73830178 126.10153401 -25.61328125 119.23828125 C-13.54082183 102.97581423 -11.09752377 83.20153407 -13.96875 63.609375 C-16.35712374 49.29255042 -22.85442778 37.20738696 -34.6875 28.5625 C-53.07714395 17.13294393 -74.06407522 21.77235075 -88.7578125 36.66015625 Z " fill="#1B3654" transform="translate(1903.6875,263.4375)"/>
<path d="M0 0 C12.91500244 11.95905815 21.72144475 25.43557418 26.5859375 42.39453125 C26.90433594 43.44769531 27.22273438 44.50085938 27.55078125 45.5859375 C34.05190348 71.44063098 30.341863 100.67414217 17.25 123.76953125 C14.38776925 128.28459947 11.04581705 132.32968258 7.5859375 136.39453125 C7.04324219 137.08289063 6.50054688 137.77125 5.94140625 138.48046875 C-7.69420678 155.26786582 -29.44488029 164.54665525 -50.4140625 167.39453125 C-54.64770519 167.68068851 -58.85920042 167.72876757 -63.1015625 167.70703125 C-64.24133545 167.7021167 -65.3811084 167.69720215 -66.55541992 167.69213867 C-90.8121134 167.35688775 -115.7890005 158.55037363 -133.4140625 141.39453125 C-150.87312147 123.42291275 -157.84909543 97.57584751 -157.7265625 73.14453125 C-157.72092285 71.96012451 -157.7152832 70.77571777 -157.70947266 69.55541992 C-157.35244745 43.70290675 -148.46361695 20.00418236 -129.87060547 1.78857422 C-95.18829523 -31.40552425 -35.86759283 -30.87137388 0 0 Z M-96.2265625 32.08203125 C-105.98867441 44.02653837 -107.76820051 57.91309044 -107.7265625 72.76953125 C-107.74267578 73.91164063 -107.75878906 75.05375 -107.77539062 76.23046875 C-107.78397236 91.3343266 -103.65279277 105.05429397 -93.2265625 116.33203125 C-83.3903493 125.50911677 -72.77522277 127.90569315 -59.81640625 127.6640625 C-49.12863979 127.19817962 -40.91143755 122.90492258 -33.4140625 115.39453125 C-22.62089877 103.06249847 -20.22735669 89.1318444 -20.1640625 73.33203125 C-20.1434375 72.07197266 -20.1228125 70.81191406 -20.1015625 69.51367188 C-20.03537521 53.50462164 -23.88822696 40.38454322 -35.02734375 28.65625 C-44.73148804 19.4603424 -54.57073371 16.77562909 -67.8046875 17.12109375 C-79.51939203 18.00857137 -88.14825633 23.68343982 -96.2265625 32.08203125 Z " fill="#1A3653" transform="translate(2513.4140625,268.60546875)"/>
<path d="M0 0 C14.49881286 13.22138442 20.61177081 30.35300978 25 49 C25.26683594 50.09183594 25.53367187 51.18367188 25.80859375 52.30859375 C28.10530545 63.98222493 27 76.31902226 27 88 C-12.6 88 -52.2 88 -93 88 C-88.96672997 109.00130776 -88.96672997 109.00130776 -76 125 C-65.64238451 131.04720538 -55.17436622 132.59436703 -43.34765625 130.5390625 C-33.09908494 127.0890484 -29.05772507 119.13729104 -24.50390625 110.0703125 C-24.00761719 109.05710937 -23.51132813 108.04390625 -23 107 C-7.56571163 108.65191265 7.70635604 111.38634014 23 114 C24.34136154 119.1805076 22.92618933 122.16528307 20.5 126.75 C20.13124756 127.4622876 19.76249512 128.1745752 19.38256836 128.90844727 C16.45319389 134.43052266 13.21941719 139.36673805 9 144 C7.98486328 145.13501953 7.98486328 145.13501953 6.94921875 146.29296875 C-6.23779552 160.27635688 -24.74879258 168.20103035 -43.89013672 169.14208984 C-58.70532063 169.57582312 -72.79355282 169.51688388 -87 165 C-88.1859375 164.62617188 -89.371875 164.25234375 -90.59375 163.8671875 C-110.49925308 156.8444516 -123.88729937 143.07427473 -133.19580078 124.48657227 C-146.23332433 96.75167038 -145.88071549 59.48091527 -135.625 30.9375 C-134.78208287 28.944458 -133.90851958 26.96400557 -133 25 C-132.58234375 24.08347656 -132.1646875 23.16695313 -131.734375 22.22265625 C-122.5269044 3.7812568 -106.14864291 -9.88532376 -87 -17 C-82.69760133 -18.27653587 -78.42141574 -19.24186973 -74 -20 C-73.29746094 -20.13019531 -72.59492188 -20.26039063 -71.87109375 -20.39453125 C-46.10383199 -24.42907119 -19.69699764 -16.81059907 0 0 Z M-83 29 C-88.51903415 36.55174052 -90.86438105 43.42163741 -91.54296875 52.73046875 C-91.62957764 53.90375732 -91.71618652 55.0770459 -91.80541992 56.28588867 C-91.86963135 57.18154541 -91.93384277 58.07720215 -92 59 C-56.48407232 59.26655413 -56.48407232 59.26655413 -21 58 C-21.13731391 56.27306449 -21.28037932 54.54658584 -21.42578125 52.8203125 C-21.50481689 51.85883301 -21.58385254 50.89735352 -21.6652832 49.90673828 C-22.94764117 38.77052094 -28.04322103 29.58833168 -36.75390625 22.5078125 C-52.20520116 12.13529105 -70.93785893 15.55405689 -83 29 Z " fill="#1A3653" transform="translate(2923,267)"/>
<path d="M0 0 C20.3527229 17.31151143 27.06407065 42.2000652 30.25 67.6875 C30.25 75.2775 30.25 82.8675 30.25 90.6875 C-9.35 90.6875 -48.95 90.6875 -89.75 90.6875 C-86.28431365 111.70175467 -86.28431365 111.70175467 -73.25 127.51171875 C-70.78797032 129.02484116 -68.34429275 130.41537896 -65.75 131.6875 C-65.01652344 132.06261719 -64.28304688 132.43773437 -63.52734375 132.82421875 C-59.49329182 134.07812237 -55.63872418 134.05596113 -51.4375 134.0625 C-50.62087891 134.08699219 -49.80425781 134.11148438 -48.96289062 134.13671875 C-41.74760804 134.17121412 -36.70699839 132.0812606 -31.125 127.5625 C-26.64270669 122.13656599 -23.30826924 116.22794865 -20.75 109.6875 C-11.75082036 110.26305057 -2.94747424 111.72438795 5.92358398 113.27148438 C8.33807518 113.69195377 10.75387199 114.10421652 13.16992188 114.515625 C14.70841592 114.78077127 16.24683052 115.04637898 17.78515625 115.3125 C18.50590836 115.43544434 19.22666046 115.55838867 19.96925354 115.68505859 C25.0191817 116.57209085 25.0191817 116.57209085 27.25 117.6875 C26.74252976 123.37841631 24.50571156 127.55358475 21.75 132.4375 C21.30076172 133.23591309 20.85152344 134.03432617 20.38867188 134.85693359 C16.70905617 141.21863205 12.65894329 146.67091529 7.25 151.6875 C6.11498047 152.74130859 6.11498047 152.74130859 4.95703125 153.81640625 C-15.19140834 171.13814796 -40.32131514 172.77479549 -65.75 171.6875 C-70.90193358 171.23674363 -75.79152433 170.15250418 -80.75 168.6875 C-82.49023438 168.19443359 -82.49023438 168.19443359 -84.265625 167.69140625 C-104.40067506 161.28278349 -119.5921838 147.60486658 -129.4375 129.0625 C-142.59635292 101.57311547 -143.53451837 67.73488555 -134.5 38.8125 C-130.29149821 27.24226076 -125.07117816 16.88459165 -116.75 7.6875 C-116.08484375 6.92953125 -115.4196875 6.1715625 -114.734375 5.390625 C-85.30326647 -26.22056564 -32.79280034 -25.54054642 0 0 Z M-70.75 23.6875 C-71.44480469 24.11160156 -72.13960937 24.53570312 -72.85546875 24.97265625 C-82.34766894 31.3660894 -86.37381141 40.75703248 -88.75 51.6875 C-89.08 54.9875 -89.41 58.2875 -89.75 61.6875 C-65.99 61.6875 -42.23 61.6875 -17.75 61.6875 C-18.98057041 46.92065509 -21.17124747 36.68022592 -32 26.4375 C-42.69084664 17.94975625 -59.04367784 16.15698013 -70.75 23.6875 Z " fill="#1A3653" transform="translate(1383.75,264.3125)"/>
<path d="M0 0 C1.55833786 1.50374641 3.10195449 3.02301875 4.625 4.5625 C5.17671875 5.08070313 5.7284375 5.59890625 6.296875 6.1328125 C10.13463955 10.07374276 12.58849798 14.85490468 15.125 19.6875 C15.50027832 20.38109619 15.87555664 21.07469238 16.26220703 21.78930664 C17.78843406 24.83115681 18.68209724 27.00446964 18.33203125 30.42578125 C15.77061648 33.63194573 12.66801772 33.94976294 8.8125 34.625 C8.02657471 34.77928467 7.24064941 34.93356934 6.4309082 35.0925293 C4.73306498 35.4231873 3.03331841 35.74418534 1.33203125 36.05664062 C-1.47418092 36.58103381 -4.26759281 37.15289704 -7.0625 37.734375 C-8.93725858 38.11577195 -10.81225443 38.49600473 -12.6875 38.875 C-13.57606689 39.05877197 -14.46463379 39.24254395 -15.38012695 39.43188477 C-23.77332438 41.06029547 -23.77332438 41.06029547 -27.375 39.5625 C-28.5625 37.890625 -28.5625 37.890625 -29.375 35.8125 C-32.39319158 29.09343065 -37.75837662 24.67338984 -44.375 21.5625 C-50.44562587 20.36489716 -56.39510989 20.30457867 -62.5625 20.25 C-63.63564453 20.22099609 -64.70878906 20.19199219 -65.81445312 20.16210938 C-74.63362109 20.09275113 -81.96496196 21.82827641 -89.5 26.5 C-91.76545196 28.99199715 -92.375 30.19002832 -92.375 33.5625 C-90.76206861 38.72388044 -88.15858244 40.70281044 -83.73754883 43.35791016 C-79.57225018 45.48166581 -75.19843792 46.58634097 -70.6875 47.75 C-69.63530273 48.03407715 -68.58310547 48.3181543 -67.49902344 48.61083984 C-64.48227092 49.42317448 -61.4626275 50.22354337 -58.44122314 51.01837158 C-52.1458831 52.6762145 -45.85580584 54.35372597 -39.56723022 56.03701782 C-37.18234945 56.67222511 -34.79511515 57.29788168 -32.4074707 57.92260742 C-12.34873366 63.22611259 9.13682136 69.88351012 20.3359375 88.6796875 C23.93212035 96.72206005 25.15551674 104.15803782 25.0625 112.9375 C25.05420166 113.94901123 25.04590332 114.96052246 25.03735352 116.00268555 C24.66774325 132.34051142 17.66683426 143.0937825 6.30615234 154.29711914 C-13.36571168 172.9747483 -39.72667491 174.32323528 -65.484375 173.84765625 C-89.00791776 173.08086319 -110.36343297 166.48756754 -127.375 149.5625 C-128.07367187 148.89863281 -128.77234375 148.23476563 -129.4921875 147.55078125 C-133.9456371 143.00202436 -136.94656184 138.06937173 -139.8125 132.4375 C-140.32611084 131.43384399 -140.32611084 131.43384399 -140.85009766 130.40991211 C-142.9408598 126.09045931 -143.93421913 122.34279962 -144.375 117.5625 C-134.92591049 115.50428248 -125.42842132 113.8702716 -115.875 112.375 C-114.19301514 112.10671387 -114.19301514 112.10671387 -112.47705078 111.83300781 C-107.04907554 110.99843527 -101.86768118 110.33363828 -96.375 110.5625 C-95.8903125 111.56410156 -95.405625 112.56570313 -94.90625 113.59765625 C-89.79915588 123.84917893 -84.94625264 131.06403498 -74.10668945 135.73999023 C-68.65528715 137.38140362 -63.08187042 137.09282519 -57.4375 137 C-56.22642578 137.00708984 -55.01535156 137.01417969 -53.76757812 137.02148438 C-44.2993645 136.95484291 -34.88061507 136.19581794 -27.72265625 129.359375 C-24.75525005 125.4028334 -24.19136665 121.12025025 -24.5390625 116.27734375 C-24.91753149 113.83374616 -24.91753149 113.83374616 -26.375 110.5625 C-30.77974803 108.2572914 -35.91506688 107.16858184 -40.6875 105.8125 C-41.61119385 105.54791992 -42.5348877 105.28333984 -43.48657227 105.01074219 C-49.26489155 103.37709646 -55.0622012 101.8944887 -60.90405273 100.50708008 C-70.78263309 98.14792948 -80.50616837 95.41812422 -90.15945435 92.26623535 C-92.06132707 91.64577252 -93.96701245 91.03703433 -95.87280273 90.42871094 C-111.06014561 85.3570234 -124.7947399 77.50282082 -133.12109375 63.41015625 C-136.49391713 55.75037979 -137.91033467 48.60166474 -137.8125 40.25 C-137.80492676 39.33573242 -137.79735352 38.42146484 -137.78955078 37.47949219 C-137.51003113 25.92737355 -134.46981151 16.70568229 -127.375 7.5625 C-126.6325 6.53125 -125.89 5.5 -125.125 4.4375 C-97.95147015 -23.9711903 -29.35494367 -25.72385525 0 0 Z " fill="#1B3654" transform="translate(2105.375,262.4375)"/>
<path d="M0 0 C7.14853866 6.74415053 12.15340515 14.70012616 16.625 23.375 C16.96732666 24.02791016 17.30965332 24.68082031 17.66235352 25.35351562 C19.95784343 29.99710408 20.77963862 34.02317064 21.1875 39.1875 C17.1509565 40.98141188 13.12046464 41.91242393 8.796875 42.6953125 C7.74080048 42.89083206 7.74080048 42.89083206 6.66339111 43.09030151 C5.17794087 43.36350453 3.69198506 43.6339713 2.20556641 43.90185547 C-0.04324334 44.30901349 -2.28912988 44.73013612 -4.53515625 45.15234375 C-11.67254746 46.46643753 -18.52433212 47.56674855 -25.8125 47.1875 C-26.23660156 46.10210937 -26.66070313 45.01671875 -27.09765625 43.8984375 C-31.26252175 32.83729448 -31.26252175 32.83729448 -39.8125 25.1875 C-40.49441406 24.78273438 -41.17632813 24.37796875 -41.87890625 23.9609375 C-50.28564153 19.77890675 -60.81206978 19.81288407 -69.84765625 21.8828125 C-79.26334944 25.34639052 -86.22750767 31.26241107 -90.8125 40.1875 C-98.84059783 59.88583589 -99.19610818 87.68075523 -91.5625 107.5625 C-86.78494774 118.00645146 -80.75593918 123.68667617 -70.55078125 128.83203125 C-66.29409752 130.3754683 -62.91363885 130.6510567 -58.4375 130.5625 C-57.68726562 130.55089844 -56.93703125 130.53929687 -56.1640625 130.52734375 C-46.64737795 130.24646938 -40.72377599 128.01910632 -33.74609375 121.34375 C-30.91407442 118.18561936 -29.32244131 115.12506246 -27.8125 111.1875 C-27.3690625 110.06730469 -26.925625 108.94710937 -26.46875 107.79296875 C-25.22353381 104.6003728 -24.00713408 101.3993031 -22.8125 98.1875 C-17.12189286 98.05640958 -11.86197319 98.49108116 -6.26171875 99.46484375 C-5.09078423 99.66105064 -5.09078423 99.66105064 -3.89619446 99.86122131 C-2.26125164 100.13643626 -0.62682756 100.41474947 1.00708008 100.69604492 C3.50944593 101.12662536 6.01329936 101.54749969 8.51757812 101.96679688 C10.11207396 102.23641917 11.70647847 102.50658224 13.30078125 102.77734375 C14.42109489 102.96646584 14.42109489 102.96646584 15.56404114 103.15940857 C18.53276052 103.67242466 21.32419534 104.23306511 24.1875 105.1875 C22.52796364 125.71833556 10.39493421 143.08798393 -4.8125 156.1875 C-24.91442467 171.60475912 -52.94361665 173.88078124 -77.37109375 170.6875 C-100.3280783 166.48309908 -119.25590681 154.57512805 -132.71875 135.484375 C-136.21573704 129.87079055 -138.81266391 124.07105 -141.0625 117.875 C-141.29670654 117.2368335 -141.53091309 116.59866699 -141.7722168 115.94116211 C-145.845951 104.0237733 -147.29859492 92.22394012 -147.14868164 79.72583008 C-147.12496809 77.62216931 -147.12817076 75.51977786 -147.13476562 73.41601562 C-147.08931399 50.32725992 -142.09341726 28.06942445 -126.8125 10.1875 C-125.90371094 9.06214844 -125.90371094 9.06214844 -124.9765625 7.9140625 C-111.23108073 -8.52441161 -91.58231242 -16.08194204 -70.7265625 -18.5 C-44.92520841 -20.55998835 -20.40101089 -16.98923774 0 0 Z " fill="#1B3654" transform="translate(2308.8125,264.8125)"/>
<path d="M0 0 C15.84 0 31.68 0 48 0 C48 82.83 48 165.66 48 251 C32.16 251 16.32 251 0 251 C0 168.17 0 85.34 0 0 Z " fill="#173351" transform="translate(1161,181)"/>
<path d="M0 0 C15.84 0 31.68 0 48 0 C48 59.73 48 119.46 48 181 C32.16 181 16.32 181 0 181 C0 121.27 0 61.54 0 0 Z " fill="#173351" transform="translate(1453,251)"/>
<path d="M0 0 C0.94488281 -0.00257813 1.88976562 -0.00515625 2.86328125 -0.0078125 C5.6875 0.125 5.6875 0.125 8.1484375 0.62890625 C11.1479636 1.2149675 13.94631137 1.22105702 17 1.1875 C19.84375 1.15625 19.84375 1.15625 22.6875 1.125 C26.93891878 10.88266684 30.49781511 20.83067873 34 30.875 C34.55501728 32.45844598 35.11035377 34.0417801 35.66601562 35.625 C37.0101851 39.45705692 38.35005651 43.29059071 39.6875 47.125 C40.03006836 46.12235107 40.37263672 45.11970215 40.72558594 44.08666992 C42.01422048 40.31595536 43.30427441 36.54572763 44.59472656 32.77563477 C45.1497928 31.15336847 45.7044897 29.53097575 46.25878906 27.90844727 C49.31979387 18.94920667 52.41091082 10.00837407 55.6875 1.125 C59.6475 1.125 63.6075 1.125 67.6875 1.125 C67.11768329 6.35318463 65.853429 10.93839667 63.94921875 15.84765625 C63.67224655 16.57829285 63.39527435 17.30892944 63.10990906 18.06170654 C62.20576737 20.43990947 61.29084388 22.81378157 60.375 25.1875 C59.743337 26.8386652 59.11199274 28.48995238 58.48095703 30.14135742 C54.41037404 40.7669359 50.26957088 51.3652434 46.0625 61.9375 C45.57869873 63.15638916 45.09489746 64.37527832 44.59643555 65.63110352 C36.79061497 85.07344251 36.79061497 85.07344251 28.6875 89.125 C26.64694995 89.19565617 24.60415743 89.20921976 22.5625 89.1875 C21.46679688 89.17847656 20.37109375 89.16945313 19.2421875 89.16015625 C17.97761719 89.14275391 17.97761719 89.14275391 16.6875 89.125 C14.7085244 85.48883344 14.1623935 82.24074371 13.6875 78.125 C14.50734375 78.02703125 15.3271875 77.9290625 16.171875 77.828125 C17.24953125 77.67859375 18.3271875 77.5290625 19.4375 77.375 C21.03851562 77.16617188 21.03851562 77.16617188 22.671875 76.953125 C26.3151474 75.95264087 27.4745885 75.18459068 29.6875 72.125 C31.66841106 68.32847274 32.9675713 64.87144953 32.27737427 60.56756592 C31.37715792 57.73649776 30.32477543 55.02408434 29.18359375 52.28125 C28.78930679 51.27211548 28.39501984 50.26298096 27.98878479 49.2232666 C26.72696605 46.01276945 25.42667471 42.81951563 24.125 39.625 C23.27545566 37.47886796 22.42842442 35.33173931 21.58398438 33.18359375 C18.11985245 24.41945648 14.57652669 15.7102519 10.6875 7.125 C9.6975 9.105 8.7075 11.085 7.6875 13.125 C6.58341797 13.07279297 6.58341797 13.07279297 5.45703125 13.01953125 C-0.57362585 12.83744306 -0.57362585 12.83744306 -6.375 14.25 C-10.43459817 18.17864339 -10.57389873 23.4628416 -10.69140625 28.8515625 C-10.72556641 30.13160156 -10.75972656 31.41164063 -10.79492188 32.73046875 C-10.8221622 34.07030148 -10.84885254 35.4101455 -10.875 36.75 C-11.08807851 45.91690966 -11.4559854 54.99356341 -12.3125 64.125 C-15.9425 64.125 -19.5725 64.125 -23.3125 64.125 C-23.3125 43.335 -23.3125 22.545 -23.3125 1.125 C-20.3425 1.125 -17.3725 1.125 -14.3125 1.125 C-13.6525 2.775 -12.9925 4.425 -12.3125 6.125 C-11.52875 5.320625 -10.745 4.51625 -9.9375 3.6875 C-6.37277114 0.20764564 -4.85064757 -0.0131276 0 0 Z " fill="#27415D" transform="translate(1017.3125,537.875)"/>
<path d="M0 0 C1.29550781 -0.02578125 2.59101562 -0.0515625 3.92578125 -0.078125 C9.52107036 0.4099376 13.38433316 2.77436525 17.6875 6.25 C18.0175 4.6 18.3475 2.95 18.6875 1.25 C22.3175 1.25 25.9475 1.25 29.6875 1.25 C29.57953286 9.439205 29.46680962 17.62832533 29.34816074 25.81738186 C29.29320249 29.6206591 29.23982881 33.4239443 29.19018555 37.22729492 C29.14213855 40.90374355 29.08978668 44.58010885 29.03455925 48.25645638 C29.01431673 49.65291303 28.99557617 51.04939237 28.97842598 52.44589043 C28.69615764 75.17920021 28.69615764 75.17920021 22.11328125 81.84375 C15.19350723 88.18817202 7.96020777 90.23751991 -1.3125 90.25 C-8.3585721 89.7227429 -15.12166629 88.32365913 -20.3125 83.25 C-25.66109405 75.37390805 -25.66109405 75.37390805 -24.93359375 70.94140625 C-24.62615234 70.10416016 -24.62615234 70.10416016 -24.3125 69.25 C-22.87594146 69.16868537 -21.4380517 69.11066441 -20 69.0625 C-18.79923828 69.01029297 -18.79923828 69.01029297 -17.57421875 68.95703125 C-14.76958595 69.32032565 -14.08251985 70.10467509 -12.3125 72.25 C-7.897351 76.88590645 -5.38903773 78.39459998 1 78.5625 C6.04621085 78.49583935 8.95483876 77.88934471 12.6875 74.25 C15.45016508 69.29625573 16.20053936 64.80135135 16.6875 59.25 C15.81351563 59.79140625 15.81351563 59.79140625 14.921875 60.34375 C7.20432814 64.71217275 0.6529769 65.56033597 -8.015625 63.65625 C-14.7666395 61.41971759 -19.55372361 57.26577839 -23.3125 51.25 C-26.08796835 45.01044248 -26.83111782 39.15291738 -26.75 32.375 C-26.74387695 31.50093506 -26.73775391 30.62687012 -26.73144531 29.72631836 C-26.5358207 21.62520238 -24.78181094 15.30672512 -20.5625 8.375 C-14.34282473 2.50086224 -8.54143625 0.10138203 0 0 Z M-11.6875 17.3125 C-15.67855622 24.52710162 -15.63444778 34.98487083 -13.62890625 42.97265625 C-11.53582888 47.48015482 -8.54709265 50.61336684 -4.3125 53.25 C0.11350374 54.52932963 3.55032824 54.62176769 7.9375 53.1875 C13.23346716 49.45625041 15.70227597 46.41830319 17.0625 40.125 C18.33061329 31.17504659 18.24268532 22.65691375 12.6875 15.25 C8.39751875 11.36858839 5.72405804 9.87667147 -0.15234375 9.97265625 C-5.37178516 10.64278345 -8.53378195 13.24586357 -11.6875 17.3125 Z " fill="#27415D" transform="translate(1422.3125,537.75)"/>
<path d="M0 0 C3.63 0 7.26 0 11 0 C11.06058594 1.72605469 11.12117187 3.45210937 11.18359375 5.23046875 C11.26809229 7.54948416 11.35273547 9.8684943 11.4375 12.1875 C11.47681641 13.31865234 11.51613281 14.44980469 11.55664062 15.61523438 C11.61948242 17.31196289 11.61948242 17.31196289 11.68359375 19.04296875 C11.72025146 20.06414795 11.75690918 21.08532715 11.79467773 22.13745117 C12.0938836 27.76615034 12.55118416 33.3815065 13 39 C13.44862396 38.51140503 13.89724792 38.02281006 14.35946655 37.51940918 C19.07444836 32.40353679 23.85377312 27.35435502 28.67382812 22.33740234 C30.45936081 20.46181839 32.22835394 18.57033375 33.97949219 16.66259766 C50.14549321 -0.91034202 50.14549321 -0.91034202 59.84780884 -1.32824707 C63.33425044 -1.17187039 66.58518844 -0.72874227 70 0 C66.07287966 4.90890042 61.79053042 9.09446055 57.11523438 13.29345703 C49.80383805 19.91184064 42.9283126 26.98567894 36 34 C37.63995435 39.27728899 40.96703016 43.27492076 44.25 47.625 C45.51446181 49.32020891 46.77878045 51.01552462 48.04296875 52.7109375 C48.69442871 53.58073242 49.34588867 54.45052734 50.01708984 55.34667969 C53.21988533 59.63232132 56.3905245 63.94152764 59.5625 68.25 C60.13323242 69.0229541 60.70396484 69.7959082 61.29199219 70.59228516 C62.36365164 72.04495793 63.43326862 73.4991405 64.50048828 74.95507812 C65.4990518 76.31684434 66.50263513 77.67494398 67.51123047 79.02929688 C71 83.77568884 71 83.77568884 71 86 C57.29264708 87.49716233 57.29264708 87.49716233 52.61328125 84.44140625 C50.92268593 82.32541167 49.47462216 80.17007826 48.10791016 77.83300781 C46.28367946 74.81486676 44.23675752 71.951571 42.22680664 69.05517578 C40.51414911 66.58292449 38.82072617 64.09857144 37.1328125 61.609375 C33.28282737 55.94100509 33.28282737 55.94100509 29.375 50.3125 C28.78460937 49.46300781 28.19421875 48.61351562 27.5859375 47.73828125 C27.06257812 47.16464844 26.53921875 46.59101562 26 46 C21.50611535 46 19.16013572 48.11153518 15.8581543 51.02661133 C8.18619924 59.49538384 10.64315348 75.27460403 11 86 C7.37 86 3.74 86 0 86 C0 57.62 0 29.24 0 0 Z " fill="#213C58" transform="translate(714,516)"/>
<path d="M0 0 C5.44104315 4.46784844 10.82748565 9.69832488 11.75 16.9375 C11.770625 18.071875 11.79125 19.20625 11.8125 20.375 C7.97680194 22.18003438 5.04672213 22.87506218 0.8125 22.375 C-1.12890625 20.328125 -1.12890625 20.328125 -2.75 17.625 C-6.4181599 11.91718195 -9.70121261 8.59940403 -16.1875 6.375 C-25.57385551 5.24758858 -32.13292129 7.22992881 -40 12.125 C-46.94170234 19.2650367 -48.56514046 29.08215571 -48.5 38.6875 C-48.49581055 39.52692139 -48.49162109 40.36634277 -48.48730469 41.23120117 C-48.32870387 49.9348427 -46.93673348 57.5380737 -41.1875 64.375 C-33.79209935 70.85550572 -28.48950797 71.81278017 -18.671875 71.7109375 C-12.71190984 71.13632203 -9.40640162 68.84778052 -5.48046875 64.47265625 C-2.500478 60.69510107 -0.16629167 56.77231482 1.8125 52.375 C6.36055635 52.19664485 9.6919254 52.37714565 13.8125 54.375 C13.64527563 61.73287237 10.18463442 67.59398164 5.8125 73.375 C-3.04271612 81.51257198 -10.68128342 83.73486973 -22.4375 83.75 C-23.42363281 83.77449219 -24.40976563 83.79898438 -25.42578125 83.82421875 C-36.39450056 83.86757337 -44.09973207 80.42172994 -51.9921875 72.86328125 C-55.34963943 69.05777079 -57.46070631 65.12531171 -59.1875 60.375 C-59.44499023 59.66907715 -59.70248047 58.9631543 -59.96777344 58.23583984 C-62.16229404 51.69772669 -62.64478066 45.74086421 -62.5625 38.875 C-62.57410156 37.90691406 -62.58570313 36.93882812 -62.59765625 35.94140625 C-62.55118495 24.4010325 -59.20805656 14.0299808 -51.37109375 5.3671875 C-38.00498052 -7.10785152 -15.57501268 -10.68000869 0 0 Z " fill="#26405C" transform="translate(1994.1875,519.625)"/>
<path d="M0 0 C5.44104315 4.46784844 10.82748565 9.69832488 11.75 16.9375 C11.770625 18.071875 11.79125 19.20625 11.8125 20.375 C7.97680194 22.18003438 5.04672213 22.87506218 0.8125 22.375 C-1.12890625 20.328125 -1.12890625 20.328125 -2.75 17.625 C-6.4181599 11.91718195 -9.70121261 8.59940403 -16.1875 6.375 C-25.57385551 5.24758858 -32.13292129 7.22992881 -40 12.125 C-46.94170234 19.2650367 -48.56514046 29.08215571 -48.5 38.6875 C-48.49581055 39.52692139 -48.49162109 40.36634277 -48.48730469 41.23120117 C-48.32870387 49.9348427 -46.93673348 57.5380737 -41.1875 64.375 C-33.79209935 70.85550572 -28.48950797 71.81278017 -18.671875 71.7109375 C-12.71190984 71.13632203 -9.40640162 68.84778052 -5.48046875 64.47265625 C-2.500478 60.69510107 -0.16629167 56.77231482 1.8125 52.375 C6.36055635 52.19664485 9.6919254 52.37714565 13.8125 54.375 C13.64527563 61.73287237 10.18463442 67.59398164 5.8125 73.375 C-3.04271612 81.51257198 -10.68128342 83.73486973 -22.4375 83.75 C-23.42363281 83.77449219 -24.40976563 83.79898438 -25.42578125 83.82421875 C-36.39450056 83.86757337 -44.09973207 80.42172994 -51.9921875 72.86328125 C-55.34963943 69.05777079 -57.46070631 65.12531171 -59.1875 60.375 C-59.44499023 59.66907715 -59.70248047 58.9631543 -59.96777344 58.23583984 C-62.16229404 51.69772669 -62.64478066 45.74086421 -62.5625 38.875 C-62.57410156 37.90691406 -62.58570313 36.93882812 -62.59765625 35.94140625 C-62.55118495 24.4010325 -59.20805656 14.0299808 -51.37109375 5.3671875 C-38.00498052 -7.10785152 -15.57501268 -10.68000869 0 0 Z " fill="#26405C" transform="translate(1714.1875,519.625)"/>
<path d="M0 0 C5.44104315 4.46784844 10.82748565 9.69832488 11.75 16.9375 C11.770625 18.071875 11.79125 19.20625 11.8125 20.375 C7.97680194 22.18003438 5.04672213 22.87506218 0.8125 22.375 C-1.12890625 20.328125 -1.12890625 20.328125 -2.75 17.625 C-6.4181599 11.91718195 -9.70121261 8.59940403 -16.1875 6.375 C-25.57385551 5.24758858 -32.13292129 7.22992881 -40 12.125 C-46.94170234 19.2650367 -48.56514046 29.08215571 -48.5 38.6875 C-48.49581055 39.52692139 -48.49162109 40.36634277 -48.48730469 41.23120117 C-48.32870387 49.9348427 -46.93673348 57.5380737 -41.1875 64.375 C-33.79209935 70.85550572 -28.48950797 71.81278017 -18.671875 71.7109375 C-12.71190984 71.13632203 -9.40640162 68.84778052 -5.48046875 64.47265625 C-2.500478 60.69510107 -0.16629167 56.77231482 1.8125 52.375 C6.36055635 52.19664485 9.6919254 52.37714565 13.8125 54.375 C13.64527563 61.73287237 10.18463442 67.59398164 5.8125 73.375 C-3.04271612 81.51257198 -10.68128342 83.73486973 -22.4375 83.75 C-23.42363281 83.77449219 -24.40976563 83.79898438 -25.42578125 83.82421875 C-36.39450056 83.86757337 -44.09973207 80.42172994 -51.9921875 72.86328125 C-55.34963943 69.05777079 -57.46070631 65.12531171 -59.1875 60.375 C-59.44499023 59.66907715 -59.70248047 58.9631543 -59.96777344 58.23583984 C-62.16229404 51.69772669 -62.64478066 45.74086421 -62.5625 38.875 C-62.57410156 37.90691406 -62.58570313 36.93882812 -62.59765625 35.94140625 C-62.55118495 24.4010325 -59.20805656 14.0299808 -51.37109375 5.3671875 C-38.00498052 -7.10785152 -15.57501268 -10.68000869 0 0 Z " fill="#26405C" transform="translate(1187.1875,519.625)"/>
<path d="M0 0 C3.63 0 7.26 0 11 0 C11.33 8.91 11.66 17.82 12 27 C13.98 25.68 15.96 24.36 18 23 C25.24357776 20.58547408 33.73072013 20.90989154 40.625 24.1875 C47.82576071 28.41147564 51.29423409 34.99027655 53.53710938 42.89233398 C55.76196641 53.02270888 54.96439534 65.8800153 50 75 C44.64257951 82.18273631 37.92997757 86.62176917 29.0625 87.9375 C22.72138323 88.34786503 17.29693087 86.96079465 12.4375 82.8125 C11.963125 82.214375 11.48875 81.61625 11 81 C10.67 82.65 10.34 84.3 10 86 C6.7 86 3.4 86 0 86 C0 57.62 0 29.24 0 0 Z M14 39 C9.66617673 46.31332676 10.05966195 55.71779176 11 64 C12.43611353 69.41244938 15.31814004 72.91982897 20 76 C23.21639478 77.60819739 26.51144167 77.46861231 30 77 C34.94058854 74.43469441 38.82969743 71.32112892 40.72265625 65.94921875 C43.00001079 56.73422788 42.9278339 46.27172119 38 38 C34.612698 34.37136351 31.31014282 32.18070935 26.375 31.5 C20.72104282 31.58238918 17.49234888 34.8412949 14 39 Z " fill="#27415D" transform="translate(1834,516)"/>
<path d="M0 0 C15.84 0 31.68 0 48 0 C48 14.85 48 29.7 48 45 C32.16 45 16.32 45 0 45 C0 30.15 0 15.3 0 0 Z " fill="#193553" transform="translate(1453,181)"/>
<path d="M0 0 C4.85073176 4.85073176 8.00865322 10.47901755 9.25 17.25 C9.25 21.21 9.25 25.17 9.25 29.25 C-5.93 29.25 -21.11 29.25 -36.75 29.25 C-34.0348546 39.73050734 -34.0348546 39.73050734 -27.1875 47.125 C-22.28382828 48.72983802 -17.84925338 49.17511854 -12.75 48.25 C-9.11174312 46.21704995 -6.57799262 43.60975328 -4.41796875 40.0625 C-2.75 38.25 -2.75 38.25 -0.05078125 37.859375 C0.93535156 37.90578125 1.92148438 37.9521875 2.9375 38 C3.93136719 38.03609375 4.92523437 38.0721875 5.94921875 38.109375 C6.70847656 38.15578125 7.46773437 38.2021875 8.25 38.25 C9.25 41.25 9.25 41.25 7.875 44.9375 C4.72404914 50.85647367 -0.33949353 55.75151784 -6.48828125 58.453125 C-15.30319027 60.60670756 -26.94373434 60.98097808 -35 56.43359375 C-35.5775 56.04300781 -36.155 55.65242187 -36.75 55.25 C-38.35875 54.198125 -38.35875 54.198125 -40 53.125 C-47.88360138 44.8830531 -49.23111362 35.42594968 -49.0234375 24.50390625 C-48.61151206 15.45174276 -46.03770488 7.36667835 -39.6171875 0.8359375 C-27.93159692 -9.08948044 -12.32020024 -7.84012742 0 0 Z M-32.125 10.5625 C-34.23401405 13.78501235 -34.23401405 13.78501235 -35.75 20.25 C-25.19 20.25 -14.63 20.25 -3.75 20.25 C-4.74023436 13.31835949 -4.98248042 11.81023612 -9.75 7.25 C-18.40916754 2.61116025 -25.11690863 3.73883208 -32.125 10.5625 Z " fill="#28425E" transform="translate(1511.75,543.75)"/>
<path d="M0 0 C4.85073176 4.85073176 8.00865322 10.47901755 9.25 17.25 C9.25 21.21 9.25 25.17 9.25 29.25 C-5.93 29.25 -21.11 29.25 -36.75 29.25 C-34.0348546 39.73050734 -34.0348546 39.73050734 -27.1875 47.125 C-22.28382828 48.72983802 -17.84925338 49.17511854 -12.75 48.25 C-9.11174312 46.21704995 -6.57799262 43.60975328 -4.41796875 40.0625 C-2.75 38.25 -2.75 38.25 -0.05078125 37.859375 C0.93535156 37.90578125 1.92148438 37.9521875 2.9375 38 C3.93136719 38.03609375 4.92523437 38.0721875 5.94921875 38.109375 C6.70847656 38.15578125 7.46773437 38.2021875 8.25 38.25 C9.25 41.25 9.25 41.25 7.875 44.9375 C4.72404914 50.85647367 -0.33949353 55.75151784 -6.48828125 58.453125 C-15.30319027 60.60670756 -26.94373434 60.98097808 -35 56.43359375 C-35.5775 56.04300781 -36.155 55.65242187 -36.75 55.25 C-38.35875 54.198125 -38.35875 54.198125 -40 53.125 C-47.88360138 44.8830531 -49.23111362 35.42594968 -49.0234375 24.50390625 C-48.61151206 15.45174276 -46.03770488 7.36667835 -39.6171875 0.8359375 C-27.93159692 -9.08948044 -12.32020024 -7.84012742 0 0 Z M-31.75 9.25 C-34.21645074 12.82114277 -35.75 15.8804987 -35.75 20.25 C-24.86 20.25 -13.97 20.25 -2.75 20.25 C-5.64658194 10.84195225 -5.64658194 10.84195225 -12.64453125 5.1484375 C-19.5669142 2.19454496 -26.43425389 4.23423956 -31.75 9.25 Z " fill="#26405C" transform="translate(1378.75,543.75)"/>
<path d="M0 0 C3.63 0 7.26 0 11 0 C11.06058594 1.54171875 11.12117187 3.0834375 11.18359375 4.671875 C11.26801253 6.6979257 11.35265986 8.7239669 11.4375 10.75 C11.47681641 11.76578125 11.51613281 12.7815625 11.55664062 13.828125 C11.61948242 15.29765625 11.61948242 15.29765625 11.68359375 16.796875 C11.72025146 17.69760742 11.75690918 18.59833984 11.79467773 19.52636719 C11.98306407 21.79596339 12.37366501 23.81562887 13 26 C13.48726562 25.71125 13.97453125 25.4225 14.4765625 25.125 C22.13345279 21.11557381 30.38890682 20.5137756 38.7578125 22.73046875 C43.31666679 24.57356991 46.51802465 26.63172339 49 31 C51.01221462 37.45212137 51.26569618 43.33423253 51.1953125 50.0625 C51.1924826 51.09439453 51.18965271 52.12628906 51.18673706 53.18945312 C51.17561252 56.45975732 51.15052226 59.72977968 51.125 63 C51.11496022 65.22786061 51.10583612 67.45572554 51.09765625 69.68359375 C51.0756985 75.12250312 51.04122222 80.5612039 51 86 C47.37 86 43.74 86 40 86 C39.96036133 84.67347412 39.92072266 83.34694824 39.87988281 81.98022461 C39.72725151 77.03888534 39.54990199 72.09868443 39.36523438 67.15844727 C39.28886803 65.02391098 39.21912529 62.88912666 39.15625 60.75415039 C39.06447835 57.67764913 38.94858099 54.60283947 38.828125 51.52734375 C38.80502258 50.57915268 38.78192017 49.63096161 38.75811768 48.65403748 C38.4943617 42.67791918 37.57433764 38.86098479 34 34 C27.93629959 31.97876653 23.39965822 32.91695995 17.796875 35.5390625 C14.33912616 38.35036264 13.12386957 42.00773653 12.58349609 46.33642578 C12.56367676 47.5273584 12.54385742 48.71829102 12.5234375 49.9453125 C12.50006821 50.92200394 12.50006821 50.92200394 12.47622681 51.91842651 C12.42908748 53.98727128 12.40114346 56.05579336 12.375 58.125 C12.32603587 60.83606639 12.26929881 63.54693384 12.2109375 66.2578125 C12.18354492 67.55879883 12.15615234 68.85978516 12.12792969 70.20019531 C11.94977736 75.4917274 11.50151941 80.72993535 11 86 C7.37 86 3.74 86 0 86 C0 57.62 0 29.24 0 0 Z " fill="#213C59" transform="translate(793,516)"/>
<path d="M0 0 C7.30061986 7.75690861 8.57433079 15.2919647 8.5 25.6171875 C8.5299707 27.08285156 8.5299707 27.08285156 8.56054688 28.578125 C8.55517156 36.66259347 6.93353931 43.65338836 1.8125 50.0546875 C-8.00423394 57.86345313 -16.60341838 59.28730021 -28.9375 58.2421875 C-36.15747238 56.73081875 -41.50986462 53.12514593 -45.9375 47.2421875 C-51.62282977 37.40300055 -51.62061854 22.74209396 -49.18359375 11.8828125 C-48.26659066 9.50939274 -47.26036543 7.41150178 -45.9375 5.2421875 C-45.40125 4.3346875 -44.865 3.4271875 -44.3125 2.4921875 C-32.19954281 -8.98324563 -13.05666826 -11.84576758 0 0 Z M-33.125 8.3671875 C-37.82871156 15.82824722 -38.94861837 23.51703122 -37.9375 32.2421875 C-36.2579305 39.0743346 -33.76886295 43.31235595 -27.9375 47.2421875 C-24.22545513 49.09820994 -19.9887695 48.69094351 -15.9375 48.2421875 C-10.65343885 45.60015692 -7.0629771 42.04778328 -4.8515625 36.53515625 C-2.55343834 28.25601667 -2.64520679 18.65627756 -6.73046875 10.9765625 C-8.47565882 8.46891075 -10.35556702 6.85589561 -12.9375 5.2421875 C-13.8346875 4.6234375 -13.8346875 4.6234375 -14.75 3.9921875 C-21.77342388 1.58415645 -27.89084531 3.28258008 -33.125 8.3671875 Z " fill="#2A445F" transform="translate(2066.9375,544.7578125)"/>
<path d="M0 0 C7.30061986 7.75690861 8.57433079 15.2919647 8.5 25.6171875 C8.5299707 27.08285156 8.5299707 27.08285156 8.56054688 28.578125 C8.55517156 36.66259347 6.93353931 43.65338836 1.8125 50.0546875 C-8.00423394 57.86345313 -16.60341838 59.28730021 -28.9375 58.2421875 C-36.15747238 56.73081875 -41.50986462 53.12514593 -45.9375 47.2421875 C-51.62282977 37.40300055 -51.62061854 22.74209396 -49.18359375 11.8828125 C-48.26659066 9.50939274 -47.26036543 7.41150178 -45.9375 5.2421875 C-45.40125 4.3346875 -44.865 3.4271875 -44.3125 2.4921875 C-32.19954281 -8.98324563 -13.05666826 -11.84576758 0 0 Z M-33.6875 9.0546875 C-39.22510246 16.89962432 -39.06761548 26.5539586 -37.5078125 35.78515625 C-35.84766444 41.0832831 -32.34685643 44.17157543 -27.9375 47.2421875 C-24.22545513 49.09820994 -19.9887695 48.69094351 -15.9375 48.2421875 C-10.66536277 45.60611889 -7.08253443 42.05946647 -4.8515625 36.5703125 C-2.88077163 29.39461239 -2.40614764 19.43290536 -5.5625 12.5546875 C-8.31903615 8.12068629 -11.94601023 4.90601742 -16.9375 3.2421875 C-24.19079267 2.76656175 -28.40990899 3.65715124 -33.6875 9.0546875 Z " fill="#28425E" transform="translate(905.9375,544.7578125)"/>
<path d="M0 0 C7.30061986 7.75690861 8.57433079 15.2919647 8.5 25.6171875 C8.5299707 27.08285156 8.5299707 27.08285156 8.56054688 28.578125 C8.55517156 36.66259347 6.93353931 43.65338836 1.8125 50.0546875 C-8.00423394 57.86345313 -16.60341838 59.28730021 -28.9375 58.2421875 C-36.15747238 56.73081875 -41.50986462 53.12514593 -45.9375 47.2421875 C-51.62282977 37.40300055 -51.62061854 22.74209396 -49.18359375 11.8828125 C-48.26659066 9.50939274 -47.26036543 7.41150178 -45.9375 5.2421875 C-45.40125 4.3346875 -44.865 3.4271875 -44.3125 2.4921875 C-32.19954281 -8.98324563 -13.05666826 -11.84576758 0 0 Z M-33.625 9.0546875 C-38.96844458 16.41997597 -39.04057912 25.47082197 -37.9375 34.2421875 C-36.42270238 39.44320937 -34.13892916 43.01145519 -30.375 46.8671875 C-25.20977877 48.93327599 -20.42236751 48.98053505 -14.9375 48.2421875 C-10.00288681 45.95111709 -7.58468032 42.94828585 -4.9375 38.2421875 C-2.70152575 30.8903784 -2.4495056 20.69999646 -4.87890625 13.421875 C-7.57486066 8.97650816 -11.27118367 5.57534567 -15.9375 3.2421875 C-23.77096571 2.52123136 -28.07928846 3.25103589 -33.625 9.0546875 Z " fill="#26415C" transform="translate(1259.9375,544.7578125)"/>
<path d="M0 0 C4.10557552 2.51014462 7.27474654 5.46459961 9.1875 9.9375 C9.5 13.375 9.5 13.375 9.1875 15.9375 C5.71467947 17.67391026 1.96529286 17.67413582 -1.8125 16.9375 C-4.125 14.0625 -4.125 14.0625 -5.8125 10.9375 C-8.94693281 8.83861151 -11.59214083 8.66705847 -15.3125 8.6875 C-16.72015625 8.67976562 -16.72015625 8.67976562 -18.15625 8.671875 C-20.90613829 8.94686383 -22.54526766 9.3670776 -24.8125 10.9375 C-25.62834568 13.99658413 -25.62834568 13.99658413 -25.8125 16.9375 C-18.91247605 20.85560405 -11.79717727 23.41323502 -4.23486328 25.70556641 C1.34956157 27.45395544 5.66641837 29.59028607 10 33.625 C12.66403637 38.81286031 12.68813002 44.15481602 11.0625 49.6875 C8.91959537 55.18825965 5.60014826 58.37555245 0.5 61.25 C-4.23015875 63.20895463 -8.82491102 63.33121161 -13.875 63.375 C-14.63063232 63.3850708 -15.38626465 63.3951416 -16.16479492 63.40551758 C-23.62833936 63.29109333 -30.39959608 61.35040392 -35.8125 55.9375 C-38.92415231 51.75462312 -40.3275772 48.21704134 -39.8125 42.9375 C-36.32042208 41.34112152 -33.65568093 40.42428019 -29.8125 40.9375 C-28.15234375 42.8359375 -28.15234375 42.8359375 -26.75 45.3125 C-24.8017052 48.71257126 -23.6036467 50.68268384 -19.8125 51.9375 C-16.70688108 52.3289967 -16.70688108 52.3289967 -13.375 52.3125 C-11.70630859 52.35503906 -11.70630859 52.35503906 -10.00390625 52.3984375 C-6.14629344 51.84127922 -4.50304395 50.71772874 -1.8125 47.9375 C-1.39440799 44.76901973 -1.39440799 44.76901973 -1.8125 41.9375 C-8.74007313 38.00375244 -15.90219544 35.43494001 -23.47802734 33.08154297 C-33.21267256 30.00489878 -33.21267256 30.00489878 -36.17578125 26.17578125 C-38.54592587 21.36721623 -39.84033568 17.29470415 -38.8125 11.9375 C-37.01698096 6.67576505 -34.61960246 2.91332533 -29.8125 -0.0625 C-21.05635563 -3.65643986 -8.67006712 -3.97541539 0 0 Z " fill="#28425E" transform="translate(1593.8125,540.0625)"/>
<path d="M0 0 C2.97 0.33 5.94 0.66 9 1 C9.66 2.65 10.32 4.3 11 6 C11.804375 5.3503125 11.804375 5.3503125 12.625 4.6875 C18.15892756 0.75549884 22.58540126 -0.58094446 29.25 -0.5625 C29.92289063 -0.56443359 30.59578125 -0.56636719 31.2890625 -0.56835938 C36.70335977 -0.3918062 40.75769661 1.02121517 44.828125 4.61328125 C45.29734375 5.17402344 45.7665625 5.73476563 46.25 6.3125 C46.72953125 6.86550781 47.2090625 7.41851563 47.703125 7.98828125 C51.57703687 13.99751201 51.2650547 20.20146383 51.1953125 27.0859375 C51.1924826 28.14285797 51.18965271 29.19977844 51.18673706 30.28872681 C51.1755785 33.65093501 51.15048159 37.01287286 51.125 40.375 C51.11496462 42.66015239 51.10583975 44.94530898 51.09765625 47.23046875 C51.07565327 52.82041602 51.04115296 58.41016223 51 64 C47.37 64 43.74 64 40 64 C39.32382831 57.63504502 38.89989202 51.31650386 38.75390625 44.91796875 C38.7289357 43.85535324 38.7289357 43.85535324 38.70346069 42.77127075 C38.63699598 39.83011445 38.57480912 36.88896669 38.52319336 33.94750977 C38.48333786 31.77073142 38.43190641 29.59446138 38.37890625 27.41796875 C38.3538501 26.13688232 38.32879395 24.8557959 38.30297852 23.53588867 C37.99985174 19.99826977 37.42695334 17.24741524 36 14 C31.27180006 11.00868984 27.58088025 10.55458371 22.08203125 11.42578125 C18.95729094 12.28757642 17.1766875 13.62543181 15 16 C12.45032608 20.73306792 12.55902618 25.64434185 12.3671875 30.89453125 C12.32562531 31.84188644 12.28406311 32.78924164 12.24124146 33.76530457 C12.11085366 36.7807516 11.99276415 39.79653619 11.875 42.8125 C11.78857196 44.86136252 11.70134154 46.91019136 11.61328125 48.95898438 C11.39955363 53.97231352 11.19685159 58.985981 11 64 C7.37 64 3.74 64 0 64 C0 42.88 0 21.76 0 0 Z " fill="#233E5A" transform="translate(2154,538)"/>
<path d="M0 0 C0 21.45 0 42.9 0 65 C-2.97 64.67 -5.94 64.34 -9 64 C-9.66 62.02 -10.32 60.04 -11 58 C-11.9075 58.78375 -12.815 59.5675 -13.75 60.375 C-19.74039612 65.54852392 -25.44846465 65.50155008 -33.0625 65.3125 C-39.59554955 64.794004 -43.12668171 63.16910539 -47.375 58.25 C-51.01262218 50.97475564 -51.28064374 44.13259779 -51.1953125 36.15625 C-51.1924826 35.14655151 -51.18965271 34.13685303 -51.18673706 33.09655762 C-51.1756153 29.89758033 -51.15052563 26.6988915 -51.125 23.5 C-51.11495985 21.32031657 -51.10583582 19.14062871 -51.09765625 16.9609375 C-51.0757022 11.64051525 -51.04122793 6.32030639 -51 1 C-47.37 1 -43.74 1 -40 1 C-39.9498877 2.26593994 -39.89977539 3.53187988 -39.84814453 4.83618164 C-39.65914608 9.55352064 -39.45891659 14.27032869 -39.25537109 18.98706055 C-39.16899367 21.0246942 -39.0856221 23.06245766 -39.00537109 25.1003418 C-38.88918201 28.03734374 -38.76202607 30.97370194 -38.6328125 33.91015625 C-38.59938751 34.81459976 -38.56596252 35.71904327 -38.53152466 36.65089417 C-38.29579343 41.73518406 -37.80415562 46.21871437 -36 51 C-31.74862439 54.06494521 -28.15766748 54.55260723 -23 54 C-19.43250491 52.55928083 -16.3580975 51.10275987 -14 48 C-13.14106987 45.18264313 -12.83237967 42.53393908 -12.70288086 39.59863281 C-12.66291489 38.7380426 -12.62294891 37.87745239 -12.58177185 36.99078369 C-12.54318558 36.07085632 -12.5045993 35.15092896 -12.46484375 34.203125 C-12.42186661 33.25435486 -12.37888947 32.30558472 -12.33460999 31.32806396 C-12.1984227 28.30219886 -12.06789066 25.2761199 -11.9375 22.25 C-11.84607587 20.19659795 -11.75428339 18.14321227 -11.66210938 16.08984375 C-11.43713382 11.06007564 -11.21722935 6.03010837 -11 1 C-9.35422741 0.83273455 -7.70838013 0.66620388 -6.0625 0.5 C-5.14597656 0.4071875 -4.22945312 0.314375 -3.28515625 0.21875 C-1 0 -1 0 0 0 Z " fill="#243F5B" transform="translate(2137,538)"/>
<path d="M0 0 C0 21.45 0 42.9 0 65 C-2.97 64.67 -5.94 64.34 -9 64 C-9.66 62.02 -10.32 60.04 -11 58 C-11.9075 58.78375 -12.815 59.5675 -13.75 60.375 C-19.74039612 65.54852392 -25.44846465 65.50155008 -33.0625 65.3125 C-39.59554955 64.794004 -43.12668171 63.16910539 -47.375 58.25 C-51.01262218 50.97475564 -51.28064374 44.13259779 -51.1953125 36.15625 C-51.1924826 35.14655151 -51.18965271 34.13685303 -51.18673706 33.09655762 C-51.1756153 29.89758033 -51.15052563 26.6988915 -51.125 23.5 C-51.11495985 21.32031657 -51.10583582 19.14062871 -51.09765625 16.9609375 C-51.0757022 11.64051525 -51.04122793 6.32030639 -51 1 C-47.37 1 -43.74 1 -40 1 C-39.9498877 2.26593994 -39.89977539 3.53187988 -39.84814453 4.83618164 C-39.65914608 9.55352064 -39.45891659 14.27032869 -39.25537109 18.98706055 C-39.16899367 21.0246942 -39.0856221 23.06245766 -39.00537109 25.1003418 C-38.88918201 28.03734374 -38.76202607 30.97370194 -38.6328125 33.91015625 C-38.59938751 34.81459976 -38.56596252 35.71904327 -38.53152466 36.65089417 C-38.29579343 41.73518406 -37.80415562 46.21871437 -36 51 C-31.74862439 54.06494521 -28.15766748 54.55260723 -23 54 C-19.43250491 52.55928083 -16.3580975 51.10275987 -14 48 C-13.14106987 45.18264313 -12.83237967 42.53393908 -12.70288086 39.59863281 C-12.66291489 38.7380426 -12.62294891 37.87745239 -12.58177185 36.99078369 C-12.54318558 36.07085632 -12.5045993 35.15092896 -12.46484375 34.203125 C-12.42186661 33.25435486 -12.37888947 32.30558472 -12.33460999 31.32806396 C-12.1984227 28.30219886 -12.06789066 25.2761199 -11.9375 22.25 C-11.84607587 20.19659795 -11.75428339 18.14321227 -11.66210938 16.08984375 C-11.43713382 11.06007564 -11.21722935 6.03010837 -11 1 C-9.35422741 0.83273455 -7.70838013 0.66620388 -6.0625 0.5 C-5.14597656 0.4071875 -4.22945312 0.314375 -3.28515625 0.21875 C-1 0 -1 0 0 0 Z " fill="#243F5B" transform="translate(1817,538)"/>
<path d="M0 0 C0 21.45 0 42.9 0 65 C-2.97 64.67 -5.94 64.34 -9 64 C-9.66 62.02 -10.32 60.04 -11 58 C-11.9075 58.78375 -12.815 59.5675 -13.75 60.375 C-19.74039612 65.54852392 -25.44846465 65.50155008 -33.0625 65.3125 C-39.59554955 64.794004 -43.12668171 63.16910539 -47.375 58.25 C-51.01262218 50.97475564 -51.28064374 44.13259779 -51.1953125 36.15625 C-51.1924826 35.14655151 -51.18965271 34.13685303 -51.18673706 33.09655762 C-51.1756153 29.89758033 -51.15052563 26.6988915 -51.125 23.5 C-51.11495985 21.32031657 -51.10583582 19.14062871 -51.09765625 16.9609375 C-51.0757022 11.64051525 -51.04122793 6.32030639 -51 1 C-47.37 1 -43.74 1 -40 1 C-39.9498877 2.26593994 -39.89977539 3.53187988 -39.84814453 4.83618164 C-39.65914608 9.55352064 -39.45891659 14.27032869 -39.25537109 18.98706055 C-39.16899367 21.0246942 -39.0856221 23.06245766 -39.00537109 25.1003418 C-38.88918201 28.03734374 -38.76202607 30.97370194 -38.6328125 33.91015625 C-38.59938751 34.81459976 -38.56596252 35.71904327 -38.53152466 36.65089417 C-38.29579343 41.73518406 -37.80415562 46.21871437 -36 51 C-31.74862439 54.06494521 -28.15766748 54.55260723 -23 54 C-19.43250491 52.55928083 -16.3580975 51.10275987 -14 48 C-13.14106987 45.18264313 -12.83237967 42.53393908 -12.70288086 39.59863281 C-12.66291489 38.7380426 -12.62294891 37.87745239 -12.58177185 36.99078369 C-12.54318558 36.07085632 -12.5045993 35.15092896 -12.46484375 34.203125 C-12.42186661 33.25435486 -12.37888947 32.30558472 -12.33460999 31.32806396 C-12.1984227 28.30219886 -12.06789066 25.2761199 -11.9375 22.25 C-11.84607587 20.19659795 -11.75428339 18.14321227 -11.66210938 16.08984375 C-11.43713382 11.06007564 -11.21722935 6.03010837 -11 1 C-9.35422741 0.83273455 -7.70838013 0.66620388 -6.0625 0.5 C-5.14597656 0.4071875 -4.22945312 0.314375 -3.28515625 0.21875 C-1 0 -1 0 0 0 Z " fill="#243F5B" transform="translate(977,538)"/>
<path d="M0 0 C3.89886904 3.59562367 7.54132896 7.93051256 7.9765625 13.33984375 C7.7578125 15.62109375 7.7578125 15.62109375 6.7578125 16.62109375 C3.30945701 17.25101933 0.1909893 17.36494872 -3.2421875 16.62109375 C-5.28972373 14.76392762 -6.56899922 12.93046409 -7.98828125 10.56640625 C-9.2468055 8.32997205 -9.2468055 8.32997205 -12.2421875 6.62109375 C-18.19095833 5.63309859 -22.84802831 6.26355604 -27.76953125 9.74609375 C-32.28084012 15.48993528 -32.76470033 22.10834869 -32.7421875 29.12109375 C-32.77054688 29.92417969 -32.79890625 30.72726562 -32.828125 31.5546875 C-32.84828782 37.77491631 -31.16315091 41.8079308 -27.2421875 46.62109375 C-24.9262029 48.94166446 -23.85384426 49.52811463 -20.62109375 50.01953125 C-13.27717176 50.19438895 -13.27717176 50.19438895 -7.2421875 46.62109375 C-5.36537781 43.37457893 -3.75442283 40.05097219 -2.2421875 36.62109375 C-0.78395538 36.59408945 0.67441925 36.57469588 2.1328125 36.55859375 C3.35097656 36.54119141 3.35097656 36.54119141 4.59375 36.5234375 C6.7578125 36.62109375 6.7578125 36.62109375 8.7578125 37.62109375 C8.46406568 45.69913123 5.62579159 50.98459603 -0.265625 56.5234375 C-7.89926735 62.05978221 -16.25352568 61.51194229 -25.2421875 60.62109375 C-30.74424893 59.55461488 -35.60028103 56.93360622 -39.2421875 52.62109375 C-46.13290382 41.8937182 -47.54880622 29.91660464 -45.5546875 17.49609375 C-43.70675791 9.30873903 -39.11439028 3.34020296 -32.2421875 -1.37890625 C-22.04376305 -6.6602332 -9.63510475 -6.79295042 0 0 Z " fill="#28425D" transform="translate(2263.2421875,542.37890625)"/>
<path d="M0 0 C3.63 0 7.26 0 11 0 C11 28.71 11 57.42 11 87 C7.37 86.67 3.74 86.34 0 86 C0 57.62 0 29.24 0 0 Z " fill="#1F3A57" transform="translate(2307,516)"/>
<path d="M0 0 C3.63 0 7.26 0 11 0 C11 28.71 11 57.42 11 87 C7.37 86.67 3.74 86.34 0 86 C0 57.62 0 29.24 0 0 Z " fill="#1F3A57" transform="translate(1740,516)"/>
<path d="M0 0 C3.63 0 7.26 0 11 0 C11 28.71 11 57.42 11 87 C7.37 86.67 3.74 86.34 0 86 C0 57.62 0 29.24 0 0 Z " fill="#1F3A57" transform="translate(1306,516)"/>
<path d="M0 0 C3.63 0 7.26 0 11 0 C11 28.71 11 57.42 11 87 C7.37 86.67 3.74 86.34 0 86 C0 57.62 0 29.24 0 0 Z " fill="#1F3A57" transform="translate(1279,516)"/>
<path d="M0 0 C3.63 0 7.26 0 11 0 C11 20.79 11 41.58 11 63 C7.37 63 3.74 63 0 63 C0 42.21 0 21.42 0 0 Z " fill="#1B3754" transform="translate(2281,539)"/>
<path d="M0 0 C3.96 0 7.92 0 12 0 C12.75268817 18.39904421 12.75268817 18.39904421 8 25 C6 27.0625 6 27.0625 4 28 C1.75 27.6875 1.75 27.6875 0 27 C-0.75 25.3125 -0.75 25.3125 -1 23 C0.28062485 21.2925002 1.61767557 19.62626404 3 18 C3.77833534 15.81785432 3.77833534 15.81785432 4 14 C2.68 13.34 1.36 12.68 0 12 C0 8.04 0 4.08 0 0 Z " fill="#233E5B" transform="translate(1533,515)"/>
<path d="M0 0 C3.63 0 7.26 0 11 0 C11 3.96 11 7.92 11 12 C7.37 12 3.74 12 0 12 C0 8.04 0 4.08 0 0 Z " fill="#1A3653" transform="translate(2281,516)"/>
<path d="M0 0 C0.33 0 0.66 0 1 0 C1.02505615 0.63502441 1.0501123 1.27004883 1.07592773 1.92431641 C1.19256789 4.82471542 1.31498393 7.72484349 1.4375 10.625 C1.47681641 11.62402344 1.51613281 12.62304688 1.55664062 13.65234375 C1.73059981 17.69354941 1.93192429 21.59154572 2.59765625 25.5859375 C3 28 3 28 2 30 C1.34 30 0.68 30 0 30 C0 20.1 0 10.2 0 0 Z " fill="#718294" transform="translate(803,516)"/>
<path d="M0 0 C0.66 0.33 1.32 0.66 2 1 C-1.63 4.63 -5.26 8.26 -9 12 C-9.66 11.67 -10.32 11.34 -11 11 C-7.6189962 6.86378916 -4.33409466 3.18683431 0 0 Z " fill="#4C6177" transform="translate(1988,260)"/>
<path d="M0 0 C0.66 0.33 1.32 0.66 2 1 C-1.3 4.3 -4.6 7.6 -8 11 C-8 6.67750434 -5.85084926 5.11604454 -3 2 C-2.01 1.34 -1.02 0.68 0 0 Z " fill="#5196C6" transform="translate(208,139)"/>
<path d="M0 0 C0.66 0.33 1.32 0.66 2 1 C-1.96 4.465 -1.96 4.465 -6 8 C-6 5 -6 5 -4.6875 3.61328125 C-3.125 2.40885417 -1.5625 1.20442708 0 0 Z " fill="#64768A" transform="translate(1010,539)"/>
<path d="M0 0 C0.66 0.33 1.32 0.66 2 1 C-0.31 3.31 -2.62 5.62 -5 8 C-5.66 7.67 -6.32 7.34 -7 7 C-4.66666667 4.66666667 -2.33333333 2.33333333 0 0 Z " fill="#50657B" transform="translate(1408,541)"/>
</svg>
