<?xml version="1.0" encoding="UTF-8"?>
<svg version="1.1" xmlns="http://www.w3.org/2000/svg" width="3178" height="850">
<path d="M0 0 C16.5 0 33 0 50 0 C50.06058594 4.62386719 50.12117187 9.24773437 50.18359375 14.01171875 C50.2668258 20.23699862 50.35168723 26.46225519 50.4375 32.6875 C50.44852123 33.48723488 50.45954247 34.28696976 50.47089767 35.11093903 C50.80261171 59.07957489 51.20410999 83.04140748 52 107 C61.50451452 97.66882955 61.50451452 97.66882955 70.44726562 87.80664062 C73.27168458 84.52036699 76.27367852 81.39818256 79.25 78.25 C85.55708879 71.55047013 91.79767568 64.79655898 98 58 C99.83225927 55.9990147 101.66613873 53.99951705 103.5 52 C104.41669613 51.00002701 105.33336283 50.00002704 106.25 49 C122.75 31 122.75 31 124.12548828 29.49951172 C125.04058633 28.50119339 125.95562555 27.50282114 126.87060547 26.50439453 C129.18578852 23.9782158 131.5020401 21.45303168 133.8203125 18.9296875 C134.29017578 18.41792969 134.76003906 17.90617187 135.24414062 17.37890625 C139.0565723 13.22675294 139.0565723 13.22675294 140.47538757 11.74249268 C142.10959349 9.94343873 142.10959349 9.94343873 143.69026184 7.53631592 C146.83676725 3.31379611 149.25308737 0.44353872 154.47161865 -0.88143921 C158.67460215 -1.15609243 162.76845272 -1.12792443 166.97265625 -0.9765625 C168.50674297 -0.95787882 170.04088992 -0.94365951 171.57505798 -0.9336853 C175.58634215 -0.89575153 179.59392474 -0.79776287 183.60375977 -0.68664551 C187.7060336 -0.58379334 191.80891404 -0.53856001 195.91210938 -0.48828125 C203.94309307 -0.38147597 211.97108439 -0.21113229 220 0 C219.05378263 1.11367235 218.10616123 2.22615189 217.15795898 3.33813477 C216.63040512 3.95777603 216.10285126 4.5774173 215.55931091 5.21583557 C212.76681155 8.41101492 209.69786749 11.3186624 206.66015625 14.27734375 C204.62501846 16.36029682 202.73043296 18.45251518 200.83984375 20.66015625 C195.48081676 26.84353729 189.56142097 32.48188059 183.73828125 38.22265625 C179.89348176 42.03416743 176.08057233 45.81970826 172.5625 49.9375 C167.39719546 55.96877059 161.61894216 61.43627506 155.97021484 67.00927734 C150.64150177 72.27298525 145.39815135 77.54444679 140.52880859 83.24414062 C138.1661254 85.95771736 135.62845038 88.48018704 133.0625 91 C132.56943359 91.48855469 132.07636719 91.97710937 131.56835938 92.48046875 C130.38126771 93.65603525 129.19099502 94.82838826 128 96 C129.661952 100.81588363 132.27280243 104.86053136 135 109.125 C135.51546387 109.93686768 136.03092773 110.74873535 136.56201172 111.58520508 C141.6971031 119.62212302 147.00690879 127.54218043 152.31588745 135.46463013 C157.0494221 142.53003085 161.71546253 149.62070796 166.17114258 156.86499023 C170.10466694 163.23383017 174.20854523 169.49012131 178.3125 175.75 C178.68007416 176.31074219 179.04764832 176.87148438 179.42636108 177.44921875 C181.25886477 180.24428876 183.09197992 183.03895684 184.92529297 185.83349609 C187.91919407 190.40291211 190.89921104 194.98127402 193.875 199.5625 C194.39924561 200.36953369 194.92349121 201.17656738 195.46362305 202.00805664 C199.74591679 208.60361084 204.02013319 215.20438283 208.2890625 221.80859375 C210.19765997 224.76097731 212.1096148 227.71115725 214.0234375 230.66015625 C214.52149902 231.4281958 215.01956055 232.19623535 215.53271484 232.98754883 C216.48289585 234.45266154 217.433702 235.91736908 218.38525391 237.3815918 C225 247.58645599 225 247.58645599 225 250 C203.22 250 181.44 250 159 250 C156.03 244.72 153.06 239.44 150 234 C147.47255967 229.69873744 144.93508953 225.40655729 142.375 221.125 C136.98679356 212.08419506 131.67487174 203.00435093 126.4375 193.875 C117.97406185 179.13776963 109.21575595 164.58148001 100.390625 150.05859375 C99.82819092 149.12966309 99.26575684 148.20073242 98.6862793 147.24365234 C97.62913916 145.4981234 96.56828992 143.75483367 95.50317383 142.01416016 C95.03935303 141.24765137 94.57553223 140.48114258 94.09765625 139.69140625 C93.69039307 139.02310791 93.28312988 138.35480957 92.86352539 137.66625977 C92 136 92 136 92 134 C85.49029497 139.49757097 79.44714969 145.40211305 73.4375 151.4375 C72.53064453 152.34048828 71.62378906 153.24347656 70.68945312 154.17382812 C66.14259545 158.72728022 61.71594106 163.32033985 57.55493164 168.23071289 C56 170 56 170 53.94267273 171.64616394 C51.3426554 174.79647045 51.38659722 177.5156596 51.36230469 181.43066406 C51.34221344 182.17251953 51.32212219 182.914375 51.30142212 183.67871094 C51.23977161 186.12431815 51.20569687 188.56948788 51.171875 191.015625 C51.13445002 192.71388512 51.09530304 194.4121081 51.05450439 196.11029053 C50.9518641 200.57509451 50.87261371 205.04001908 50.79821777 209.50537109 C50.70404996 214.86554605 50.58085628 220.22512287 50.46252441 225.58480835 C50.28610192 233.72296409 50.14657905 241.86100539 50 250 C33.5 250 17 250 0 250 C0 167.5 0 85 0 0 Z " fill="#77B5CD" transform="translate(808,227)"/>
<path d="M0 0 C15.84 0 31.68 0 48 0 C48 82.5 48 165 48 250 C33.15 250 18.3 250 3 250 C2.67 242.08 2.34 234.16 2 226 C0.7625 227.464375 -0.475 228.92875 -1.75 230.4375 C-13.21863556 243.06548441 -29.06438996 252.74330665 -46.39379883 254.20141602 C-48.8708972 254.30236515 -51.33345 254.32883799 -53.8125 254.3125 C-54.6876123 254.30831055 -55.56272461 254.30412109 -56.46435547 254.29980469 C-63.3247002 254.18058258 -69.49596461 253.26312881 -76 251 C-76.82113281 250.74476563 -77.64226562 250.48953125 -78.48828125 250.2265625 C-97.65877959 243.56122177 -112.07769872 227.21544013 -120.75 209.40625 C-127.46785618 193.68646654 -129.693293 178.00020867 -129.57641602 160.99682617 C-129.56255767 158.19914213 -129.59678072 155.40482637 -129.63476562 152.60742188 C-129.73321355 129.79223952 -124.4337227 106.47869095 -109 89 C-108.278125 88.01 -107.55625 87.02 -106.8125 86 C-96.37915119 73.76545416 -79.56495588 66.15932259 -63.72949219 64.69824219 C-60.35511149 64.5640621 -57.00185291 64.53197396 -53.625 64.5625 C-51.8450061 64.57494751 -51.8450061 64.57494751 -50.02905273 64.58764648 C-28.97485425 64.99378569 -17.27279386 73.23071288 -1 87 C-0.505 43.935 -0.505 43.935 0 0 Z M-67 113 C-76.89902726 125.65422372 -79.2003134 138.51377643 -79.24023438 154.13452148 C-79.24983808 156.39931433 -79.2808449 158.66315807 -79.3125 160.92773438 C-79.42791124 176.49950539 -77.33489353 192.20497913 -66.859375 204.515625 C-57.81840302 213.05080834 -47.90120041 215.50840011 -35.70703125 215.40625 C-26.62878933 214.41137417 -17.90192681 208.9053864 -12 202 C0.31295637 183.51654157 1.30984118 159.58622205 -2.3203125 138.203125 C-4.99747037 125.58663391 -10.08607864 114.60748669 -21.0546875 107.14453125 C-35.76684245 98.48858467 -55.01893159 100.36243469 -67 113 Z " fill="#78B6CD" transform="translate(1762,227)"/>
<path d="M0 0 C1.20849609 -0.02900391 2.41699219 -0.05800781 3.66210938 -0.08789062 C21.10655306 -0.20935702 36.34397106 6.29448138 48.73828125 18.44921875 C49.68269101 19.40067395 50.62420762 20.35501152 51.5625 21.3125 C52.40167969 22.16457031 53.24085938 23.01664062 54.10546875 23.89453125 C62.54064204 32.86661674 67.87633854 42.57595916 71.5625 54.3125 C71.76149902 54.9415625 71.96049805 55.570625 72.16552734 56.21875 C75.85743533 68.60372551 75.9593108 81.18789448 76 94 C76.0061734 94.82594666 76.0123468 95.65189331 76.01870728 96.50286865 C76.14483454 122.79013665 70.57045975 147.37290895 51.88671875 166.9765625 C51.11972656 167.74742187 50.35273438 168.51828125 49.5625 169.3125 C48.82644531 170.08335937 48.09039063 170.85421875 47.33203125 171.6484375 C34.38490336 184.35700859 17.79894543 189.48946788 -0.0625 189.6875 C-21.16054555 189.47327497 -36.95030643 179.92954038 -51.4375 165.3125 C-52.29182175 185.76402875 -52.66588777 206.22231485 -53 226.6875 C-53.0111018 227.36733067 -53.0222036 228.04716133 -53.03364182 228.74759293 C-53.17241503 237.26916674 -53.30548974 245.7908167 -53.4375 254.3125 C-68.9475 254.3125 -84.4575 254.3125 -100.4375 254.3125 C-100.4375 171.8125 -100.4375 89.3125 -100.4375 4.3125 C-85.9175 4.3125 -71.3975 4.3125 -56.4375 4.3125 C-55.7775 11.5725 -55.1175 18.8325 -54.4375 26.3125 C-52.4575 24.0025 -50.4775 21.6925 -48.4375 19.3125 C-34.13146966 6.18325603 -19.19877517 0.14929063 0 0 Z M-43.5625 53.76953125 C-45.42858444 56.30040827 -46.76625861 58.70240611 -48.0625 61.5625 C-48.66964844 62.86960937 -48.66964844 62.86960937 -49.2890625 64.203125 C-52.38583065 72.5875721 -52.78215644 80.55220572 -52.75317383 89.46704102 C-52.75003241 91.47924008 -52.77347795 93.4899367 -52.79882812 95.50195312 C-52.80739453 112.95172592 -49.15783543 128.22875286 -36.875 141.11328125 C-27.70146407 149.39004524 -18.827069 150.97661618 -6.81640625 150.71875 C1.80291303 150.19580105 9.3309396 145.62979645 15.0390625 139.28125 C28.55702808 121.8118791 28.72023003 97.68647425 26.22998047 76.48095703 C25.4353609 71.92777769 24.18272064 67.6481427 22.5625 63.3125 C22.14677734 62.136875 22.14677734 62.136875 21.72265625 60.9375 C18.06704147 52.31227065 10.13181111 44.1070289 1.5625 40.3125 C-16.81296813 34.09175328 -31.2873357 39.57637253 -43.5625 53.76953125 Z " fill="#77B5CD" transform="translate(2773.4375,291.6875)"/>
<path d="M0 0 C1.03640625 -0.02835938 2.0728125 -0.05671875 3.140625 -0.0859375 C11.94681776 1.03866287 19.78156585 5.80965609 27.4375 10.0625 C28.4080835 10.59721924 29.37866699 11.13193848 30.37866211 11.68286133 C36.15787919 14.88447756 41.87592527 18.16198451 47.5168457 21.60180664 C53.54457651 25.2763933 59.63933103 28.83454239 65.73492432 32.39492798 C69.52837342 34.61284682 73.31673063 36.8394547 77.10559082 39.06520081 C80.76679063 41.21488828 84.43343602 43.35482045 88.10498047 45.48678589 C90.88794825 47.10688897 93.66194219 48.74224485 96.4375 50.375 C97.43313965 50.94879395 98.4287793 51.52258789 99.45458984 52.11376953 C109.38627837 57.99301819 119.17800996 64.73044405 122.2807312 76.36515808 C122.96137779 80.73075542 122.88878251 85.04248688 122.87939453 89.4543457 C122.88202301 90.97235275 122.88202301 90.97235275 122.88470459 92.52102661 C122.88910323 95.86429564 122.88619141 99.20751169 122.8828125 102.55078125 C122.88348627 104.87859609 122.8844569 107.20641086 122.88571167 109.53422546 C122.88718608 114.41401845 122.88504288 119.29379313 122.88037109 124.17358398 C122.87468348 130.41777415 122.87794832 136.66192124 122.88394356 142.90610981 C122.88756418 147.7145978 122.88640351 152.52307565 122.88381577 157.33156395 C122.88315016 159.63318067 122.88396209 161.93479832 122.88629532 164.23641396 C122.8888454 167.46012417 122.88494764 170.68376558 122.87939453 173.9074707 C122.88141876 174.85268082 122.88344299 175.79789093 122.88552856 176.77174377 C122.86870867 182.06412246 122.52004903 187.13745797 121.75 192.375 C117.67734508 191.13486692 114.23356763 189.65227701 110.609375 187.42578125 C109.63500488 186.83289307 108.66063477 186.24000488 107.65673828 185.62915039 C106.61501465 184.98840576 105.57329102 184.34766113 104.5 183.6875 C102.24331419 182.31579874 99.98580139 180.94560308 97.7265625 179.578125 C97.14852875 179.22774673 96.570495 178.87736847 95.97494507 178.51637268 C89.99357744 174.899733 83.93963845 171.41238892 77.875 167.9375 C67.76845859 162.13821596 57.72723174 156.23682424 47.7109375 150.28320312 C39.4763817 145.39096414 31.21537246 140.5464659 22.93774414 135.72753906 C15.13779578 131.18646011 7.34787122 126.62850381 -0.4375 122.0625 C-1.04430603 121.70664825 -1.65111206 121.35079651 -2.27630615 120.98416138 C-5.3657704 119.17237162 -8.45513252 117.36040782 -11.54443359 115.54833984 C-17.01002104 112.34255395 -22.47658745 109.13843822 -27.94308472 105.9342041 C-29.7519105 104.87388007 -31.56065901 103.81342433 -33.36938477 102.75292969 C-39.4351762 99.19654114 -45.50188454 95.64173179 -51.5703125 92.08984375 C-58.19110303 88.21428864 -64.80874889 84.33340397 -71.42358398 80.44769287 C-72.65929733 79.72193221 -73.89514087 78.99639316 -75.13110352 78.27105713 C-78.87414759 76.07440288 -82.61513436 73.8743186 -86.35321045 71.66921997 C-88.07097852 70.65683804 -89.79058739 69.64758153 -91.51025391 68.63842773 C-102.4625486 62.16677063 -102.4625486 62.16677063 -107.25 58.375 C-107.25 57.715 -107.25 57.055 -107.25 56.375 C-82.87121895 42.27967662 -58.4669484 28.23376488 -33.87109375 14.51953125 C-30.35233851 12.556336 -26.8435888 10.57776516 -23.34765625 8.57421875 C-22.24695801 7.94567993 -22.24695801 7.94567993 -21.12402344 7.30444336 C-19.81092436 6.55319021 -18.50011046 5.79791836 -17.19238281 5.03735352 C-11.50453482 1.79092705 -6.56652122 0.08086849 0 0 Z " fill="#2F6BA3" transform="translate(544.25,206.625)"/>
<path d="M0 0 C3.58638649 1.85141685 7.06734639 3.86566204 10.55224609 5.90014648 C12.49924011 7.00463909 14.44722609 8.10738421 16.39599609 9.20874023 C28.87079653 16.30268654 41.20841771 23.6333615 53.54516602 30.96386719 C61.23853448 35.53504531 68.94851138 40.07651302 76.67724609 44.58764648 C77.64227051 45.15169189 78.60729492 45.7157373 79.6015625 46.296875 C85.2141152 49.5679795 90.85905851 52.77143413 96.55224609 55.90014648 C94.05015809 58.7055981 91.27207082 60.35475102 88.01318359 62.20092773 C86.32563965 63.16119873 86.32563965 63.16119873 84.60400391 64.14086914 C83.37848003 64.83157172 82.15289246 65.52216129 80.92724609 66.21264648 C79.65978104 66.93151032 78.39253119 67.6507537 77.12548828 68.37036133 C68.01359795 73.53866007 58.86726468 78.64545459 49.71655273 83.74462891 C42.54685895 87.75107178 35.44507884 91.86313623 28.36474609 96.02514648 C19.94185379 100.97568296 11.4364319 105.72929759 2.83618164 110.36376953 C-3.96884204 114.04842901 -10.65624856 117.90867848 -17.32275391 121.83764648 C-26.33241276 127.1441365 -35.44704879 132.20506033 -44.66040039 137.14819336 C-51.99025955 141.0880899 -59.23266284 145.15962164 -66.44458008 149.31079102 C-73.25031244 153.2259614 -80.09217379 157.07299716 -86.94775391 160.90014648 C-94.90474154 165.34558243 -102.84656276 169.81553726 -110.76025391 174.33764648 C-111.62191162 174.82910156 -112.48356934 175.32055664 -113.37133789 175.8269043 C-117.02743363 177.91773516 -120.67201224 180.02110764 -124.27587891 182.20092773 C-125.87689453 183.16579102 -125.87689453 183.16579102 -127.51025391 184.15014648 C-128.82703125 184.96225586 -128.82703125 184.96225586 -130.17041016 185.79077148 C-132.44775391 186.90014648 -132.44775391 186.90014648 -136.44775391 186.90014648 C-136.51801477 172.73067187 -136.57062557 158.56122451 -136.60319042 144.3916111 C-136.61882268 137.81154956 -136.64001665 131.23160535 -136.67407227 124.65161133 C-136.70675231 118.29737576 -136.72462527 111.94325281 -136.73238564 105.58893967 C-136.7379136 103.16894128 -136.74870828 100.7489488 -136.76494408 98.32899857 C-136.78683284 94.93021748 -136.78971599 91.53189727 -136.78833008 88.13305664 C-136.79911591 87.14042816 -136.80990173 86.14779968 -136.8210144 85.12509155 C-136.78216253 76.2759732 -135.21978328 67.83789243 -129.43994141 60.86889648 C-114.15496581 45.76374413 -91.30105922 36.44944333 -72.72436523 26.11376953 C-65.38324062 22.0187559 -58.12584103 17.79489842 -50.88525391 13.52514648 C-15.60290223 -7.23895747 -15.60290223 -7.23895747 0 0 Z " fill="#3270A9" transform="translate(423.44775390625,129.099853515625)"/>
<path d="M0 0 C4.3287842 1.38950508 7.99607167 2.99081055 11.91015625 5.31640625 C12.46605942 5.64442734 13.02196259 5.97244843 13.5947113 6.31040955 C15.42044035 7.38924442 17.24138554 8.47589697 19.0625 9.5625 C20.35641378 10.32872827 21.65069145 11.09434233 22.9453125 11.859375 C25.6330881 13.44830976 28.31928271 15.03986902 31.00439453 16.63330078 C36.56058514 19.9278428 42.13561554 23.19011463 47.71066284 26.4526062 C50.72467588 28.21686765 53.73726024 29.98356544 56.75 31.75 C57.9583266 32.45834482 59.16665993 33.16667816 60.375 33.875 C82.125 46.625 103.875 59.375 125.625 72.125 C126.22309982 72.47560989 126.82119965 72.82621979 127.43742371 73.18745422 C128.64601258 73.89593806 129.85460022 74.60442398 131.06318665 75.31291199 C134.08010023 77.08145979 137.09703494 78.84997154 140.11401367 80.6184082 C145.59828335 83.83312378 151.08238707 87.04812094 156.5657196 90.26443481 C159.64787686 92.07229864 162.73016252 93.87994346 165.8125 95.6875 C166.71828293 96.21869446 166.71828293 96.21869446 167.6423645 96.76062012 C175.90016509 101.60287611 184.16586434 106.43140754 192.4375 111.25 C200.40859033 115.89512482 208.36742582 120.5605035 216.3125 125.25 C217.24441162 125.79946289 218.17632324 126.34892578 219.13647461 126.91503906 C219.9950708 127.42260742 220.85366699 127.93017578 221.73828125 128.453125 C222.49149658 128.89817383 223.24471191 129.34322266 224.02075195 129.80175781 C225.70823856 130.82336683 227.35866695 131.90577797 229 133 C227.8123746 136.56287619 227.11626983 136.81662585 223.96875 138.64453125 C223.10846191 139.14911865 222.24817383 139.65370605 221.36181641 140.17358398 C220.41741699 140.71442627 219.47301758 141.25526855 218.5 141.8125 C217.02732666 142.66920288 217.02732666 142.66920288 215.52490234 143.54321289 C207.22319687 148.35149679 198.8497618 153.03265677 190.46508789 157.69433594 C183.23173923 161.7226982 176.07172936 165.86149762 168.9375 170.0625 C160.60022021 174.96287476 152.18914706 179.70288021 143.6875 184.3125 C142.66068115 184.8701001 141.6338623 185.4277002 140.57592773 186.00219727 C131.46101203 190.90891969 123.32627288 192.57701576 113 191 C107.98856938 189.4802754 103.51914575 186.83675965 99.03027344 184.18847656 C97.02401453 183.01405757 94.99444274 181.90233074 92.9453125 180.8046875 C82.12015816 174.97372253 71.57755324 168.650465 61.01730347 162.35696411 C55.44138888 159.03462617 49.85195107 155.73755607 44.2421875 152.47265625 C43.59842667 152.09749374 42.95466583 151.72233124 42.29139709 151.33580017 C38.52586906 149.14140166 38.52586906 149.14140166 34.75595093 146.95455933 C7.69071216 131.29004879 7.69071216 131.29004879 3.3125 124.25 C2.91675781 123.63640625 2.52101563 123.0228125 2.11328125 122.390625 C-0.90335528 115.91279497 -1.28964755 109.54938173 -1.24291992 102.53320312 C-1.24481827 101.62139282 -1.24671661 100.70958252 -1.24867249 99.7701416 C-1.25235812 96.77375515 -1.24170009 93.77761473 -1.23046875 90.78125 C-1.22927464 88.67867054 -1.22882428 86.57609053 -1.2290802 84.47351074 C-1.22751866 80.06889497 -1.21925949 75.66436085 -1.20581055 71.25976562 C-1.1889053 65.65653514 -1.18499419 60.05339491 -1.18575573 54.45014191 C-1.18548155 50.10541954 -1.17995953 45.7607163 -1.17275429 41.41600037 C-1.16960437 39.35265752 -1.16760897 37.28931253 -1.16686058 35.22596741 C-1.15791275 23.44173013 -0.92072912 11.75185414 0 0 Z " fill="#3D84BA" transform="translate(289,365)"/>
<path d="M0 0 C0.02345905 10.61630943 0.04108226 21.23261242 0.05181217 31.84894276 C0.05696919 36.78171027 0.06393128 41.71445969 0.07543945 46.6472168 C0.1604327 84.29311197 0.1604327 84.29311197 -0.31640625 100.69921875 C-0.33863754 101.74181351 -0.36086884 102.78440826 -0.3837738 103.8585968 C-0.76395053 114.22557523 -3.18524435 121.11550888 -10.41308594 128.66552734 C-14.60180218 132.44549193 -19.18715188 135.12466156 -24.125 137.8125 C-25.17051025 138.40160156 -26.21602051 138.99070312 -27.29321289 139.59765625 C-29.46112918 140.81720077 -31.63344478 142.02895742 -33.81005859 143.23291016 C-36.81881597 144.89963187 -39.81238375 146.59006872 -42.80078125 148.29296875 C-48.52137889 151.55100509 -54.25858654 154.77881644 -60 158 C-61.03866211 158.58313965 -62.07732422 159.1662793 -63.14746094 159.76708984 C-69.46702291 163.31405661 -75.7904998 166.85394381 -82.1171875 170.38818359 C-84.79853682 171.88735943 -87.47765684 173.39043841 -90.15625 174.89453125 C-117.25059031 190.0780208 -117.25059031 190.0780208 -129 189 C-137.22316074 186.63007209 -144.59562749 182.02544069 -151.9375 177.75 C-153.17108172 177.03794254 -154.4048919 176.32628074 -155.63891602 175.61499023 C-166.16828018 169.53301668 -176.62784926 163.33256519 -187.07421875 157.109375 C-192.0001671 154.17839664 -196.94154073 151.27563819 -201.89453125 148.390625 C-202.55259262 148.00688217 -203.21065399 147.62313934 -203.88865662 147.22776794 C-207.75429416 144.97368865 -207.75429416 144.97368865 -211.62399292 142.72659302 C-217.94265042 139.06499356 -224.15814427 135.39847325 -230 131 C-229.79736328 129.18725586 -229.79736328 129.18725586 -229 127 C-226.95654297 125.46704102 -226.95654297 125.46704102 -224.2421875 124.00390625 C-223.23591309 123.45210693 -222.22963867 122.90030762 -221.19287109 122.33178711 C-220.09797363 121.74792236 -219.00307617 121.16405762 -217.875 120.5625 C-215.57258038 119.30530318 -213.27050422 118.04747716 -210.96875 116.7890625 C-209.7878488 116.14860003 -208.60685961 115.50829977 -207.42578125 114.86816406 C-202.37646254 112.11464448 -197.37520105 109.27893786 -192.375 106.4375 C-190.47672968 105.36298586 -188.57829199 104.28876733 -186.6796875 103.21484375 C-185.27541504 102.41989502 -185.27541504 102.41989502 -183.84277344 101.60888672 C-179.06306263 98.90377729 -174.28142898 96.2020709 -169.5 93.5 C-167.58332424 92.41668275 -165.66665757 91.33334943 -163.75 90.25 C-129.25 70.75 -94.75 51.25 -60.25 31.75 C-59.3007666 31.21342773 -58.3515332 30.67685547 -57.37353516 30.12402344 C-55.46192111 29.0436448 -53.55013794 27.96356536 -51.63818359 26.88378906 C-46.7677627 24.13271102 -41.90063134 21.37606984 -37.0390625 18.609375 C-28.15243313 13.55683737 -19.25649886 8.52407004 -10.25 3.6875 C-9.55277832 3.30819336 -8.85555664 2.92888672 -8.13720703 2.53808594 C-5.22253926 0.99134732 -3.35082337 0 0 0 Z " fill="#6CC9D9" transform="translate(528,523)"/>
<path d="M0 0 C10.14427574 5.29748918 19.91784787 11.27917036 29.71284485 17.18913269 C35.77643721 20.83928821 41.91320966 24.35920338 48.05493164 27.87597656 C56.86233741 32.93986662 65.63823726 38.05328647 74.36743164 43.25097656 C75.36726074 43.84144775 76.36708984 44.43191895 77.3972168 45.0402832 C80.2682313 46.75869183 83.10378068 48.52235113 85.92993164 50.31347656 C86.89302246 50.90660645 87.85611328 51.49973633 88.84838867 52.11083984 C95.89820902 56.76869253 101.51940339 61.99056762 103.92993164 70.31347656 C105.19661198 78.90623483 104.76956258 87.69462395 104.64868164 96.35253906 C104.63814967 98.88649466 104.6305873 101.42046419 104.62585449 103.95443726 C104.60916433 109.2415904 104.57132252 114.52810352 104.51293945 119.81494141 C104.43058943 127.27569097 104.39451197 134.73614988 104.36742306 142.19727635 C104.32636264 152.73566188 104.26436339 163.27411306 104.15454102 173.81201172 C104.14713898 174.85195282 104.13973694 175.89189392 104.1321106 176.96334839 C104.12061981 177.90796936 104.10912903 178.85259033 104.09729004 179.82583618 C104.0891201 180.64908197 104.08095016 181.47232777 104.07253265 182.3205204 C103.92993164 184.31347656 103.92993164 184.31347656 102.92993164 186.31347656 C98.58187203 185.00320746 94.92003104 183.31444941 91.01977539 180.99707031 C90.46378159 180.66900391 89.90778778 180.3409375 89.33494568 180.00292969 C87.50929531 178.92416134 85.68843618 177.83756556 83.86743164 176.75097656 C82.57497832 175.98548822 81.28216563 175.22060635 79.98901367 174.45629883 C77.30274867 172.86801987 74.61804756 171.27714305 71.93432617 169.68457031 C68.13700578 167.43335504 64.33049229 165.19817518 60.51977539 162.96972656 C59.92164032 162.61993744 59.32350525 162.27014832 58.70724487 161.90975952 C57.50607014 161.20743154 56.30486786 160.50515065 55.1036377 159.80291748 C45.08759407 153.94521433 35.09490737 148.0491175 25.11743164 142.12597656 C14.81848481 136.01237175 4.48747915 129.95645208 -5.86303711 123.93066406 C-12.66907037 119.96749133 -19.46397846 115.98542275 -26.25756836 112.00097656 C-26.86204803 111.64645416 -27.46652771 111.29193176 -28.08932495 110.92666626 C-30.55043617 109.48320107 -33.01152797 108.0397028 -35.47254944 106.59608459 C-39.84263556 104.03279038 -44.21390237 101.47151803 -48.58569336 98.91113281 C-60.28526276 92.05845 -71.9803975 85.19886313 -83.64550781 78.28759766 C-88.99792917 75.11928154 -94.36194482 71.97154884 -99.73413086 68.83691406 C-101.06617544 68.05894209 -102.39820669 67.2809473 -103.73022461 66.50292969 C-106.32762928 64.98592061 -108.92686947 63.47212058 -111.52709961 61.95996094 C-112.72118151 61.26281773 -113.91519518 60.56555766 -115.10913086 59.86816406 C-116.16310059 59.25440918 -117.21707031 58.6406543 -118.30297852 58.00830078 C-120.67765045 56.55382993 -122.88201761 55.03148701 -125.07006836 53.31347656 C-123.83994565 49.62310844 -122.90423409 49.34177895 -119.60131836 47.45019531 C-118.6505542 46.90032959 -117.69979004 46.35046387 -116.72021484 45.78393555 C-115.6806665 45.19555908 -114.64111816 44.60718262 -113.57006836 44.00097656 C-112.4950708 43.38359619 -111.42007324 42.76621582 -110.3125 42.13012695 C-100.65656063 36.60093296 -90.94727091 31.16487153 -81.22631836 25.75097656 C-76.25451842 22.98052703 -71.30057684 20.18004915 -66.35253906 17.36743164 C-57.22163806 12.17943752 -48.04800421 7.07704676 -38.82006836 2.06347656 C-37.78938232 1.50200928 -36.75869629 0.94054199 -35.69677734 0.36206055 C-34.74230713 -0.15412842 -33.78783691 -0.67031738 -32.80444336 -1.20214844 C-31.53938965 -1.88712402 -31.53938965 -1.88712402 -30.2487793 -2.5859375 C-19.87853361 -7.82451522 -9.71878394 -4.83997233 0 0 Z " fill="#61B4D4" transform="translate(423.070068359375,289.6865234375)"/>
<path d="M0 0 C3.8858851 1.25825667 7.29981906 2.57618627 10.81640625 4.66015625 C11.73010986 5.19753418 12.64381348 5.73491211 13.58520508 6.28857422 C14.5677124 6.87396973 15.55021973 7.45936523 16.5625 8.0625 C18.72394116 9.3372687 20.88540027 10.61200696 23.046875 11.88671875 C24.18189453 12.55880371 25.31691406 13.23088867 26.48632812 13.92333984 C30.01022207 16.00857646 33.54305878 18.07830531 37.078125 20.14453125 C49.01186696 27.12154261 60.92554779 34.13104066 72.8125 41.1875 C83.11145736 47.30108731 93.44245232 53.35702438 103.79296875 59.3828125 C113.68392263 65.14234338 123.55276358 70.93969672 133.42514038 76.73098755 C137.72870252 79.25524045 142.0339119 81.77666695 146.33984375 84.296875 C160.44824855 92.55579556 174.53255157 100.85354743 188.58984375 109.19921875 C192.78542962 111.68945702 196.98573813 114.17135934 201.19140625 116.64453125 C219.59568747 127.47084702 219.59568747 127.47084702 228 133 C226.58735865 136.4755241 225.13798692 137.8512964 221.90625 139.70703125 C221.05458252 140.20315918 220.20291504 140.69928711 219.32543945 141.21044922 C218.39304443 141.73912598 217.46064941 142.26780273 216.5 142.8125 C215.52313232 143.37727051 214.54626465 143.94204102 213.53979492 144.52392578 C211.44235431 145.73510288 209.34223955 146.94165853 207.23974609 148.14404297 C204.05401853 149.96905434 200.87918259 151.81166477 197.70703125 153.66015625 C178.66496734 164.73768648 159.48110114 175.58577945 140 185.875 C139.22277588 186.28596924 138.44555176 186.69693848 137.64477539 187.12036133 C129.32556158 191.47173156 121.21927899 192.6450996 111.97265625 190.19921875 C97.45996879 184.40608837 84.00998274 175.26251603 70.63452148 167.29663086 C62.63385404 162.53566665 54.58108397 157.87357421 46.5 153.25 C35.8159554 147.12235076 25.27311045 140.79792202 15 134 C14.04335449 133.38402954 14.04335449 133.38402954 13.06738281 132.75561523 C9.07455131 130.08016448 6.61478337 127.51759496 4.125 123.3125 C3.55007812 122.35988281 2.97515625 121.40726563 2.3828125 120.42578125 C0.44382831 117.02434289 -0.12446888 115.25818013 -0.12025452 111.35568237 C-0.12162918 110.37689117 -0.12300385 109.39809998 -0.12442017 108.38964844 C-0.12082489 107.31215332 -0.11722961 106.2346582 -0.11352539 105.12451172 C-0.11367142 103.99280548 -0.11381744 102.86109924 -0.1139679 101.69509888 C-0.11326907 97.93994251 -0.10547807 94.18483524 -0.09765625 90.4296875 C-0.09579196 87.83179756 -0.09436811 85.23390726 -0.09336853 82.63601685 C-0.08993546 76.48786217 -0.0820473 70.33972787 -0.07201904 64.19158089 C-0.06085067 57.19287932 -0.05534562 50.19417692 -0.05032361 43.19546866 C-0.0398645 28.79696958 -0.02226956 14.39848542 0 0 Z " fill="#6DCCD8" transform="translate(153,440)"/>
<path d="M0 0 C3.32686916 0.83171729 5.42380924 1.62767008 8.359375 3.23046875 C9.21499023 3.69622314 10.07060547 4.16197754 10.95214844 4.6418457 C11.87543945 5.15191162 12.79873047 5.66197754 13.75 6.1875 C14.72227539 6.72141357 15.69455078 7.25532715 16.69628906 7.80541992 C25.8092385 12.83910777 34.79886215 18.07630913 43.7734375 23.3515625 C49.17271981 26.52387676 54.59736636 29.65017003 60.02905273 32.76660156 C68.78948158 37.79593788 77.53796923 42.84415037 86.1875 48.0625 C86.8872998 48.47910889 87.58709961 48.89571777 88.30810547 49.32495117 C94.12327648 52.87056036 100.17610136 56.9145955 103.8125 62.8125 C104.19019531 63.39644531 104.56789063 63.98039062 104.95703125 64.58203125 C108.1082642 71.88769865 108.29752187 79.46881708 108.29052734 87.31201172 C108.29724457 88.40756378 108.30396179 89.50311584 108.31088257 90.63186646 C108.32978425 94.23118705 108.33378261 97.83032045 108.3359375 101.4296875 C108.34237003 103.94638138 108.34909873 106.46307451 108.35610962 108.97976685 C108.36806221 114.24677738 108.37187849 119.51374088 108.37060547 124.78076172 C108.36940452 130.84354078 108.39050985 136.90596362 108.4220928 142.96865261 C108.45153254 148.83180887 108.45857796 154.69482559 108.45738602 160.55804825 C108.45973738 163.03862082 108.46853452 165.51919637 108.48405075 167.99972153 C108.50376607 171.47651059 108.49785047 174.95239387 108.48583984 178.42919922 C108.49707886 179.44149597 108.50831787 180.45379272 108.51989746 181.49676514 C108.43375085 191.36867081 105.87861181 200.02716226 98.95068359 207.25488281 C91.78446462 213.66591325 82.83937489 218.12209909 74.5625 222.9375 C73.27473374 223.68922234 71.98705628 224.44109683 70.69946289 225.19311523 C59.28669557 231.85333161 47.84823723 238.46899266 36.38867188 245.04833984 C33.34956885 246.79867051 30.31576409 248.55766624 27.28404236 250.32072449 C24.712062 251.81493827 22.13674084 253.30333014 19.56082153 254.79074097 C18.32393683 255.50663698 17.08845044 256.22495505 15.85446167 256.9458313 C14.13984001 257.94697401 12.41963408 258.938534 10.69921875 259.9296875 C9.71783936 260.49929199 8.73645996 261.06889648 7.7253418 261.65576172 C5 263 5 263 0 264 C0 176.88 0 89.76 0 0 Z " fill="#4793C3" transform="translate(554,365)"/>
<path d="M0 0 C0 86.46 0 172.92 0 262 C-4.0141586 261.19716828 -6.05417446 260.64056727 -9.45703125 258.76953125 C-10.30942383 258.30377686 -11.16181641 257.83802246 -12.04003906 257.3581543 C-13.41240723 256.59305542 -13.41240723 256.59305542 -14.8125 255.8125 C-15.78026367 255.27858643 -16.74802734 254.74467285 -17.74511719 254.19458008 C-26.83527853 249.15089837 -35.81198789 243.91639951 -44.7734375 238.6484375 C-50.17271981 235.47612324 -55.59736636 232.34982997 -61.02905273 229.23339844 C-69.78948158 224.20406212 -78.53796923 219.15584963 -87.1875 213.9375 C-87.8872998 213.52089111 -88.58709961 213.10428223 -89.30810547 212.67504883 C-91.24146776 211.49624478 -93.1268197 210.27203645 -95 209 C-95.60279785 208.59797363 -96.2055957 208.19594727 -96.82666016 207.78173828 C-102.49777163 203.52724225 -106.2485676 197.87702532 -108 191 C-109.11597887 182.33804467 -108.74748291 173.51758114 -108.65625 164.8046875 C-108.65012514 162.24505051 -108.64638026 159.68540683 -108.64489746 157.12576294 C-108.63572368 151.77806004 -108.60779436 146.43097629 -108.5625 141.08349609 C-108.50470343 134.24664252 -108.48403967 127.41020489 -108.4751358 120.57313347 C-108.46628601 114.02526308 -108.43573819 107.47749117 -108.40625 100.9296875 C-108.40248856 99.6900613 -108.39872711 98.4504351 -108.39485168 97.17324448 C-108.38102336 93.64642266 -108.35371276 90.11996524 -108.32226562 86.59326172 C-108.32002991 85.56338135 -108.31779419 84.53350098 -108.31549072 83.47241211 C-108.21244218 74.69774685 -107.88083821 65.93637327 -102 59 C-96.34689052 53.52607455 -90.42189212 49.04328791 -83.6875 45 C-82.79651611 44.45657959 -81.90553223 43.91315918 -80.98754883 43.35327148 C-71.11227258 37.37757128 -61.06683676 31.69341515 -51.02734375 26 C-44.40232886 22.24282775 -37.8218635 18.41190712 -31.25 14.5625 C-29.3022811 13.42674412 -27.35437117 12.29131575 -25.40625 11.15625 C-21.96084783 9.1484626 -18.5245331 7.12639072 -15.09375 5.09375 C-13.646211 4.24935225 -12.19832131 3.40555522 -10.75 2.5625 C-10.11223633 2.17843994 -9.47447266 1.79437988 -8.81738281 1.39868164 C-5.12159112 -0.73001691 -4.35096424 -1.08774106 0 0 Z " fill="#57A8CE" transform="translate(261,211)"/>
<path d="M0 0 C10.1929933 9.78253719 13.10581101 21.12931017 13.87524414 34.83325195 C13.91720696 35.56927045 13.95916979 36.30528894 14.00240421 37.06361103 C14.43730858 45.33961278 14.51056419 53.61531037 14.55792046 61.90111351 C14.57469889 64.73339419 14.59793448 67.56556086 14.62281799 70.39778137 C14.69264105 78.43659546 14.75367164 86.47545028 14.80493164 94.5144043 C14.83696701 99.46836818 14.87827683 104.42218702 14.92512703 109.37603188 C14.94096975 111.24283538 14.95337117 113.10967182 14.96203423 114.97652245 C15.02572569 128.49008077 15.35717205 141.76030481 19.828125 154.671875 C21.43170934 159.50692477 22.92689508 164.33007029 24.328125 169.234375 C8.488125 169.234375 -7.351875 169.234375 -23.671875 169.234375 C-28.671875 154.234375 -28.671875 154.234375 -28.671875 151.234375 C-31.42456112 153.04535271 -34.15529174 154.85214124 -36.8046875 156.8125 C-56.81718363 171.47512092 -77.78097484 175.84792378 -102.234375 172.546875 C-117.54746576 169.42309186 -130.62401145 160.36723488 -139.484375 147.484375 C-146.65184261 134.71732331 -147.6783144 119.80763432 -144.9765625 105.5703125 C-144.07516354 102.63887219 -143.01722672 99.98814181 -141.671875 97.234375 C-141.259375 96.37972656 -140.846875 95.52507812 -140.421875 94.64453125 C-133.10072996 81.14617008 -121.5886585 73.19257543 -107.125 68.78686523 C-105.45513401 68.30274885 -103.78313278 67.82595362 -102.109375 67.35546875 C-101.20072189 67.09819504 -100.29206879 66.84092133 -99.35588074 66.57585144 C-88.98424139 63.69114831 -78.49587224 61.35708429 -67.984375 59.046875 C-65.08924306 58.40747573 -62.19458073 57.76613863 -59.30082703 57.12052917 C-57.52629128 56.72488576 -55.75097023 56.33273898 -53.97468567 55.94502258 C-48.83107861 54.80144972 -43.82386609 53.42028118 -38.80558777 51.81083679 C-36.671875 51.234375 -36.671875 51.234375 -33.671875 51.234375 C-33.92867063 48.6905877 -34.20180042 46.15032126 -34.484375 43.609375 C-34.55462891 42.89652344 -34.62488281 42.18367188 -34.69726562 41.44921875 C-35.34695952 35.78388798 -36.72083932 31.30365526 -40.734375 27.046875 C-48.15448066 22.46851194 -56.1869839 21.73135493 -64.734375 21.796875 C-65.66314453 21.77689453 -66.59191406 21.75691406 -67.54882812 21.73632812 C-76.07283419 21.74230988 -83.5192783 24.09282425 -89.671875 30.234375 C-91.75103372 33.46052325 -91.75103372 33.46052325 -93.484375 36.984375 C-94.08894531 38.15484375 -94.69351562 39.3253125 -95.31640625 40.53125 C-95.76371094 41.42328125 -96.21101563 42.3153125 -96.671875 43.234375 C-106.73475117 42.21592681 -116.61584973 40.58168755 -126.546875 38.671875 C-127.70622559 38.44991455 -128.86557617 38.2279541 -130.06005859 37.99926758 C-138.40751782 36.36655359 -138.40751782 36.36655359 -140.671875 35.234375 C-140.15140104 29.66096637 -138.702913 25.39598825 -136.171875 20.421875 C-135.81730225 19.72191406 -135.46272949 19.02195312 -135.09741211 18.30078125 C-131.80852883 12.06664009 -127.77170652 7.10637899 -122.671875 2.234375 C-121.96289062 1.51765625 -121.25390625 0.8009375 -120.5234375 0.0625 C-93.31726965 -26.06327851 -27.975829 -23.40116514 0 0 Z M-40.92456055 84.18066406 C-41.77942551 84.38798157 -42.63429047 84.59529907 -43.51506042 84.80889893 C-44.43692642 85.03696228 -45.35879242 85.26502563 -46.30859375 85.5 C-47.2620015 85.7346698 -48.21540924 85.9693396 -49.19770813 86.21112061 C-51.21814697 86.71023796 -53.23808868 87.21137134 -55.25756836 87.71435547 C-58.32769014 88.47650927 -61.40097927 89.22479636 -64.47460938 89.97265625 C-66.44031655 90.4600818 -68.40581821 90.94833703 -70.37109375 91.4375 C-71.28283859 91.65746643 -72.19458344 91.87743286 -73.13395691 92.10406494 C-82.57388566 94.48865686 -89.33162105 97.65404849 -95.421875 105.484375 C-97.86997472 110.87019439 -98.26898528 116.08868457 -96.671875 121.796875 C-94.20859266 128.17242928 -89.86819062 133.27746896 -83.921875 136.671875 C-73.95190357 140.96663192 -64.30563646 139.02983694 -54.453125 135.421875 C-46.20362393 131.75543008 -39.44403326 125.40738457 -35.671875 117.234375 C-32.42008013 106.68309654 -33.54383052 94.1892919 -33.671875 83.234375 C-36.37519862 83.234375 -38.32603841 83.54614628 -40.92456055 84.18066406 Z " fill="#78B6CD" transform="translate(1192.671875,307.765625)"/>
<path d="M0 0 C2.2559215 -0.00962013 4.51089658 -0.04064821 6.76660156 -0.07226562 C30.83656427 -0.24986345 52.82730372 8.02381605 70.35644531 24.68945312 C88.57598653 43.78633982 96.96414459 66.05848317 96.97753906 92.36523438 C96.98978516 93.60789062 97.00203125 94.85054688 97.01464844 96.13085938 C97.05529019 122.08739424 88.34013843 144.84474245 70.41894531 163.74023438 C49.27635456 183.7371675 23.08694098 190.11217022 -5.39111328 189.36767578 C-26.48578856 188.41397576 -51.65087965 179.00503668 -66.20996094 163.24023438 C-87.13838601 139.33652432 -92.05451082 110.34856817 -90.20996094 79.24023438 C-89.54417213 73.33989447 -88.09656379 67.85902983 -86.20996094 62.24023438 C-85.9956543 61.59844238 -85.78134766 60.95665039 -85.56054688 60.29541016 C-80.80965352 46.4334513 -73.53767935 34.62011298 -63.20996094 24.24023438 C-62.48550781 23.48097656 -61.76105469 22.72171875 -61.01464844 21.93945312 C-44.71759992 5.94624788 -22.20023703 0.05704558 0 0 Z M-28.28027344 53.33789062 C-38.89257746 65.99455625 -42.1049832 83.37659321 -40.96386719 99.49804688 C-39.54435214 115.02747194 -35.15070167 129.38616067 -23.56152344 140.41601562 C-12.57825253 148.93626066 -1.56910952 150.05026937 11.79003906 149.24023438 C21.00576555 148.02122294 28.73923728 142.77926839 34.86425781 135.91601562 C46.93671723 119.6535486 49.38001529 99.87926845 46.50878906 80.28710938 C44.12041533 65.97028479 37.62311128 53.88512133 25.79003906 45.24023438 C7.40039511 33.8106783 -13.58653616 38.45008512 -28.28027344 53.33789062 Z " fill="#78B6CD" transform="translate(1936.2099609375,291.759765625)"/>
<path d="M0 0 C2.2559215 -0.00962013 4.51089658 -0.04064821 6.76660156 -0.07226562 C31.72078005 -0.25638755 54.15193043 8.7464125 71.97363281 26.23242188 C89.33671944 44.20986711 96.96218089 66.98475596 97.03027344 91.67114258 C97.0399045 93.77336355 97.07095617 95.87457311 97.10253906 97.9765625 C97.30119635 123.11142219 87.44798292 145.49235042 70.28613281 163.73535156 C53.96467631 180.15269129 30.44007478 189.29879728 7.49267578 189.62060547 C-4.60484288 189.60070526 -15.63904085 188.86459409 -27.20996094 185.24023438 C-27.9026709 185.02592773 -28.59538086 184.81162109 -29.30908203 184.59082031 C-50.44666638 177.83819513 -68.62262361 164.2254696 -79.54199219 144.68554688 C-92.14062748 118.66213628 -94.50868341 86.68694317 -85.3112793 59.27636719 C-77.24243396 36.65647809 -61.76739737 18.8780515 -40.23730469 8.06835938 C-27.24201741 1.91757642 -14.27159934 0.0366722 0 0 Z M-28.28027344 53.33789062 C-38.89257746 65.99455625 -42.1049832 83.37659321 -40.96386719 99.49804688 C-39.7838658 112.40720421 -36.52268561 123.40137398 -29.20996094 134.24023438 C-28.61183594 135.14773438 -28.01371094 136.05523437 -27.39746094 136.99023438 C-19.74741449 144.85885358 -9.84259431 149.26400069 1.06738281 149.71289062 C12.73571383 149.85643776 22.76466571 146.92422197 31.79003906 139.24023438 C45.22704424 125.63314053 47.19885878 109.47902661 47.15576172 91.25463867 C46.93634672 75.25244097 43.66084269 62.37230123 32.54003906 50.42773438 C23.21357805 41.54090452 12.22620727 38.71134557 -0.42871094 38.93554688 C-11.51139732 39.82857326 -20.56223276 45.51791356 -28.28027344 53.33789062 Z " fill="#78B6CD" transform="translate(2539.2099609375,291.759765625)"/>
<path d="M0 0 C1.69858001 1.31918914 3.38738741 2.65113683 5.0625 4 C6.01189453 4.70382812 6.01189453 4.70382812 6.98046875 5.421875 C24.40406366 18.97799003 31.32789629 41.85032799 34.875 62.6875 C36.0625 73 36.0625 73 36.0625 95 C-3.5375 95 -43.1375 95 -83.9375 95 C-80.45969224 115.99970019 -80.45969224 115.99970019 -67.47265625 131.82421875 C-57.56153392 137.97954736 -48.38419413 139.1568317 -36.9375 138 C-29.28125442 136.11397412 -24.56524248 131.6825396 -20.375 125.125 C-18.15816535 121.45840152 -16.05881092 117.72238491 -13.9375 114 C-2.8621833 115.49482802 8.18222565 117.1122912 19.1875 119.0625 C20.12867676 119.22459961 21.06985352 119.38669922 22.03955078 119.55371094 C23.35415283 119.79202637 23.35415283 119.79202637 24.6953125 120.03515625 C25.46762207 120.1731665 26.23993164 120.31117676 27.03564453 120.45336914 C29.0625 121 29.0625 121 32.0625 123 C30.82333692 135.31418309 23.50177124 144.44290299 15.0625 153 C14.43730469 153.69738281 13.81210938 154.39476562 13.16796875 155.11328125 C0.43514676 168.91834088 -17.87937813 174.98950756 -36.23364258 176.22119141 C-61.56875452 177.08436666 -83.64313739 174.34177807 -103.9375 158 C-104.57042969 157.53078125 -105.20335937 157.0615625 -105.85546875 156.578125 C-123.45820708 142.88263065 -130.65403213 119.52485044 -133.40234375 98.328125 C-136.51528952 70.49110746 -132.57415735 39.28287475 -115 16.5625 C-113.66819974 15.02204245 -112.31422359 13.50044445 -110.9375 12 C-110.27363281 11.24460937 -109.60976562 10.48921875 -108.92578125 9.7109375 C-82.6927613 -18.51016714 -31.1052711 -22.1635651 0 0 Z M-67.9375 30 C-68.56398438 30.40605469 -69.19046875 30.81210937 -69.8359375 31.23046875 C-77.46829394 36.90630742 -80.26698804 45.77354632 -82.625 54.5625 C-82.91252479 56.80519339 -82.96848862 58.89524248 -82.95703125 61.15234375 C-82.95058594 62.42207031 -82.94414063 63.69179688 -82.9375 65 C-59.28417859 66.34339351 -35.61892192 66.09822554 -11.9375 66 C-12.88566193 53.08728318 -14.89323534 41.43747745 -24.75 32.32421875 C-33.09445563 25.54434855 -41.4528386 23.18772916 -52.17578125 23.48046875 C-58.20831313 24.31362217 -62.87304704 26.71516131 -67.9375 30 Z " fill="#78B6CD" transform="translate(1470.9375,305)"/>
<path d="M0 0 C2.00282227 0.00314681 4.00562612 -0.02113575 6.00830078 -0.0456543 C27.88579399 -0.05643139 46.52734123 7.14492874 62.61376953 22.06567383 C85.56864379 46.0185861 87.77001953 76.5799344 87.77001953 108.31567383 C48.17001953 108.31567383 8.57001953 108.31567383 -32.22998047 108.31567383 C-29.42258779 123.2884348 -26.86419289 136.76180272 -14.22998047 146.31567383 C-5.0037119 152.04637981 5.15753795 152.4126023 15.77001953 151.31567383 C22.76419477 149.40894879 27.90788825 145.40344008 31.77001953 139.31567383 C33.91158814 135.3779509 35.88676289 131.38270678 37.77001953 127.31567383 C53.2043079 128.96758648 68.47637558 131.70201397 83.77001953 134.31567383 C85.09732144 139.4660921 83.73719185 142.43607686 81.33251953 147.00317383 C80.96634521 147.7128833 80.6001709 148.42259277 80.22290039 149.15380859 C77.04510474 155.1345411 73.34978579 160.31558485 68.77001953 165.31567383 C68.10615234 166.08266602 67.44228516 166.8496582 66.75830078 167.63989258 C53.98683071 181.54450602 34.49977476 188.64309119 15.93798828 189.43676758 C-10.27712216 190.24487826 -33.50022007 187.53673343 -54.10107422 169.85083008 C-65.20403821 159.36384189 -72.59807623 146.85778181 -77.22998047 132.31567383 C-77.54539795 131.35854492 -77.54539795 131.35854492 -77.8671875 130.38208008 C-84.55281196 108.99655132 -84.30849028 79.55120327 -77.22998047 58.31567383 C-77.00503906 57.63827148 -76.78009766 56.96086914 -76.54833984 56.26293945 C-68.65350812 33.3614028 -53.8101356 16.43307337 -32.07763672 5.76879883 C-21.41884516 1.10472015 -11.60352842 -0.03795678 0 0 Z M-15.22998047 42.31567383 C-16.28185547 43.01692383 -17.33373047 43.71817383 -18.41748047 44.44067383 C-26.22405386 51.58191426 -29.88570101 61.02233397 -31.22998047 71.31567383 C-31.26980064 73.64866736 -31.2798016 75.98287244 -31.22998047 78.31567383 C-7.2356826 79.56402806 16.75138626 79.41862214 40.77001953 79.31567383 C40.47721434 77.10271683 40.17772524 74.89064366 39.87548828 72.67895508 C39.70944092 71.44701416 39.54339355 70.21507324 39.37231445 68.94580078 C37.64761854 58.55078515 33.55891688 49.67784577 25.01220703 43.23754883 C13.11774643 35.43478267 -3.17011232 33.70833255 -15.22998047 42.31567383 Z " fill="#77B6CD" transform="translate(2955.22998046875,291.684326171875)"/>
<path d="M0 0 C2.80607853 0.01607231 5.61071309 0.00007071 8.41674805 -0.01904297 C30.91132128 -0.04576861 51.09182489 3.75198872 68.06323242 19.57861328 C74.71508395 26.47770177 79.74022055 35.16682173 82.37573242 44.39111328 C81.93823242 46.60986328 81.93823242 46.60986328 81.37573242 48.39111328 C75.61209862 49.55973605 69.84635717 50.71707478 64.07836914 51.86401367 C62.11648526 52.25577401 60.15521316 52.65061107 58.19458008 53.04858398 C55.37630908 53.62008653 52.55602336 54.18048878 49.73510742 54.73876953 C48.85892761 54.91892105 47.9827478 55.09907257 47.08001709 55.28468323 C46.25946838 55.44492477 45.43891968 55.60516632 44.59350586 55.77026367 C43.87402771 55.91460342 43.15454956 56.05894318 42.41326904 56.20765686 C40.1199533 56.41414321 38.53328176 56.18720981 36.37573242 55.39111328 C35.17260742 53.31689453 35.17260742 53.31689453 34.12573242 50.70361328 C30.91465936 43.85071345 26.28545601 40.33598984 19.31323242 37.57861328 C7.17654439 34.08723727 -9.5941082 33.91762888 -21.37426758 39.14111328 C-24.9299086 41.60271091 -26.78654243 43.47595971 -28.62426758 47.39111328 C-28.62426758 51.81667276 -26.52417326 54.19881487 -23.62426758 57.39111328 C-16.19055196 61.60030412 -7.65503099 63.67398946 0.57885742 65.73095703 C1.70032166 66.02039688 2.82178589 66.30983673 3.97723389 66.60804749 C7.52463129 67.52335025 11.0747263 68.42742014 14.62573242 69.32861328 C71.63170913 83.79719485 71.63170913 83.79719485 84.05151367 104.47314453 C87.60734694 112.30856474 88.90918122 119.63017242 88.81323242 128.20361328 C88.80493408 129.16557617 88.79663574 130.12753906 88.78808594 131.11865234 C88.49540376 143.4967127 85.24001954 152.69015613 77.37573242 162.39111328 C76.84077148 163.08849609 76.30581055 163.78587891 75.75463867 164.50439453 C62.66266006 180.67314509 42.63195255 186.90762751 22.67382812 189.21020508 C-7.3323695 191.5723205 -37.01636589 188.81632745 -60.65942383 168.82470703 C-69.68298698 160.29762604 -77.24033996 149.47974943 -80.62426758 137.39111328 C-80.62426758 136.07111328 -80.62426758 134.75111328 -80.62426758 133.39111328 C-70.99586116 131.2622194 -61.31243137 129.66441624 -51.56176758 128.20361328 C-50.38445068 128.02475586 -49.20713379 127.84589844 -47.99414062 127.66162109 C-46.87048096 127.49629883 -45.74682129 127.33097656 -44.58911133 127.16064453 C-43.58485107 127.01216064 -42.58059082 126.86367676 -41.54589844 126.71069336 C-38.54812276 126.38278425 -35.63742099 126.33595194 -32.62426758 126.39111328 C-32.13958008 127.39271484 -31.65489258 128.39431641 -31.15551758 129.42626953 C-25.74178872 140.43941566 -25.74178872 140.43941566 -16.62426758 148.39111328 C-16.04652588 148.7354541 -15.46878418 149.07979492 -14.87353516 149.43457031 C-7.83621511 153.12292748 -0.99149494 152.98673016 6.81323242 152.89111328 C8.07200195 152.90658203 9.33077148 152.92205078 10.62768555 152.93798828 C21.27294501 152.89356362 29.63845208 150.93000182 37.37573242 143.39111328 C38.70851474 140.72554865 38.65532332 138.55464331 38.75073242 135.57861328 C38.82420898 134.02207031 38.82420898 134.02207031 38.89916992 132.43408203 C38.15794914 128.12504482 36.91827516 126.96671963 33.37573242 124.39111328 C29.6436738 122.94613476 25.82446996 122.01645103 21.93823242 121.07861328 C19.59315438 120.47845428 17.24810339 119.87818959 14.90307617 119.27783203 C13.06011963 118.81642822 13.06011963 118.81642822 11.17993164 118.34570312 C-55.66557114 101.57212362 -55.66557114 101.57212362 -68.37817383 80.82861328 C-75.4785564 66.93946367 -76.14619756 52.03620435 -71.65551758 37.18798828 C-66.05250901 22.42330353 -55.018156 12.5333943 -40.81176758 6.01611328 C-27.73532014 0.34799538 -14.02081803 -0.0952883 0 0 Z " fill="#78B6CD" transform="translate(2134.624267578125,291.60888671875)"/>
<path d="M0 0 C0.73375351 -0.00570007 1.46750702 -0.01140015 2.22349548 -0.01727295 C3.77064601 -0.02666721 5.31781604 -0.03323458 6.86499023 -0.03710938 C9.1844563 -0.04674871 11.50300924 -0.077797 13.82226562 -0.109375 C35.91169534 -0.26696061 54.69400356 5.7765139 70.77734375 21.265625 C79.13903957 29.62488975 88.83507135 42.80393022 89.24609375 54.98046875 C89.21515625 55.71394531 89.18421875 56.44742188 89.15234375 57.203125 C85.03914347 59.04544941 80.92151408 59.94058398 76.5078125 60.7109375 C75.4148864 60.90645706 75.4148864 60.90645706 74.29988098 61.10592651 C72.76314468 61.37915741 71.22591444 61.64962306 69.68823242 61.91748047 C67.35620136 62.32526467 65.02677255 62.74603333 62.69726562 63.16796875 C61.19675431 63.4330837 59.69610718 63.69743139 58.1953125 63.9609375 C57.16521309 64.14839035 57.16521309 64.14839035 56.11430359 64.33963013 C51.379358 65.15024345 46.93443976 65.30928252 42.15234375 65.203125 C41.72824219 64.11773437 41.30414062 63.03234375 40.8671875 61.9140625 C36.70377713 50.85130278 36.70377713 50.85130278 28.15234375 43.203125 C27.45882812 42.79835938 26.7653125 42.39359375 26.05078125 41.9765625 C17.02622498 37.53974052 5.58718944 37.70504673 -3.84765625 40.828125 C-12.90898618 44.68429999 -19.72897455 50.68766029 -23.8984375 59.71875 C-31.43081536 79.43312169 -30.96386518 107.78392592 -22.91015625 127.265625 C-18.56815868 135.9658823 -12.99609719 142.73284189 -3.91015625 146.640625 C4.67005138 149.40495968 15.8414378 150.01604557 24.27734375 146.578125 C26.30840039 145.47243803 26.30840039 145.47243803 28.15234375 144.203125 C28.76078125 143.83703125 29.36921875 143.4709375 29.99609375 143.09375 C38.16642415 137.28851524 42.04289405 125.34856529 45.15234375 116.203125 C50.84295089 116.07203458 56.10287056 116.50670616 61.703125 117.48046875 C62.87405952 117.67667564 62.87405952 117.67667564 64.06864929 117.87684631 C65.70359211 118.15206126 67.33801619 118.43037447 68.97192383 118.71166992 C71.47428968 119.14225036 73.97814311 119.56312469 76.48242188 119.98242188 C78.07691771 120.25204417 79.67132222 120.52220724 81.265625 120.79296875 C82.38593864 120.98209084 82.38593864 120.98209084 83.52888489 121.17503357 C86.49760427 121.68804966 89.28903909 122.24869011 92.15234375 123.203125 C90.49280739 143.73396056 78.35977796 161.10360893 63.15234375 174.203125 C43.05041908 189.62038412 15.0212271 191.89640624 -9.40625 188.703125 C-27.87124321 185.32139888 -42.71725388 177.29574204 -55.84765625 164.203125 C-56.50636719 163.56761719 -57.16507813 162.93210937 -57.84375 162.27734375 C-74.79699648 144.61934338 -79.26461324 119.02601619 -79.16015625 95.515625 C-79.1552417 94.19997559 -79.15032715 92.88432617 -79.14526367 91.52880859 C-79.02486008 81.48776633 -78.29998775 71.9454605 -75.84765625 62.203125 C-75.6760498 61.51089844 -75.50444336 60.81867188 -75.32763672 60.10546875 C-70.10660697 39.83723529 -57.75326438 22.26349096 -39.84765625 11.203125 C-27.2886584 4.14827853 -14.46992054 0.0897043 0 0 Z " fill="#78B6CD" transform="translate(2333.84765625,291.796875)"/>
<path d="M0 0 C15.84 0 31.68 0 48 0 C48 82.5 48 165 48 250 C32.16 250 16.32 250 0 250 C0 167.5 0 85 0 0 Z " fill="#76B5CD" transform="translate(1254,227)"/>
<path d="M0 0 C15.84 0 31.68 0 48 0 C48 59.73 48 119.46 48 181 C32.16 181 16.32 181 0 181 C0 121.27 0 61.54 0 0 Z " fill="#76B5CD" transform="translate(1546,296)"/>
<path d="M0 0 C3.17881465 0.50861034 6.10384101 0.54856613 9.3203125 0.53125 C10.40586426 0.52673828 11.49141602 0.52222656 12.60986328 0.51757812 C13.4398584 0.51177734 14.26985352 0.50597656 15.125 0.5 C20.81935598 15.3900896 26.21173446 30.33364978 31.125 45.5 C32.75921461 43.04867808 33.65353574 41.33257401 34.60546875 38.62695312 C35.01599487 37.47060364 35.01599487 37.47060364 35.43481445 36.29089355 C35.72445068 35.46271118 36.01408691 34.63452881 36.3125 33.78125 C36.61567139 32.92696411 36.91884277 32.07267822 37.23120117 31.19250488 C38.19973215 28.4630425 39.16299458 25.73176864 40.125 23 C41.39114786 19.40457013 42.66263749 15.81109776 43.9375 12.21875 C44.22713623 11.39056763 44.51677246 10.56238525 44.81518555 9.70910645 C45.22571167 8.55275696 45.22571167 8.55275696 45.64453125 7.37304688 C45.88276611 6.69592651 46.12100098 6.01880615 46.36645508 5.32116699 C47.125 3.5 47.125 3.5 49.125 0.5 C51.7265625 0.20703125 51.7265625 0.20703125 54.75 0.3125 C55.75289062 0.33957031 56.75578125 0.36664062 57.7890625 0.39453125 C58.55992188 0.42933594 59.33078125 0.46414063 60.125 0.5 C59.48995611 5.3035371 58.1401231 9.6479763 56.45703125 14.16796875 C56.04991158 15.27896942 56.04991158 15.27896942 55.63456726 16.41241455 C54.74212368 18.83993163 53.8407534 21.26398583 52.9375 23.6875 C52.6290918 24.51814972 52.32068359 25.34879944 52.00292969 26.20462036 C49.73323166 32.31181149 47.43712344 38.40875263 45.125 44.5 C44.8035199 45.34715576 44.48203979 46.19431152 44.15081787 47.06713867 C42.29696164 51.94064308 40.42131544 56.80494808 38.51669312 61.65884399 C37.92748519 63.1645214 37.34278193 64.67197025 36.7628479 66.1812439 C30.0306741 83.65521476 30.0306741 83.65521476 23.13574219 87.65356445 C20.3273479 88.83577706 17.90506548 88.69087099 14.875 88.625 C13.79734375 88.60695313 12.7196875 88.58890625 11.609375 88.5703125 C10.78953125 88.54710937 9.9696875 88.52390625 9.125 88.5 C6.99500003 84.70960634 6.95797544 81.84263862 7.125 77.5 C8.00542969 77.39945313 8.88585938 77.29890625 9.79296875 77.1953125 C16.6280484 76.17579642 16.6280484 76.17579642 22.20703125 72.42578125 C24.20263471 68.92385452 25.57730473 66.48544709 24.64212036 62.38034058 C22.72507697 56.17095552 20.53343569 50.11817474 18.1484375 44.07421875 C17.77772125 43.12360062 17.407005 42.17298248 17.02505493 41.19355774 C15.45549823 37.16897542 13.876918 33.14795141 12.29882812 29.12670898 C11.14120112 26.17300183 9.98843756 23.21742932 8.8359375 20.26171875 C8.4786557 19.35644943 8.1213739 18.45118011 7.75326538 17.51847839 C7.4226712 16.67021988 7.09207703 15.82196136 6.75146484 14.94799805 C6.4607309 14.20760788 6.16999695 13.46721771 5.87045288 12.70439148 C5.06554668 10.32418956 4.56798101 7.97097746 4.125 5.5 C3.465 5.5 2.805 5.5 2.125 5.5 C1.980625 6.469375 1.83625 7.43875 1.6875 8.4375 C1.125 11.5 1.125 11.5 0.125 12.5 C-1.79257545 12.44117867 -3.70927852 12.35279481 -5.625 12.25 C-10.70040029 12.1852316 -10.70040029 12.1852316 -15.0625 14.75 C-17.48836659 18.43062517 -17.97576448 21.46358705 -18.17211914 25.80957031 C-18.21208511 26.65013977 -18.25205109 27.49070923 -18.29322815 28.35675049 C-18.33181442 29.25480408 -18.3704007 30.15285767 -18.41015625 31.078125 C-18.45313339 32.0046991 -18.49611053 32.93127319 -18.54039001 33.88592529 C-18.67655686 36.84045768 -18.80709915 39.79520806 -18.9375 42.75 C-19.0289261 44.75522527 -19.12071863 46.76043387 -19.21289062 48.765625 C-19.43784343 53.67690013 -19.65775276 58.58837823 -19.875 63.5 C-25.32 63.995 -25.32 63.995 -30.875 64.5 C-30.875 43.38 -30.875 22.26 -30.875 0.5 C-27.905 0.5 -24.935 0.5 -21.875 0.5 C-21.545 2.48 -21.215 4.46 -20.875 6.5 C-20.41351562 5.9946875 -19.95203125 5.489375 -19.4765625 4.96875 C-13.15449148 -1.3283326 -8.50270324 -1.478731 0 0 Z " fill="#7EB9D0" transform="translate(1117.875,583.5)"/>
<path d="M0 0 C2.39169188 1.43569555 4.62169551 2.91950148 6.80859375 4.6484375 C7.13859375 2.9984375 7.46859375 1.3484375 7.80859375 -0.3515625 C11.43859375 -0.3515625 15.06859375 -0.3515625 18.80859375 -0.3515625 C18.70053479 7.68998785 18.58779502 15.73145375 18.46925449 23.77285576 C18.41434114 27.50772303 18.36097583 31.24259844 18.3112793 34.97753906 C18.26316458 38.58915357 18.21081245 42.2006851 18.155653 45.81219864 C18.13544047 47.18270904 18.11669589 48.55324198 18.09951973 49.92379379 C17.7994785 73.60801543 17.7994785 73.60801543 11.234375 80.23828125 C4.05392029 86.83784524 -3.55746926 88.81352332 -13.19140625 88.6484375 C-21.50135214 87.68288136 -27.74420274 85.14318014 -33.19140625 78.6484375 C-35.44109323 74.93061064 -35.35759556 71.96935959 -35.19140625 67.6484375 C-27.93891456 67.03381956 -27.93891456 67.03381956 -24.37890625 69.9609375 C-23.29609375 71.29125 -23.29609375 71.29125 -22.19140625 72.6484375 C-19.46387002 75.58578421 -17.58828814 76.52547964 -13.484375 76.88671875 C-8.67421299 77.0016786 -5.08192773 77.0390171 -0.62890625 75.0859375 C4.46159049 69.99544076 5.48949568 63.49222866 6.80859375 56.6484375 C6.26589844 56.99777344 5.72320313 57.34710937 5.1640625 57.70703125 C4.44863281 58.16207031 3.73320313 58.61710938 2.99609375 59.0859375 C1.93455078 59.76462891 1.93455078 59.76462891 0.8515625 60.45703125 C-5.05578394 63.90204208 -12.45058272 63.4779704 -18.95703125 62.03515625 C-27.02255596 59.22706712 -31.59432506 54.07364905 -35.35546875 46.56640625 C-37.63432891 41.25324761 -37.78617396 36.36608962 -37.69140625 30.6484375 C-37.706875 29.71515625 -37.72234375 28.781875 -37.73828125 27.8203125 C-37.68550461 18.37329315 -34.57866902 11.21675398 -28.08203125 4.37890625 C-20.50595774 -2.55539244 -9.53453994 -4.0378835 0 0 Z M-22.19140625 14.6484375 C-25.05700186 20.0836517 -25.68549214 24.49009376 -25.62890625 30.5859375 C-25.64888672 31.34583984 -25.66886719 32.10574219 -25.68945312 32.88867188 C-25.68460336 38.56775017 -24.35974891 42.9087466 -21.19140625 47.6484375 C-16.6335144 51.88076565 -13.66372584 53.01977704 -7.57421875 52.921875 C-3.7678819 52.48508225 -1.04652382 51.1920877 1.80859375 48.6484375 C7.73940858 40.8788898 7.50668278 31.98906536 6.80859375 22.6484375 C5.21529196 16.62120443 1.77139898 13.20871082 -3.19140625 9.6484375 C-10.26919253 6.10954436 -17.67393341 8.52528466 -22.19140625 14.6484375 Z " fill="#7DB9CF" transform="translate(1526.19140625,584.3515625)"/>
<path d="M0 0 C3.63 0 7.26 0 11 0 C11.06058594 1.72605469 11.12117187 3.45210937 11.18359375 5.23046875 C11.26809229 7.54948416 11.35273547 9.8684943 11.4375 12.1875 C11.47681641 13.31865234 11.51613281 14.44980469 11.55664062 15.61523438 C11.61948242 17.31196289 11.61948242 17.31196289 11.68359375 19.04296875 C11.72025146 20.06414795 11.75690918 21.08532715 11.79467773 22.13745117 C12.0938836 27.76615034 12.55118416 33.3815065 13 39 C13.44862396 38.51140503 13.89724792 38.02281006 14.35946655 37.51940918 C19.07444836 32.40353679 23.85377312 27.35435502 28.67382812 22.33740234 C30.45936081 20.46181839 32.22835394 18.57033375 33.97949219 16.66259766 C50.14549321 -0.91034202 50.14549321 -0.91034202 59.84780884 -1.32824707 C63.33425044 -1.17187039 66.58518844 -0.72874227 70 0 C66.82875052 3.92233489 63.61108068 7.43039972 59.8125 10.75 C51.12897051 18.38990037 43.13353905 26.78505041 35 35 C35.35078613 35.47606689 35.70157227 35.95213379 36.06298828 36.44262695 C36.56040527 37.11769287 37.05782227 37.79275879 37.5703125 38.48828125 C38.13024902 39.24818359 38.69018555 40.00808594 39.26708984 40.79101562 C40.52006382 42.49150383 41.7729925 44.1920254 43.02587891 45.89257812 C46.87869766 51.12188385 50.73307217 56.35003693 54.58886719 61.57714844 C56.34201907 63.95526207 58.09310301 66.33488576 59.84375 68.71484375 C61.7733753 71.33800045 63.70970282 73.95578702 65.65625 76.56640625 C66.3884375 77.55511719 67.120625 78.54382813 67.875 79.5625 C68.49117187 80.38878906 69.10734375 81.21507812 69.7421875 82.06640625 C71 84 71 84 71 86 C68.4732489 86.24569849 65.97052797 86.42190021 63.4375 86.5625 C62.73302734 86.63791016 62.02855469 86.71332031 61.30273438 86.79101562 C57.79509664 86.93649369 55.79742104 86.73296486 53.15454102 84.30371094 C51.29703799 81.94324766 49.64011375 79.51603795 48 77 C46.84835031 75.37526127 45.69340065 73.75285658 44.53515625 72.1328125 C43.3757921 70.4647997 42.21827102 68.7955045 41.0625 67.125 C39.83899333 65.37208049 38.61503778 63.61947421 37.390625 61.8671875 C35.39269103 59.00303964 33.40305317 56.13356142 31.421875 53.2578125 C30.37773438 51.76894531 30.37773438 51.76894531 29.3125 50.25 C28.73113281 49.40953125 28.14976562 48.5690625 27.55078125 47.703125 C27.03902344 47.14109375 26.52726563 46.5790625 26 46 C21.50611535 46 19.16013572 48.11153518 15.8581543 51.02661133 C8.18619924 59.49538384 10.64315348 75.27460403 11 86 C7.37 86 3.74 86 0 86 C0 57.62 0 29.24 0 0 Z " fill="#7CB8CF" transform="translate(807,561)"/>
<path d="M0 0 C5.81171173 4.16087667 11.18143814 9.6258919 13.125 16.6875 C13.4140625 18.62109375 13.4140625 18.62109375 13.5390625 21.55859375 C9.4184879 23.5564481 6.08711885 23.7369489 1.5390625 23.55859375 C1.0234375 22.36234375 0.5078125 21.16609375 -0.0234375 19.93359375 C-2.69373371 14.59300133 -6.45121792 11.01121874 -11.82421875 8.41796875 C-18.1542551 6.35484579 -25.20701608 6.68025715 -31.3359375 9.24609375 C-38.82225907 13.14493753 -42.89510117 17.54528952 -45.4609375 25.55859375 C-48.12951969 37.94717731 -47.63955168 51.51089236 -41.7734375 62.80859375 C-37.41367907 67.99317134 -32.37204407 72.20257625 -25.45703125 72.83203125 C-17.42363457 73.06130492 -10.94211397 72.67206948 -4.4609375 67.55859375 C-2.34276925 65.06693207 -0.87091311 62.49890873 0.5390625 59.55859375 C1.1371875 58.40359375 1.7353125 57.24859375 2.3515625 56.05859375 C2.7434375 55.23359375 3.1353125 54.40859375 3.5390625 53.55859375 C8.08711885 53.3802386 11.4184879 53.5607394 15.5390625 55.55859375 C15.37183813 62.91646612 11.91119692 68.77757539 7.5390625 74.55859375 C-1.17413143 82.56565329 -8.69366661 84.91003044 -20.2734375 84.87109375 C-21.22025391 84.88720703 -22.16707031 84.90332031 -23.14257812 84.91992188 C-34.44205806 84.92769853 -41.8240838 81.5223703 -50.1171875 74.0703125 C-59.57441103 64.3477077 -60.75799253 50.53604487 -60.77783203 37.71972656 C-60.60408577 25.27434617 -57.27766045 14.80766699 -48.61328125 5.59375 C-36.17926118 -6.09867841 -14.914467 -8.73561638 0 0 Z " fill="#7FBAD0" transform="translate(2085.4609375,563.44140625)"/>
<path d="M0 0 C5.81171173 4.16087667 11.18143814 9.6258919 13.125 16.6875 C13.4140625 18.62109375 13.4140625 18.62109375 13.5390625 21.55859375 C9.4184879 23.5564481 6.08711885 23.7369489 1.5390625 23.55859375 C1.0234375 22.36234375 0.5078125 21.16609375 -0.0234375 19.93359375 C-2.69373371 14.59300133 -6.45121792 11.01121874 -11.82421875 8.41796875 C-18.1542551 6.35484579 -25.20701608 6.68025715 -31.3359375 9.24609375 C-38.82225907 13.14493753 -42.89510117 17.54528952 -45.4609375 25.55859375 C-48.12951969 37.94717731 -47.63955168 51.51089236 -41.7734375 62.80859375 C-37.41367907 67.99317134 -32.37204407 72.20257625 -25.45703125 72.83203125 C-17.42363457 73.06130492 -10.94211397 72.67206948 -4.4609375 67.55859375 C-2.34276925 65.06693207 -0.87091311 62.49890873 0.5390625 59.55859375 C1.1371875 58.40359375 1.7353125 57.24859375 2.3515625 56.05859375 C2.7434375 55.23359375 3.1353125 54.40859375 3.5390625 53.55859375 C8.08711885 53.3802386 11.4184879 53.5607394 15.5390625 55.55859375 C15.37183813 62.91646612 11.91119692 68.77757539 7.5390625 74.55859375 C-1.17413143 82.56565329 -8.69366661 84.91003044 -20.2734375 84.87109375 C-21.22025391 84.88720703 -22.16707031 84.90332031 -23.14257812 84.91992188 C-34.44205806 84.92769853 -41.8240838 81.5223703 -50.1171875 74.0703125 C-59.57441103 64.3477077 -60.75799253 50.53604487 -60.77783203 37.71972656 C-60.60408577 25.27434617 -57.27766045 14.80766699 -48.61328125 5.59375 C-36.17926118 -6.09867841 -14.914467 -8.73561638 0 0 Z " fill="#7FBAD0" transform="translate(1805.4609375,563.44140625)"/>
<path d="M0 0 C5.81171173 4.16087667 11.18143814 9.6258919 13.125 16.6875 C13.4140625 18.62109375 13.4140625 18.62109375 13.5390625 21.55859375 C9.4184879 23.5564481 6.08711885 23.7369489 1.5390625 23.55859375 C1.0234375 22.36234375 0.5078125 21.16609375 -0.0234375 19.93359375 C-2.69373371 14.59300133 -6.45121792 11.01121874 -11.82421875 8.41796875 C-18.1542551 6.35484579 -25.20701608 6.68025715 -31.3359375 9.24609375 C-38.82225907 13.14493753 -42.89510117 17.54528952 -45.4609375 25.55859375 C-48.12951969 37.94717731 -47.63955168 51.51089236 -41.7734375 62.80859375 C-37.41367907 67.99317134 -32.37204407 72.20257625 -25.45703125 72.83203125 C-17.42363457 73.06130492 -10.94211397 72.67206948 -4.4609375 67.55859375 C-2.34276925 65.06693207 -0.87091311 62.49890873 0.5390625 59.55859375 C1.1371875 58.40359375 1.7353125 57.24859375 2.3515625 56.05859375 C2.7434375 55.23359375 3.1353125 54.40859375 3.5390625 53.55859375 C8.08711885 53.3802386 11.4184879 53.5607394 15.5390625 55.55859375 C15.37183813 62.91646612 11.91119692 68.77757539 7.5390625 74.55859375 C-1.17413143 82.56565329 -8.69366661 84.91003044 -20.2734375 84.87109375 C-21.22025391 84.88720703 -22.16707031 84.90332031 -23.14257812 84.91992188 C-34.44205806 84.92769853 -41.8240838 81.5223703 -50.1171875 74.0703125 C-59.57441103 64.3477077 -60.75799253 50.53604487 -60.77783203 37.71972656 C-60.60408577 25.27434617 -57.27766045 14.80766699 -48.61328125 5.59375 C-36.17926118 -6.09867841 -14.914467 -8.73561638 0 0 Z " fill="#7FBAD0" transform="translate(1278.4609375,563.44140625)"/>
<path d="M0 0 C3.63 0 7.26 0 11 0 C11.33 8.91 11.66 17.82 12 27 C13.98 25.68 15.96 24.36 18 23 C24.51933217 20.82688928 32.46058589 20.98953103 38.875 23.5 C45.88185345 27.17699098 50.69613925 33.51870515 53.34375 40.90234375 C55.68244546 51.94154315 55.27355179 65.27831763 49.74609375 75.265625 C45.80073092 81.07079102 40.63975184 84.78674939 34 87 C31.73236426 87.14648082 29.45967634 87.2209626 27.1875 87.25 C25.98480469 87.27578125 24.78210937 87.3015625 23.54296875 87.328125 C18.36512896 86.84858967 14.40069 84.96747167 11 81 C10.67 82.65 10.34 84.3 10 86 C6.7 86 3.4 86 0 86 C0 57.62 0 29.24 0 0 Z M15.625 36.65234375 C11.27833574 42.49317384 10.7690947 47.05612286 10.6875 54.1875 C10.65849609 55.01314453 10.62949219 55.83878906 10.59960938 56.68945312 C10.52204585 64.26084608 12.6573033 69.32263234 17.625 75 C22.18997697 77.70517154 25.81938395 78.16399918 31 77 C35.99693763 74.18456126 39.76144617 69.78543918 41.5546875 64.3046875 C43.16001755 55.99640038 43.03426013 46.51207059 39 39 C34.76000066 34.0640433 34.76000066 34.0640433 28.9140625 31.69921875 C23.22304957 31.67008387 19.46951885 32.03236798 15.625 36.65234375 Z " fill="#7EB9D0" transform="translate(1927,561)"/>
<path d="M0 0 C15.84 0 31.68 0 48 0 C48 14.52 48 29.04 48 44 C32.16 44 16.32 44 0 44 C0 29.48 0 14.96 0 0 Z " fill="#76B5CD" transform="translate(1546,227)"/>
<path d="M0 0 C6.57597882 4.13511332 10.90257946 9.39591733 13.1015625 16.9375 C13.7890625 21.125 13.7890625 21.125 13.7890625 32.125 C-1.3909375 32.125 -16.5709375 32.125 -32.2109375 32.125 C-29.53914996 42.76921398 -29.53914996 42.76921398 -22.3359375 49.9375 C-16.1831831 52.27554667 -12.4778284 52.25337804 -6.2109375 50.125 C-5.2209375 49.795 -4.2309375 49.465 -3.2109375 49.125 C-2.16072647 47.27528304 -2.16072647 47.27528304 -1.2109375 45.125 C0.03125 43.0078125 0.03125 43.0078125 1.7890625 41.125 C4.234375 40.69921875 4.234375 40.69921875 6.9140625 40.8125 C8.24824219 40.84923828 8.24824219 40.84923828 9.609375 40.88671875 C11.7890625 41.125 11.7890625 41.125 12.7890625 42.125 C12.7890625 48.1135172 10.76056828 51.02961684 6.6953125 55.328125 C-1.03723233 62.61699923 -8.63146455 62.56477204 -18.765625 62.40625 C-25.5341894 62.12363771 -29.95111862 60.08350969 -35.0234375 55.6875 C-35.7453125 54.841875 -36.4671875 53.99625 -37.2109375 53.125 C-37.9121875 52.444375 -38.6134375 51.76375 -39.3359375 51.0625 C-45.16034678 41.93759212 -45.46849516 29.71226455 -43.7421875 19.296875 C-41.61553919 11.04345416 -37.05149179 4.99362384 -30.1171875 0.1328125 C-21.09730004 -4.63589849 -9.00957523 -4.85909676 0 0 Z M-28.0234375 12.875 C-30.44918893 16.47897355 -30.74234496 18.8723967 -31.2109375 23.125 C-27.19011962 23.15421779 -23.16932936 23.17187188 -19.1484375 23.1875 C-18.01470703 23.19587891 -16.88097656 23.20425781 -15.71289062 23.21289062 C-7.40359396 23.29234127 -7.40359396 23.29234127 0.7890625 22.125 C1.1190625 21.465 1.4490625 20.805 1.7890625 20.125 C0.05397043 14.9197238 -2.55470504 11.1097644 -7.2109375 8.125 C-15.25339009 5.44418247 -21.9522759 6.9387531 -28.0234375 12.875 Z " fill="#7EB9D0" transform="translate(1467.2109375,585.875)"/>
<path d="M0 0 C6.57597882 4.13511332 10.90257946 9.39591733 13.1015625 16.9375 C13.7890625 21.125 13.7890625 21.125 13.7890625 32.125 C-1.3909375 32.125 -16.5709375 32.125 -32.2109375 32.125 C-29.53914996 42.76921398 -29.53914996 42.76921398 -22.3359375 49.9375 C-16.1831831 52.27554667 -12.4778284 52.25337804 -6.2109375 50.125 C-5.2209375 49.795 -4.2309375 49.465 -3.2109375 49.125 C-2.16072647 47.27528304 -2.16072647 47.27528304 -1.2109375 45.125 C0.03125 43.0078125 0.03125 43.0078125 1.7890625 41.125 C4.234375 40.69921875 4.234375 40.69921875 6.9140625 40.8125 C8.24824219 40.84923828 8.24824219 40.84923828 9.609375 40.88671875 C11.7890625 41.125 11.7890625 41.125 12.7890625 42.125 C12.7890625 48.1135172 10.76056828 51.02961684 6.6953125 55.328125 C-1.03723233 62.61699923 -8.63146455 62.56477204 -18.765625 62.40625 C-25.5341894 62.12363771 -29.95111862 60.08350969 -35.0234375 55.6875 C-35.7453125 54.841875 -36.4671875 53.99625 -37.2109375 53.125 C-37.9121875 52.444375 -38.6134375 51.76375 -39.3359375 51.0625 C-45.16034678 41.93759212 -45.46849516 29.71226455 -43.7421875 19.296875 C-41.61553919 11.04345416 -37.05149179 4.99362384 -30.1171875 0.1328125 C-21.09730004 -4.63589849 -9.00957523 -4.85909676 0 0 Z M-28.5859375 14 C-30.58214495 17.4454004 -30.58214495 17.4454004 -31.2109375 23.125 C-20.3209375 23.125 -9.4309375 23.125 1.7890625 23.125 C-1.11067139 13.71811599 -1.11067139 13.71811599 -8.1015625 8.01953125 C-16.00133804 4.66944125 -23.36155112 7.67574281 -28.5859375 14 Z " fill="#7EB9D0" transform="translate(1600.2109375,585.875)"/>
<path d="M0 0 C3.63 0 7.26 0 11 0 C11.06058594 1.54171875 11.12117187 3.0834375 11.18359375 4.671875 C11.26801253 6.6979257 11.35265986 8.7239669 11.4375 10.75 C11.47681641 11.76578125 11.51613281 12.7815625 11.55664062 13.828125 C11.61948242 15.29765625 11.61948242 15.29765625 11.68359375 16.796875 C11.72025146 17.69760742 11.75690918 18.59833984 11.79467773 19.52636719 C11.98306407 21.79596339 12.37366501 23.81562887 13 26 C13.48726562 25.71125 13.97453125 25.4225 14.4765625 25.125 C21.93099341 21.22158891 30.07243077 20.58673735 38.27734375 22.54296875 C40.0625 23.25 40.0625 23.25 43 25 C44.36125 25.7734375 44.36125 25.7734375 45.75 26.5625 C51.53254694 32.82692585 51.45873415 42.16114798 51.51171875 50.2578125 C51.52966995 51.28687714 51.54762115 52.31594177 51.56611633 53.37619019 C51.61979837 56.62575319 51.65397923 59.87517294 51.6875 63.125 C51.72071027 65.34376976 51.75520329 67.56252071 51.79101562 69.78125 C51.87550035 75.18739589 51.9425111 80.59350239 52 86 C48.04 86 44.08 86 40 86 C39.28990969 79.4694973 38.90223949 73.00797893 38.7890625 66.4453125 C38.7747821 65.690224 38.76050171 64.9351355 38.74578857 64.15716553 C38.68801224 61.01368663 38.63319446 57.8703924 38.59863281 54.7265625 C38.5710193 52.4032183 38.52522608 50.08079851 38.4765625 47.7578125 C38.47330963 47.05254425 38.47005676 46.347276 38.46670532 45.62063599 C38.35799762 41.25798788 37.63270108 38.49534812 35 35 C31.56649591 32.42487193 28.16805287 32.64677518 24 33 C18.21275411 34.76560044 15.89249987 36.73241447 13 42 C12.38166777 45.46547629 12.38166777 45.46547629 12.42578125 49.1640625 C12.41161667 49.83738617 12.39745209 50.51070984 12.38285828 51.20443726 C12.34124508 53.34478752 12.32580977 55.48430449 12.3125 57.625 C12.27355328 60.42980768 12.22452663 63.23441054 12.17578125 66.0390625 C12.16604279 66.71600159 12.15630432 67.39294067 12.14627075 68.09039307 C12.04363606 74.09593143 11.5770292 80.02329104 11 86 C7.37 86 3.74 86 0 86 C0 57.62 0 29.24 0 0 Z " fill="#7DB9CF" transform="translate(886,561)"/>
<path d="M0 0 C7.27099404 3.95464371 13.01459347 9.15074908 15.51977539 17.25976562 C17.74462193 28.52573316 18.03564029 43.19138531 11.8515625 53.15625 C8.70538361 56.8032492 5.25913735 59.28558229 0.9375 61.375 C0.18984375 61.74625 -0.5578125 62.1175 -1.328125 62.5 C-9.5792568 65.14036217 -21.19715901 64.55480929 -28.984375 60.75390625 C-35.24719247 56.59831496 -39.1110547 50.87364189 -41.40234375 43.76171875 C-43.87106646 31.096733 -42.93849512 18.81422233 -36.4375 7.5625 C-26.79716419 -1.31675667 -12.49440765 -5.21863474 0 0 Z M-26.3125 14.8125 C-29.73273641 19.82070331 -30.42330762 24.1966549 -30.375 30.1875 C-30.37008545 30.89946533 -30.3651709 31.61143066 -30.36010742 32.3449707 C-30.20395464 39.33661139 -29.22294134 43.82678714 -24.625 49.25 C-19.71593617 53.32093098 -16.04810032 53.82159734 -9.75390625 53.6875 C-5.91241923 53.24146377 -3.88182214 51.98803028 -1.0625 49.375 C3.6567793 43.12514363 4.1420371 38.59229315 4.1875 31.0625 C4.208125 30.22009766 4.22875 29.37769531 4.25 28.50976562 C4.28793259 22.44529239 3.5016874 18.09909218 -0.81640625 13.51171875 C-1.71166016 12.79435547 -1.71166016 12.79435547 -2.625 12.0625 C-3.52412109 11.32580078 -3.52412109 11.32580078 -4.44140625 10.57421875 C-11.98460297 4.99407081 -20.58628112 8.60909621 -26.3125 14.8125 Z " fill="#7EB9D0" transform="translate(991.0625,584.625)"/>
<path d="M0 0 C7.27099404 3.95464371 13.01459347 9.15074908 15.51977539 17.25976562 C17.74462193 28.52573316 18.03564029 43.19138531 11.8515625 53.15625 C8.70538361 56.8032492 5.25913735 59.28558229 0.9375 61.375 C0.18984375 61.74625 -0.5578125 62.1175 -1.328125 62.5 C-9.5792568 65.14036217 -21.19715901 64.55480929 -28.984375 60.75390625 C-35.24719247 56.59831496 -39.1110547 50.87364189 -41.40234375 43.76171875 C-43.87106646 31.096733 -42.93849512 18.81422233 -36.4375 7.5625 C-26.79716419 -1.31675667 -12.49440765 -5.21863474 0 0 Z M-27.0625 15.375 C-31.8567447 22.50157996 -30.9550237 32.77485129 -29.6640625 40.875 C-28.2443689 45.59502027 -25.31310368 49.01141163 -21.51171875 52.08203125 C-16.84085529 54.54782998 -12.15955177 54.27236827 -7.0625 53.375 C-2.11663474 51.07870541 0.24510518 48.06176135 2.9375 43.375 C4.31223284 39.25080148 4.16141707 35.38248491 4.1875 31.0625 C4.208125 30.22009766 4.22875 29.37769531 4.25 28.50976562 C4.28793259 22.44529239 3.5016874 18.09909218 -0.81640625 13.51171875 C-1.71166016 12.79435547 -1.71166016 12.79435547 -2.625 12.0625 C-3.52412109 11.32580078 -3.52412109 11.32580078 -4.44140625 10.57421875 C-8.16522113 7.81949304 -11.63381496 7.85868835 -16.1640625 7.90625 C-21.19003041 8.719075 -23.99245235 11.46219417 -27.0625 15.375 Z " fill="#7EB9D0" transform="translate(2152.0625,584.625)"/>
<path d="M0 0 C7.27099404 3.95464371 13.01459347 9.15074908 15.51977539 17.25976562 C17.74462193 28.52573316 18.03564029 43.19138531 11.8515625 53.15625 C8.70538361 56.8032492 5.25913735 59.28558229 0.9375 61.375 C0.18984375 61.74625 -0.5578125 62.1175 -1.328125 62.5 C-9.5792568 65.14036217 -21.19715901 64.55480929 -28.984375 60.75390625 C-35.24719247 56.59831496 -39.1110547 50.87364189 -41.40234375 43.76171875 C-43.87106646 31.096733 -42.93849512 18.81422233 -36.4375 7.5625 C-26.79716419 -1.31675667 -12.49440765 -5.21863474 0 0 Z M-27.3125 14.75 C-31.82988811 22.24734581 -31.73015586 32.76800228 -29.82421875 41.03515625 C-28.06655523 46.43433805 -24.94236177 50.51073331 -20.0625 53.375 C-15.13426145 54.59867828 -11.15103683 54.67836272 -6.25 53.3125 C-1.53845369 50.44861891 1.96773622 46.62770342 3.9375 41.375 C5.96917989 32.84194446 5.88508916 23.33871285 1.9375 15.375 C-1.22719636 11.7634368 -4.77122991 8.58423275 -9.671875 8.13671875 C-17.70318614 7.94692408 -21.66039908 8.78389347 -27.3125 14.75 Z " fill="#7BB8CF" transform="translate(1345.0625,584.625)"/>
<path d="M0 0 C1.14662109 -0.01740234 1.14662109 -0.01740234 2.31640625 -0.03515625 C9.05561561 -0.00083091 14.66346235 1.2963682 19.9375 5.75 C23.44788125 9.9624575 25.60751719 12.74563281 25.125 18.375 C21.39970946 19.61676351 17.96567288 20.32953123 14.125 19.375 C12.4563438 17.7063438 11.38080034 16.05955295 10.23046875 14.00390625 C9.14030062 12.0426538 9.14030062 12.0426538 6.125 11.375 C1.19419554 10.97809314 -3.36909362 10.84350363 -8.0625 12.5 C-10.22053934 14.31443177 -10.22053934 14.31443177 -9.98828125 17.4921875 C-9.95089844 18.44351563 -9.91351562 19.39484375 -9.875 20.375 C-4.0256326 22.71061313 1.80718634 24.99038558 7.8203125 26.8671875 C9.01454834 27.24399658 9.01454834 27.24399658 10.23291016 27.62841797 C11.79885284 28.11715574 13.36880539 28.59326857 14.94287109 29.05517578 C19.82579932 30.5880253 22.79499154 32.29795542 26.125 36.375 C28.42886963 41.82051004 28.54488963 46.70580565 27.125 52.375 C24.27741323 57.85924119 20.25363187 62.03549594 14.515625 64.4921875 C10.19796376 65.61637119 6.19321062 65.74301382 1.75 65.75 C0.93789062 65.77449219 0.12578125 65.79898438 -0.7109375 65.82421875 C-7.73304073 65.85797886 -12.71933807 63.95149242 -18.15234375 59.515625 C-22.30140552 54.79057583 -23.76211198 51.69672918 -23.875 45.375 C-20.05179443 43.95241188 -16.96218695 43.13457724 -12.875 43.375 C-12.64425781 43.91769531 -12.41351562 44.46039062 -12.17578125 45.01953125 C-10.11879791 49.53188601 -8.68000685 52.43011628 -3.875 54.375 C1.26227837 55.89283224 6.15137382 55.23182044 11.125 53.375 C13.01323277 52.32565419 13.01323277 52.32565419 14.125 50.375 C14.3753577 46.74964024 14.3753577 46.74964024 14.125 43.375 C13.3 43.08367188 12.475 42.79234375 11.625 42.4921875 C9.17397089 41.62229101 6.72673491 40.74449454 4.28125 39.859375 C1.48132983 38.84873715 -1.33002309 37.88747871 -4.15625 36.953125 C-11.67401012 34.40228671 -17.49994288 32.40160689 -21.875 25.375 C-23.5020583 20.4938251 -23.28643185 16.63094987 -21.6875 11.75 C-16.76975793 2.59282511 -9.87865158 -0.14842715 0 0 Z " fill="#7FBAD0" transform="translate(1670.875,582.625)"/>
<path d="M0 0 C2.97 0.33 5.94 0.66 9 1 C9.66 2.98 10.32 4.96 11 7 C11.47050781 6.57847656 11.94101563 6.15695312 12.42578125 5.72265625 C13.04839844 5.17480469 13.67101563 4.62695312 14.3125 4.0625 C14.92738281 3.51722656 15.54226562 2.97195313 16.17578125 2.41015625 C21.50161759 -1.70681788 29.6134777 -0.47065466 36 0 C40.67023587 1.1787701 43.91114421 2.99490235 47.4375 6.25 C51.31684121 13.07764053 51.32449656 20.41121059 51.4140625 28.0625 C51.43342865 29.09439453 51.4527948 30.12628906 51.4727478 31.18945312 C51.53214727 34.45955343 51.57876973 37.72968969 51.625 41 C51.66321627 43.22787926 51.70227009 45.45574432 51.7421875 47.68359375 C51.83781604 53.12227943 51.92199244 58.5610342 52 64 C48.04 64 44.08 64 40 64 C39.32382831 57.63504502 38.89989202 51.31650386 38.75390625 44.91796875 C38.7289357 43.85535324 38.7289357 43.85535324 38.70346069 42.77127075 C38.63699598 39.83011445 38.57480912 36.88896669 38.52319336 33.94750977 C38.48333786 31.77073142 38.43190641 29.59446138 38.37890625 27.41796875 C38.3538501 26.13688232 38.32879395 24.8557959 38.30297852 23.53588867 C38.00072372 20.00844616 37.38992554 17.25012664 36 14 C32.50791049 11.35963964 29.76547904 10.77477797 25.5 11.0625 C21.21816161 11.72679871 18.33259453 13.15510223 15 16 C12.64171394 19.5300832 12.70519299 22.79569714 12.62109375 26.96875 C12.59560204 27.98298035 12.59560204 27.98298035 12.56959534 29.0177002 C12.51665323 31.17837178 12.47636457 33.33903328 12.4375 35.5 C12.378633 38.32304264 12.31417689 41.14591521 12.24609375 43.96875 C12.23017181 44.65187256 12.21424988 45.33499512 12.19784546 46.03881836 C12.03881248 52.05519008 11.5698039 58.00999532 11 64 C7.37 64 3.74 64 0 64 C0 42.88 0 21.76 0 0 Z " fill="#7FB9D0" transform="translate(2247,583)"/>
<path d="M0 0 C0 21.12 0 42.24 0 64 C-2.97 64 -5.94 64 -9 64 C-9.33 62.35 -9.66 60.7 -10 59 C-12.58096575 60.24831023 -14.88400685 61.56709873 -17.3125 63.125 C-23.96948078 66.44724557 -32.49642521 66.21829227 -39.5703125 64.3046875 C-44.02868778 62.28739983 -47.65692314 59.36669052 -50 55 C-50.75292843 50.87155598 -50.72134982 46.78944144 -50.70703125 42.6015625 C-50.72215256 41.41146576 -50.73727386 40.22136902 -50.75285339 38.99520874 C-50.79574107 35.20494657 -50.80457012 31.41548069 -50.8125 27.625 C-50.83564324 25.05076006 -50.8610082 22.47653908 -50.88867188 19.90234375 C-50.95153586 13.60149206 -50.98386271 7.30113764 -51 1 C-47.37 1 -43.74 1 -40 1 C-39.38251744 8.48861823 -38.98261295 15.95173743 -38.81640625 23.46484375 C-38.78390218 24.80713205 -38.7512674 26.14941718 -38.71850586 27.49169922 C-38.66935318 29.52072908 -38.62518602 31.54924246 -38.59671021 33.57867432 C-38.56932141 35.51230575 -38.52319335 37.44564315 -38.4765625 39.37890625 C-38.45674316 40.5088501 -38.43692383 41.63879395 -38.41650391 42.80297852 C-37.87317364 46.97350009 -36.64920418 50.656204 -33.3125 53.375 C-28.35544925 54.71474345 -24.38309051 54.548017 -19.6875 52.6875 C-15.60904048 50.21736792 -15.60904048 50.21736792 -13.4443512 46.1774292 C-12.99046278 43.95326529 -12.80289249 41.86556305 -12.70288086 39.59863281 C-12.66291489 38.7380426 -12.62294891 37.87745239 -12.58177185 36.99078369 C-12.54318558 36.07085632 -12.5045993 35.15092896 -12.46484375 34.203125 C-12.42186661 33.25435486 -12.37888947 32.30558472 -12.33460999 31.32806396 C-12.1984227 28.30219886 -12.06789066 25.2761199 -11.9375 22.25 C-11.84607587 20.19659795 -11.75428339 18.14321227 -11.66210938 16.08984375 C-11.43713382 11.06007564 -11.21722935 6.03010837 -11 1 C-9.35422741 0.83273455 -7.70838013 0.66620388 -6.0625 0.5 C-5.14597656 0.4071875 -4.22945312 0.314375 -3.28515625 0.21875 C-1 0 -1 0 0 0 Z " fill="#7DB8CF" transform="translate(2230,583)"/>
<path d="M0 0 C0 21.12 0 42.24 0 64 C-2.97 64 -5.94 64 -9 64 C-9.33 62.35 -9.66 60.7 -10 59 C-12.58096575 60.24831023 -14.88400685 61.56709873 -17.3125 63.125 C-23.96948078 66.44724557 -32.49642521 66.21829227 -39.5703125 64.3046875 C-44.02868778 62.28739983 -47.65692314 59.36669052 -50 55 C-50.75292843 50.87155598 -50.72134982 46.78944144 -50.70703125 42.6015625 C-50.72215256 41.41146576 -50.73727386 40.22136902 -50.75285339 38.99520874 C-50.79574107 35.20494657 -50.80457012 31.41548069 -50.8125 27.625 C-50.83564324 25.05076006 -50.8610082 22.47653908 -50.88867188 19.90234375 C-50.95153586 13.60149206 -50.98386271 7.30113764 -51 1 C-47.37 1 -43.74 1 -40 1 C-39.38251744 8.48861823 -38.98261295 15.95173743 -38.81640625 23.46484375 C-38.78390218 24.80713205 -38.7512674 26.14941718 -38.71850586 27.49169922 C-38.66935318 29.52072908 -38.62518602 31.54924246 -38.59671021 33.57867432 C-38.56932141 35.51230575 -38.52319335 37.44564315 -38.4765625 39.37890625 C-38.45674316 40.5088501 -38.43692383 41.63879395 -38.41650391 42.80297852 C-37.87317364 46.97350009 -36.64920418 50.656204 -33.3125 53.375 C-28.35544925 54.71474345 -24.38309051 54.548017 -19.6875 52.6875 C-15.60904048 50.21736792 -15.60904048 50.21736792 -13.4443512 46.1774292 C-12.99046278 43.95326529 -12.80289249 41.86556305 -12.70288086 39.59863281 C-12.66291489 38.7380426 -12.62294891 37.87745239 -12.58177185 36.99078369 C-12.54318558 36.07085632 -12.5045993 35.15092896 -12.46484375 34.203125 C-12.42186661 33.25435486 -12.37888947 32.30558472 -12.33460999 31.32806396 C-12.1984227 28.30219886 -12.06789066 25.2761199 -11.9375 22.25 C-11.84607587 20.19659795 -11.75428339 18.14321227 -11.66210938 16.08984375 C-11.43713382 11.06007564 -11.21722935 6.03010837 -11 1 C-9.35422741 0.83273455 -7.70838013 0.66620388 -6.0625 0.5 C-5.14597656 0.4071875 -4.22945312 0.314375 -3.28515625 0.21875 C-1 0 -1 0 0 0 Z " fill="#7DB8CF" transform="translate(1910,583)"/>
<path d="M0 0 C0 21.12 0 42.24 0 64 C-2.97 64 -5.94 64 -9 64 C-9.33 62.35 -9.66 60.7 -10 59 C-12.58096575 60.24831023 -14.88400685 61.56709873 -17.3125 63.125 C-23.96948078 66.44724557 -32.49642521 66.21829227 -39.5703125 64.3046875 C-44.02868778 62.28739983 -47.65692314 59.36669052 -50 55 C-50.75292843 50.87155598 -50.72134982 46.78944144 -50.70703125 42.6015625 C-50.72215256 41.41146576 -50.73727386 40.22136902 -50.75285339 38.99520874 C-50.79574107 35.20494657 -50.80457012 31.41548069 -50.8125 27.625 C-50.83564324 25.05076006 -50.8610082 22.47653908 -50.88867188 19.90234375 C-50.95153586 13.60149206 -50.98386271 7.30113764 -51 1 C-47.37 1 -43.74 1 -40 1 C-39.38251744 8.48861823 -38.98261295 15.95173743 -38.81640625 23.46484375 C-38.78390218 24.80713205 -38.7512674 26.14941718 -38.71850586 27.49169922 C-38.66935318 29.52072908 -38.62518602 31.54924246 -38.59671021 33.57867432 C-38.56932141 35.51230575 -38.52319335 37.44564315 -38.4765625 39.37890625 C-38.45674316 40.5088501 -38.43692383 41.63879395 -38.41650391 42.80297852 C-37.87317364 46.97350009 -36.64920418 50.656204 -33.3125 53.375 C-28.35544925 54.71474345 -24.38309051 54.548017 -19.6875 52.6875 C-15.60904048 50.21736792 -15.60904048 50.21736792 -13.4443512 46.1774292 C-12.99046278 43.95326529 -12.80289249 41.86556305 -12.70288086 39.59863281 C-12.66291489 38.7380426 -12.62294891 37.87745239 -12.58177185 36.99078369 C-12.54318558 36.07085632 -12.5045993 35.15092896 -12.46484375 34.203125 C-12.42186661 33.25435486 -12.37888947 32.30558472 -12.33460999 31.32806396 C-12.1984227 28.30219886 -12.06789066 25.2761199 -11.9375 22.25 C-11.84607587 20.19659795 -11.75428339 18.14321227 -11.66210938 16.08984375 C-11.43713382 11.06007564 -11.21722935 6.03010837 -11 1 C-9.35422741 0.83273455 -7.70838013 0.66620388 -6.0625 0.5 C-5.14597656 0.4071875 -4.22945312 0.314375 -3.28515625 0.21875 C-1 0 -1 0 0 0 Z " fill="#7DB8CF" transform="translate(1070,583)"/>
<path d="M0 0 C3.93002771 3.24497701 6.9544776 7.14975179 9.12890625 11.7578125 C9.30859375 14.5703125 9.30859375 14.5703125 9.12890625 16.7578125 C5.58459364 18.5299688 1.96360879 18.68098163 -1.87109375 17.7578125 C-3.85025252 15.89332602 -5.16378402 14.01710732 -6.58203125 11.703125 C-7.87941399 9.47263197 -7.87941399 9.47263197 -10.87109375 7.7578125 C-15.81478007 7.02604482 -19.80683176 7.23535662 -24.30859375 9.4453125 C-28.53094544 13.25572744 -30.54422003 17.10223716 -31.0480957 22.73730469 C-31.11499408 24.99425856 -31.15592487 27.25003211 -31.18359375 29.5078125 C-31.21259766 30.28125 -31.24160156 31.0546875 -31.27148438 31.8515625 C-31.34784357 38.85311304 -29.24856329 43.87603124 -24.80859375 49.2578125 C-19.49820262 51.96950159 -13.62511225 51.59599204 -7.99609375 49.8828125 C-4.56656795 46.4532867 -2.81112841 42.15797623 -0.87109375 37.7578125 C0.58713837 37.7308082 2.045513 37.71141463 3.50390625 37.6953125 C4.72207031 37.67791016 4.72207031 37.67791016 5.96484375 37.66015625 C8.12890625 37.7578125 8.12890625 37.7578125 10.12890625 38.7578125 C9.50309393 47.8320912 5.94964958 52.30769314 -0.7734375 58.2421875 C-7.41750461 63.04274251 -15.05506044 62.27288582 -22.87109375 61.7578125 C-30.17843067 60.51556522 -35.6912886 57.02073878 -40.12109375 51.08203125 C-46.13456878 40.75742522 -46.05780015 26.24318409 -43.15234375 14.96875 C-40.49676536 7.39119444 -35.97630459 2.17767512 -28.93359375 -1.6796875 C-20.06869925 -5.17099869 -8.22520113 -4.8711005 0 0 Z " fill="#7EB9D0" transform="translate(2354.87109375,586.2421875)"/>
<path d="M0 0 C3.3 0 6.6 0 10 0 C10 28.38 10 56.76 10 86 C6.7 86 3.4 86 0 86 C0 57.62 0 29.24 0 0 Z " fill="#76B5CD" transform="translate(2401,561)"/>
<path d="M0 0 C3.3 0 6.6 0 10 0 C10 28.38 10 56.76 10 86 C6.7 86 3.4 86 0 86 C0 57.62 0 29.24 0 0 Z " fill="#76B5CD" transform="translate(1834,561)"/>
<path d="M0 0 C3.3 0 6.6 0 10 0 C10 28.38 10 56.76 10 86 C6.7 86 3.4 86 0 86 C0 57.62 0 29.24 0 0 Z " fill="#76B5CD" transform="translate(1400,561)"/>
<path d="M0 0 C3.3 0 6.6 0 10 0 C10 28.38 10 56.76 10 86 C6.7 86 3.4 86 0 86 C0 57.62 0 29.24 0 0 Z " fill="#76B5CD" transform="translate(1373,561)"/>
<path d="M0 0 C3.63 0.33 7.26 0.66 11 1 C11 21.79 11 42.58 11 64 C7.37 64 3.74 64 0 64 C0 42.88 0 21.76 0 0 Z " fill="#78B6CE" transform="translate(2374,583)"/>
<path d="M0 0 C3.96 0 7.92 0 12 0 C12.75268817 18.39904421 12.75268817 18.39904421 8 25 C6 27.0625 6 27.0625 4 28 C1.75 27.6875 1.75 27.6875 0 27 C-0.75 25.3125 -0.75 25.3125 -1 23 C0.28062485 21.2925002 1.61767557 19.62626404 3 18 C3.77833534 15.81785432 3.77833534 15.81785432 4 14 C2.68 13.34 1.36 12.68 0 12 C0 8.04 0 4.08 0 0 Z " fill="#7DB9CF" transform="translate(1626,560)"/>
<path d="M0 0 C3.63 0 7.26 0 11 0 C11 3.96 11 7.92 11 12 C7.37 12 3.74 12 0 12 C0 8.04 0 4.08 0 0 Z " fill="#78B6CD" transform="translate(2374,561)"/>
<path d="M0 0 C1.98 0.99 1.98 0.99 4 2 C3.01 2.495 3.01 2.495 2 3 C2 40.95 2 78.9 2 118 C0 116 0 116 -0.24609566 113.94228935 C-0.24425207 113.08870905 -0.24240849 112.23512875 -0.24050903 111.35568237 C-0.24325836 110.37689117 -0.24600769 109.39809998 -0.24884033 108.38964844 C-0.24164978 107.31215332 -0.23445923 106.2346582 -0.22705078 105.12451172 C-0.22734283 103.99280548 -0.22763489 102.86109924 -0.22793579 101.69509888 C-0.22653812 97.9398848 -0.21095626 94.18486708 -0.1953125 90.4296875 C-0.19158393 87.83179838 -0.18873622 85.23390787 -0.18673706 82.63601685 C-0.17987089 76.4878341 -0.16409462 70.33973287 -0.14403808 64.19158089 C-0.12170136 57.19288685 -0.11069127 50.19418946 -0.10064721 43.19546866 C-0.07972897 28.79694098 -0.04453909 14.39847301 0 0 Z " fill="#85D5DD" transform="translate(153,440)"/>
<path d="M0 0 C1.98 0.99 1.98 0.99 4 2 C3.01 2.495 3.01 2.495 2 3 C1.67 16.86 1.34 30.72 1 45 C0.67 45 0.34 45 0 45 C0 30.15 0 15.3 0 0 Z " fill="#9BDBE8" transform="translate(153,440)"/>
<path d="M0 0 C0.66 0.33 1.32 0.66 2 1 C-0.6418167 3.67067203 -3.2891042 6.33585333 -5.9375 9 C-6.69224609 9.763125 -7.44699219 10.52625 -8.22460938 11.3125 C-8.94326172 12.034375 -9.66191406 12.75625 -10.40234375 13.5 C-11.39995728 14.50546875 -11.39995728 14.50546875 -12.41772461 15.53125 C-14 17 -14 17 -15 17 C-15 14.36 -15 11.72 -15 9 C-14.34 10.32 -13.68 11.64 -13 13 C-12.47212891 12.34644531 -12.47212891 12.34644531 -11.93359375 11.6796875 C-8.30088644 7.29767503 -4.42540779 3.57436783 0 0 Z " fill="#A8D0E0" transform="translate(2732,305)"/>
<path d="M0 0 C0.33 0 0.66 0 1 0 C1.02505615 0.63502441 1.0501123 1.27004883 1.07592773 1.92431641 C1.19256789 4.82471542 1.31498393 7.72484349 1.4375 10.625 C1.47681641 11.62402344 1.51613281 12.62304688 1.55664062 13.65234375 C1.73059981 17.69354941 1.93192429 21.59154572 2.59765625 25.5859375 C3 28 3 28 2 30 C1.34 30 0.68 30 0 30 C0 20.1 0 10.2 0 0 Z " fill="#ABD1E0" transform="translate(896,561)"/>
<path d="M0 0 C0.66 0.33 1.32 0.66 2 1 C-2.29 5.29 -6.58 9.58 -11 14 C-11.66 13.67 -12.32 13.34 -13 13 C-8.96476648 8.18876004 -4.95532767 3.86757281 0 0 Z " fill="#9AC9DB" transform="translate(1664,305)"/>
<path d="M0 0 C0.66 0.33 1.32 0.66 2 1 C-2.29 5.29 -6.58 9.58 -11 14 C-11 9.82308582 -8.77013484 7.86318847 -6 5 C-4.05228995 3.24842937 -2.05675499 1.62627139 0 0 Z " fill="#99C7D9" transform="translate(2081,305)"/>
<path d="M0 0 C0 3 0 3 -1.96875 5.26171875 C-2.8040625 6.06222656 -3.639375 6.86273438 -4.5 7.6875 C-5.3353125 8.49574219 -6.170625 9.30398437 -7.03125 10.13671875 C-7.6809375 10.75160156 -8.330625 11.36648437 -9 12 C-9 8.00102358 -7.64683965 6.93298448 -5 4 C-3.36643049 2.62631655 -1.7074998 1.28062485 0 0 Z " fill="#5A92C2" transform="translate(301,184)"/>
</svg>
